#N canvas 513 268 552 479 12;
#X obj 99 174 bp~ 150 10;
#X obj 90 256 dbtorms;
#X obj 90 280 pack f 10;
#X obj 90 304 line~;
#X obj 95 32 inlet~;
#X obj 139 118 \$1;
#X obj 152 66 loadbang;
#X connect 1 0 2 0;
#X connect 2 0 3 0;
#X connect 4 0 0 0;
#X connect 5 0 0 1;
#X connect 6 0 5 0;
