#N canvas 424 337 858 544 12;
#N canvas 67 82 1419 723 filterbank 1;
#X obj 292 165 bp~ 350 10;
#X obj 382 165 bp~ 500 10;
#X obj 470 165 bp~ 630 10;
#X obj 559 165 bp~ 800 10;
#X obj 647 165 bp~ 1000 10;
#X obj 737 165 bp~ 1300 10;
#X obj 831 165 bp~ 1600 10;
#X obj 925 165 bp~ 2000 10;
#X obj 1016 165 bp~ 3500 10;
#X obj 1113 165 bp~ 5000 10;
#X obj 1202 165 bp~ 8000 10;
#X obj 1305 165 hip~ 10000;
#X obj 46 152 lop~ 100;
#X obj 187 66 noise~;
#X obj 45 371 *~;
#X obj 87 413 dbtorms;
#X obj 87 442 pack f 10;
#X obj 87 466 line~;
#X obj 90 195 vsl 19 162 0 106 0 0 empty empty empty 0 -9 0 12 #fcfcfc #000000 #000000 0 1;
#X obj 77 534 dac~;
#X floatatom 136 392 4 0 0 0 - - - 0;
#X obj 137 369 - 100;
#X floatatom 92 366 5 0 0 0 - - - 0;
#X obj 193 370 *~;
#X obj 235 412 dbtorms;
#X obj 235 441 pack f 10;
#X obj 235 465 line~;
#X obj 236 195 vsl 19 162 0 106 0 0 empty empty empty 0 -9 0 12 #fcfcfc #000000 #000000 0 1;
#X floatatom 284 391 9 0 0 0 - - - 0;
#X obj 285 368 - 100;
#X floatatom 240 365 5 0 0 0 - - - 0;
#X obj 205 163 bp~ 250 30;
#X obj 210 567 - 100;
#X floatatom 210 591 17 0 0 0 - - - 0;
#X obj 210 543 env~ 4096;
#X connect 12 0 14 0;
#X connect 13 0 12 0;
#X connect 13 0 31 0;
#X connect 14 0 19 0;
#X connect 15 0 16 0;
#X connect 15 0 20 0;
#X connect 16 0 17 0;
#X connect 17 0 14 1;
#X connect 18 0 15 0;
#X connect 18 0 21 0;
#X connect 21 0 22 0;
#X connect 23 0 19 1;
#X connect 24 0 25 0;
#X connect 24 0 28 0;
#X connect 25 0 26 0;
#X connect 26 0 23 1;
#X connect 27 0 24 0;
#X connect 27 0 29 0;
#X connect 29 0 30 0;
#X connect 31 0 23 0;
#X connect 32 0 33 0;
#X connect 34 0 32 0;
#X restore 95 315 pd filterbank;
