#N canvas 261 38 1251 875 12;
#X obj 47 56 hsl 170 20 0 1000 0 0 empty empty empty -2 -10 0 12 #fcfcfc #000000 #000000 0 1;
#X obj 79 377 +~;
#X obj 133 249 *~;
#X floatatom 134 118 5 0 0 0 - - - 0;
#X floatatom 151 219 5 0 0 0 - - - 0;
#X obj 78 794 dac~;
#X obj 184 605 tgl 20 0 empty empty empty 0 -10 0 12 #fcfcfc #000000 #000000 0 1;
#X text 96 683 Line Ausgang zur Soundcard.;
#X text 36 3 Einfache_Frequenz-Modulation;
#N canvas 0 50 450 250 (subpatch) 0;
#X array fm_2 100 float 1;
#A 0 -0.529718 -0.547208 -0.56446 -0.581462 -0.598222 -0.614729 -0.630956 -0.64692 -0.662615 -0.678006 -0.693112 -0.70793 -0.72243 -0.73662 -0.750502 -0.764057 -0.777274 -0.790167 -0.802724 -0.814917 -0.826771 -0.838281 -0.849404 -0.860172 -0.870582 -0.880599 -0.890239 -0.899509 -0.908383 -0.916857 -0.92495 -0.932647 -0.939923 -0.946807 -0.953297 -0.959345 -0.964994 -0.970241 -0.97505 -0.979441 -0.983425 -0.986975 -0.990092 -0.992796 -0.995074 -0.996905 -0.998319 -0.999316 -0.999853 -0.999972 -0.999675 -0.998924 -0.997748 -0.996155 -0.994122 -0.991655 -0.988773 -0.985466 -0.981716 -0.977557 -0.972988 -0.967971 -0.96255 -0.956728 -0.950472 -0.94381 -0.936756 -0.929286 -0.92141 -0.913149 -0.904495 -0.895435 -0.886001 -0.876195 -0.865986 -0.855416 -0.84449 -0.833178 -0.821513 -0.809505 -0.797137 -0.784422 -0.771379 -0.758003 -0.744287 -0.730261 -0.715927 -0.701264 -0.686309 -0.671067 -0.655519 -0.639693 -0.6236 -0.60723 -0.590595 -0.573713 -0.556583 -0.539204 -0.521599 -0.503775;
#X coords 0 1 99 -1 200 140 1;
#X restore 780 400 graph;
#N canvas 45 83 566 577 fft 0;
#X obj 19 61 inlet~;
#X obj 95 214 inlet;
#X obj 29 92 rfft~;
#X obj 29 125 *~;
#X obj 60 125 *~;
#X obj 29 155 sqrt~;
#X obj 332 109 block~ 4096 1;
#X obj 29 181 biquad~ 0 0 0 0 1;
#X text 93 93 Fourier series;
#X text 98 146 magnitude;
#X text 96 131 calculate;
#X text 21 3 This subpatch computes the spectrum of the incoming signal with a (rectangular windowed) FFT. FFTs aren't properly introduced until much later.;
#X text 83 61 signal to analyze;
#X text 192 166 delay two samples;
#X text 191 182 for better graphing;
#X obj 16 425 samplerate~;
#X obj 16 402 bng 18 250 50 0 empty empty empty 0 -6 0 8 #fcfcfc #000000 #000000;
#X floatatom 16 472 5 0 0 0 - - - 0;
#X obj 16 448 / 256;
#X obj 16 378 loadbang;
#X floatatom 16 541 5 0 0 0 - - - 0;
#X obj 24 494 s fundamental;
#X obj 16 517 ftom;
#X text 14 319 At load time \, calculate a good choice of fundamental frequency for showing spectra: the 16th bin in a 4096-point spectrum \, so SR*16/4096 or SR/256.;
#X text 145 216 "bang" into this inlet to graph it;
#X floatatom 191 480 5 0 0 0 - - - 0;
#X obj 191 456 / 4096;
#X text 187 425 One bin is SR/4096:;
#X text 72 540 <-just out of curiosity \, here's the fundamental pitch;
#X obj 191 502 s freq-step;
#X obj 95 248 tabwrite~ \$0-sidebands;
#X obj 20 281 tabwrite~ \$0-sidebands;
#X connect 0 0 2 0;
#X connect 0 0 31 0;
#X connect 1 0 30 0;
#X connect 1 0 31 0;
#X connect 2 0 3 0;
#X connect 2 0 3 1;
#X connect 2 1 4 0;
#X connect 2 1 4 1;
#X connect 3 0 5 0;
#X connect 4 0 5 0;
#X connect 5 0 7 0;
#X connect 7 0 30 0;
#X connect 15 0 18 0;
#X connect 15 0 26 0;
#X connect 16 0 15 0;
#X connect 17 0 21 0;
#X connect 17 0 22 0;
#X connect 18 0 17 0;
#X connect 19 0 16 0;
#X connect 22 0 20 0;
#X connect 25 0 29 0;
#X connect 26 0 25 0;
#X restore 133 578 pd fft;
#X text 216 534 graph frequencies;
#X obj 191 557 metro 20;
#X obj 191 536 tgl 15 0 empty empty empty 17 7 0 10 #fcfcfc #000000 #000000 0 1;
#N canvas 0 22 450 300 (subpatch) 0;
#X array \$0-sidebands 100 float 0;
#X coords 0 2000 100 -40 200 130 1;
#X restore 988 401 graph;
#X text 1064 538 500 Hz;
#X text 983 532 0 Hz;
#X text 1135 540 1000 Hz;
#X text 214 603 Graph Output;
#X obj 77 740 *~;
#X obj 171 770 line~;
#X msg 171 746 \$1 10;
#X obj 321 651 vsl 19 162 0 1 0 0 empty empty empty 0 -9 0 12 #fcfcfc #000000 #000000 0 1;
#N canvas 150 175 789 683 graph 0;
#X obj 161 79 metro 100;
#X obj 138 137 table fm;
#X obj 139 111 tabwrite~ fm;
#X obj 130 183 tabwrite~ fm_2;
#X obj 37 31 inlet~;
#X obj 168 37 inlet;
#X connect 0 0 3 0;
#X connect 0 0 2 0;
#X connect 4 0 2 0;
#X connect 4 0 3 0;
#X connect 5 0 0 0;
#X restore 133 633 pd graph;
#X floatatom 44 83 5 0 0 0 - - - 0;
#X obj 137 88 hsl 170 20 0.5 500 1 0 empty empty empty -2 -10 0 12 #fcfcfc #000000 #000000 0 1;
#X text 201 218 Index;
#X obj 145 458 snapshot~;
#X obj 146 433 metro 50;
#X obj 147 413 tgl 19 0 empty empty empty 0 -10 0 12 #fcfcfc #000000 #000000 0 1;
#X floatatom 145 479 5 0 0 0 - - - 0;
#X obj 44 114 sig~;
#X obj 79 457 osc~;
#X obj 133 147 osc~;
#X text 178 141 comment;
#X obj 154 189 hsl 162 19 0 2000 0 0 empty empty empty -2 -10 0 12 #fcfcfc #000000 #000000 0 1;
#X text 115 361 Das Modulator-Signal wird zum Carrier addiert (der Carrier verhält sich dabei wie die 0-Linie). Dieser Wert wird zum Input für einen Oszillator.;
#X text 260 216 Der Index bestimmt die maximale Amplitude des Modulator-Signals (-> Ambitus der Modulation). Ein Index von 100 bedeutet beispielsweise \, dass je nach Phase des osc~ Werte zwischen -100 und 100 zum Carrier addiert (bzw. substrahiert) werden. Klanglich also bei langsamer Mod-Freq die "Tiefe" (Ambitus des Vibratos) \, bei höheren Modulationsfrequenzen die Stärke und Anzahl der Seitenbänder.;
#X text 319 86 Modulator-FREQ;
#X text 47 34 Carrier-Freq;
#X connect 0 0 24 0;
#X connect 1 0 27 0;
#X connect 1 0 32 0;
#X connect 2 0 1 1;
#X connect 3 0 33 0;
#X connect 4 0 2 1;
#X connect 6 0 23 1;
#X connect 12 0 10 1;
#X connect 13 0 12 0;
#X connect 19 0 5 0;
#X connect 19 0 5 1;
#X connect 20 0 19 1;
#X connect 21 0 20 0;
#X connect 22 0 21 0;
#X connect 24 0 31 0;
#X connect 25 0 3 0;
#X connect 27 0 30 0;
#X connect 28 0 27 0;
#X connect 29 0 28 0;
#X connect 31 0 1 0;
#X connect 32 0 10 0;
#X connect 32 0 19 0;
#X connect 32 0 23 0;
#X connect 33 0 2 0;
#X connect 35 0 4 0;
