#N canvas 121 159 924 582 12;
#X obj 30 117 osc~;
#X obj 30 88 +~;
#X obj 30 146 *~;
#X floatatom 30 31 5 0 0 0 - - - 0;
#X obj 30 59 sig~;
#X obj 30 308 osc~;
#X floatatom 67 119 5 0 0 0 - - - 0;
#X obj 131 120 osc~;
#X obj 131 91 +~;
#X obj 131 149 *~;
#X floatatom 131 34 5 0 0 0 - - - 0;
#X obj 131 62 sig~;
#X floatatom 168 122 5 0 0 0 - - - 0;
#X obj 218 124 osc~;
#X obj 218 95 +~;
#X obj 218 153 *~;
#X floatatom 218 38 5 0 0 0 - - - 0;
#X obj 218 66 sig~;
#X floatatom 255 126 5 0 0 0 - - - 0;
#X obj 28 401 output~;
#X obj 28 356 clip~ -1 1;
#X obj 29 283 +~;
#X floatatom 79 259 5 0 0 0 - - - 0;
#X obj 79 282 sig~;
#X connect 0 0 2 0;
#X connect 1 0 0 0;
#X connect 2 0 21 0;
#X connect 3 0 4 0;
#X connect 4 0 1 0;
#X connect 5 0 20 0;
#X connect 6 0 2 1;
#X connect 7 0 9 0;
#X connect 8 0 7 0;
#X connect 9 0 21 0;
#X connect 10 0 11 0;
#X connect 11 0 8 0;
#X connect 12 0 9 1;
#X connect 13 0 15 0;
#X connect 14 0 13 0;
#X connect 15 0 21 0;
#X connect 16 0 17 0;
#X connect 17 0 14 0;
#X connect 18 0 15 1;
#X connect 20 0 19 0;
#X connect 21 0 5 0;
#X connect 22 0 23 0;
#X connect 23 0 21 1;
