#N canvas 2006 205 1147 841 12;
#X obj 413 210 pack f f;
#X floatatom 285 150 5 0 0 0 - - - 0;
#X floatatom 285 171 5 0 0 0 - - - 0;
#X obj 413 234 s attack;
#X obj 348 107 bng 25 250 50 0 bang empty empty 0 -10 0 12 #ff0400 #000000 #000000;
#X obj 633 111 clone partial 32;
#X obj 633 145 /~ 32;
#X obj 198 108 hsl 80 19 50 5000 0 0 empty sl_freqlo empty -2 -10 0 12 #fcfcfc #000000 #000000 0 1;
#X obj 198 129 hsl 80 19 50 10000 0 0 empty sl_freqhi empty -2 -10 0 12 #fcfcfc #000000 #000000 0 1;
#X obj 198 150 hsl 80 19 1 1000 0 0 empty sl_attlo empty -2 -10 0 12 #fcfcfc #000000 #000000 0 1;
#X obj 198 171 hsl 80 19 1 1000 0 0 empty sl_atthi empty -2 -10 0 12 #fcfcfc #000000 #000000 0 1;
#X obj 198 192 hsl 80 19 50 10000 0 0 empty sl_declo empty -2 -10 0 12 #fcfcfc #000000 #000000 0 1;
#X obj 198 213 hsl 80 19 50 10000 0 0 empty sl_dechi empty -2 -10 0 12 #fcfcfc #000000 #000000 0 1;
#X obj 413 186 t b f;
#X obj 413 292 pack f f;
#X floatatom 285 192 5 0 0 0 - - - 0;
#X floatatom 285 213 5 0 0 0 - - - 0;
#X obj 413 268 t b f;
#X obj 413 316 s decay;
#X obj 413 128 pack f f;
#X floatatom 285 108 5 0 0 0 - - - 0;
#X floatatom 285 129 5 0 0 0 - - - 0;
#X obj 413 104 t b f;
#X obj 413 152 s freq;
#X text 106 109 Freq Low;
#X text 106 130 Freq High;
#X text 106 151 Attack Low;
#X text 106 172 Attack High;
#X text 108 189 Decay Low;
#X text 110 213 Decay High;
#X obj 349 149 vu 19 80 vu empty -1 -10 0 12 #404040 #000000 0 0;
#X obj 633 176 env~;
#X obj 633 200 - 100;
#X obj 377 149 vsl 19 80 0 1 0 0 master empty Vol 0 -9 0 12 #fcfcfc #000000 #000000 0 1;
#X obj 530 97 r master;
#X obj 530 121 pack f 10;
#X obj 530 145 line~;
#X obj 530 169 *~;
#X obj 530 193 dac~;
#X obj 633 224 s vu;
#X obj 350 50 key;
#X obj 350 74 sel 32;
#X msg 419 389 \; sl_freqlo 50 \; sl_freqhi 500 \; sl_attlo 10 \; sl_atthi 500 \; sl_declo 5000 \; sl_dechi 10000;
#X msg 138 389 \; sl_freqlo 4000 \; sl_freqhi 10000 \; sl_attlo 5 \; sl_atthi 10 \; sl_declo 10 \; sl_dechi 200;
#X msg 267 389 \; sl_freqlo 1000 \; sl_freqhi 5000 \; sl_attlo 5 \; sl_atthi 10 \; sl_declo 1000 \; sl_dechi 2000;
#X obj 15 264 loadbang;
#X obj 160 255 bng 19 250 50 0 empty empty High\ Metal\ Clink 0 -10 0 12 #fcfcfc #000000 #000000;
#X obj 286 255 bng 19 250 50 0 empty empty Cymbal 0 -10 0 12 #fcfcfc #000000 #000000;
#X obj 344 255 bng 19 250 50 0 empty empty Ikeda 0 -10 0 12 #fcfcfc #000000 #000000;
#X text 324 112 hz;
#X text 324 130 hz;
#X text 324 151 ms;
#X text 324 172 ms;
#X text 324 192 ms;
#X text 324 215 ms;
#X obj 111 255 bng 19 250 50 0 empty empty Plate 0 -10 0 12 #fcfcfc #000000 #000000;
#X msg 11 389 \; sl_freqlo 50 \; sl_freqhi 2000 \; sl_attlo 10 \; sl_atthi 50 \; sl_declo 3000 \; sl_dechi 7000;
#X text 536 299 alexander bauer 2026;
#X text 765 107 <-- Look Inside;
#X text 687 147 <-- 32 Voices: Volume / 32;
#X connect 0 0 3 0;
#X connect 1 0 0 0;
#X connect 2 0 13 0;
#X connect 5 0 6 0;
#X connect 6 0 31 0;
#X connect 6 0 37 1;
#X connect 7 0 20 0;
#X connect 8 0 21 0;
#X connect 9 0 1 0;
#X connect 10 0 2 0;
#X connect 11 0 15 0;
#X connect 12 0 16 0;
#X connect 13 0 0 0;
#X connect 13 1 0 1;
#X connect 14 0 18 0;
#X connect 15 0 14 0;
#X connect 16 0 17 0;
#X connect 17 0 14 0;
#X connect 17 1 14 1;
#X connect 19 0 23 0;
#X connect 20 0 19 0;
#X connect 21 0 22 0;
#X connect 22 0 19 0;
#X connect 22 1 19 1;
#X connect 31 0 32 0;
#X connect 32 0 39 0;
#X connect 34 0 35 0;
#X connect 35 0 36 0;
#X connect 36 0 37 0;
#X connect 37 0 38 0;
#X connect 37 0 38 1;
#X connect 40 0 41 0;
#X connect 41 0 4 0;
#X connect 45 0 56 0;
#X connect 46 0 43 0;
#X connect 47 0 44 0;
#X connect 48 0 42 0;
#X connect 55 0 56 0;
#X coords 0 -1 1 1 300 180 2 100 100;
