#N canvas 379 157 808 664 12;
#X obj 93 305 osc~;
#X obj 93 465 *~;
#X obj 264 257 r attack;
#X obj 483 260 r decay;
#X obj 111 51 r freq;
#X obj 93 184 expr random($f1 \, $f2);
#X obj 111 84 unpack f f;
#X obj 264 289 expr random($f1 \, $f2);
#X obj 483 288 expr random($f1 \, $f2);
#X msg 246 419 0 \, 1 \$1 \, 0 \$2 \$1;
#X obj 246 364 pack f f;
#X obj 246 483 vline~;
#X obj 93 497 outlet~;
#X obj 246 507 pow~ 2;
#X obj 246 324 f;
#X obj 465 320 f;
#X obj 282 74 t b b b;
#X obj 282 33 r bang;
#X obj 93 147 f;
#X obj 160 147 f;
#X obj 218 116 t b b;
#X text 305 507 exponential envelope;
#X text 325 362 Two Random Values (Attack and Decay) are packed into a list;
#X text 326 378 and sent to the [vline~] object \, generating the envelope.;
#X text 376 421 from 0 to 1 in attack time \, from 1 to 0 in decay time at end of attack time;
#X text 335 32 Bang to set Random Values;
#X obj 494 79 cnv 19 290 76 empty empty empty 20 12 0 12 #feffc6 #404040 0;
#X text 499 103 Recieves low and high bounds for random;
#X text 499 119 values for Frequency \, Attack and Decay;
#X text 498 86 Oscillator Voice.;
#X text 335 45 and trigger Envelope;
#X connect 0 0 1 0;
#X connect 1 0 12 0;
#X connect 2 0 7 0;
#X connect 3 0 8 0;
#X connect 4 0 6 0;
#X connect 5 0 0 0;
#X connect 6 0 18 1;
#X connect 6 1 19 1;
#X connect 7 0 14 1;
#X connect 8 0 15 1;
#X connect 9 0 11 0;
#X connect 10 0 9 0;
#X connect 11 0 13 0;
#X connect 13 0 1 1;
#X connect 14 0 10 0;
#X connect 15 0 10 1;
#X connect 16 0 14 0;
#X connect 16 1 20 0;
#X connect 16 2 15 0;
#X connect 17 0 16 0;
#X connect 18 0 5 0;
#X connect 19 0 5 1;
#X connect 20 0 18 0;
#X connect 20 1 19 0;
