#N canvas 379 157 611 452 12;
#X obj 135 197 osc~;
#X obj 136 267 *~;
#X obj 235 157 r attack;
#X obj 407 150 r decay;
#X obj 136 43 r freq;
#X obj 136 106 expr random($f1 \, $f2);
#X obj 133 69 unpack f f;
#X obj 232 189 expr random($f1 \, $f2);
#X obj 403 188 expr random($f1 \, $f2);
#X msg 229 279 0 \, 1 \$1 \, 0 \$2 \$1;
#X obj 229 224 pack f f;
#X obj 229 303 vline~;
#X obj 136 335 outlet~;
#X connect 0 0 1 0;
#X connect 1 0 12 0;
#X connect 2 0 7 0;
#X connect 3 0 8 0;
#X connect 4 0 6 0;
#X connect 5 0 0 0;
#X connect 6 0 5 0;
#X connect 6 1 5 1;
#X connect 7 0 10 0;
#X connect 8 0 10 1;
#X connect 9 0 11 0;
#X connect 10 0 9 0;
#X connect 11 0 1 1;
