#N canvas 295 333 721 437 12;
#X obj 435 89 send~ send1;
#X obj 103 99 throw~ send1;
#X obj 98 298 catch~ send1;
#X obj 101 63 osc~;
#X floatatom 99 33 5 0 0 0 - - - 0;
#X obj 88 375 dac~;
#X obj 98 330 *~;
#X obj 256 228 vsl 19 162 0 1 0 0 empty empty empty 0 -9 0 12 #fcfcfc #000000 #000000 0 1;
#X obj 393 376 dac~;
#X obj 403 331 *~;
#X obj 561 229 vsl 19 162 0 1 0 0 empty empty empty 0 -9 0 12 #fcfcfc #000000 #000000 0 1;
#X obj 403 299 r~ send1;
#X obj 435 58 noise~;
#X connect 2 0 6 0;
#X connect 3 0 1 0;
#X connect 4 0 3 0;
#X connect 6 0 5 0;
#X connect 6 0 5 1;
#X connect 7 0 6 1;
#X connect 9 0 8 0;
#X connect 9 0 8 1;
#X connect 10 0 9 1;
#X connect 11 0 9 0;
#X connect 12 0 0 0;
