#N canvas 0 38 1512 847 12;
#X obj 206 292 mtof;
#X floatatom 206 269 5 0 0 0 - \$0-pit - 0;
#X obj 181 342 lop~;
#X obj 85 65 noise~;
#X floatatom 206 317 5 0 0 0 - - - 0;
#X text 220 344 low-pass filter;
#X text 258 268 <= cutoff (pitch units);
#X text 261 315 <= cutoff (Hertz);
#X text 160 206 ONE-POLE LOW-PASS FILTER;
#X obj 533 287 mtof;
#X floatatom 533 264 5 0 0 0 - \$0-pit - 0;
#X floatatom 533 312 5 0 0 0 - - - 0;
#X text 585 263 <= cutoff (pitch units);
#X text 588 310 <= cutoff (Hertz);
#X obj 508 337 hip~;
#X text 547 339 high-pass filter;
#X text 421 209 ONE-POLE HIGH-PASS FILTER;
#N canvas 702 174 450 300 switch 0;
#X obj 70 76 inlet~;
#X obj 263 78 inlet;
#X obj 71 243 outlet~;
#X obj 134 77 inlet~;
#X obj 73 179 vline~;
#X msg 73 142 1 10;
#X msg 191 144 1 10;
#X msg 119 143 0 10;
#X obj 168 177 vline~;
#X msg 236 146 0 10;
#X obj 73 203 *~;
#X obj 170 207 *~;
#X obj 167 101 sel 0;
#X connect 0 0 10 1;
#X connect 1 0 12 0;
#X connect 3 0 11 1;
#X connect 4 0 10 0;
#X connect 5 0 4 0;
#X connect 6 0 8 0;
#X connect 7 0 4 0;
#X connect 8 0 11 0;
#X connect 9 0 8 0;
#X connect 10 0 2 0;
#X connect 11 0 2 0;
#X connect 12 0 5 0;
#X connect 12 0 9 0;
#X connect 12 1 6 0;
#X connect 12 1 7 0;
#X restore 86 124 pd switch;
#X obj 147 97 hradio 19 1 0 2 empty empty empty 0 -10 0 12 #fcfcfc #000000 #000000 0;
#X obj 140 66 phasor~ 100;
#N canvas 577 147 380 383 spectrolog 0;
#N canvas 556 61 872 789 FFT_Analyse 0;
#X obj 101 102 inlet~;
#X obj 101 332 *~;
#X obj 132 331 *~;
#X obj 101 356 +~;
#X obj 102 377 powtodb~;
#N canvas 0 22 346 535 init_input_window 0;
#X obj 73 217 / 10;
#X obj 55 278 line 0 0.1;
#X msg 119 246 0;
#X obj 54 176 t f f b;
#X obj 54 239 pack;
#X obj 55 301 t f f;
#X obj 54 152 - 1;
#X obj 74 114 t f f;
#X obj 55 359 * 3.14159;
#X obj 55 381 sin;
#X msg 55 401 \$1 \$1;
#X obj 55 423 *;
#X text 119 334 0...0.99;
#X text 128 359 0...pi;
#X text 79 423 hanning;
#X msg 55 88 4096;
#X obj 100 88 f 4096;
#X obj 99 60 bng 15 250 50 0 empty empty empty 0 -6 0 8 #fcfcfc #000000 #000000;
#X obj 99 39 loadbang;
#X obj 74 333 / 4096;
#X obj 55 448 tabwrite \$0-window;
#X text 86 381 half-sine;
#X connect 0 0 4 1;
#X connect 1 0 5 0;
#X connect 2 0 1 0;
#X connect 3 0 4 0;
#X connect 3 1 0 0;
#X connect 3 2 2 0;
#X connect 4 0 1 0;
#X connect 5 0 19 0;
#X connect 5 1 20 1;
#X connect 6 0 3 0;
#X connect 7 0 6 0;
#X connect 7 1 19 1;
#X connect 8 0 9 0;
#X connect 9 0 10 0;
#X connect 10 0 11 0;
#X connect 11 0 20 0;
#X connect 15 0 7 0;
#X connect 16 0 7 0;
#X connect 17 0 16 0;
#X connect 18 0 17 0;
#X connect 19 0 8 0;
#X restore 161 276 pd init_input_window;
#N canvas 0 22 450 300 (subpatch) 0;
#X array \$0-lin_scope 2048 float 0;
#X coords 0 100 2047 0 200 140 1;
#X restore 110 621 graph;
#N canvas 0 22 822 328 init_norm 0;
#X obj 43 230 outlet;
#X obj 43 187 - 100;
#X floatatom 43 208 9 0 0 0 - - - 0;
#X text 108 169 leistung - techn. dB;
#X msg 43 69 4096;
#X obj 80 68 f 4096;
#X obj 80 47 bng 15 250 50 0 empty empty empty 0 -6 0 8 #fcfcfc #000000 #000000;
#X obj 80 26 loadbang;
#X obj 43 167 rmstodb;
#X obj 43 110 / 4;
#X text 74 103 faktor 2 wegen hanning;
#X text 74 114 weiterer faktor 2 \, weil wir nur die;
#X text 73 124 erste haelfte des konjungiert komplexen spektrum sehen;
#X text 108 135 bzw. bearbeiten \, somit nur die haelfte der spektralen energie;
#X connect 1 0 2 0;
#X connect 2 0 0 0;
#X connect 4 0 9 0;
#X connect 5 0 9 0;
#X connect 6 0 5 0;
#X connect 7 0 6 0;
#X connect 8 0 1 0;
#X connect 9 0 8 0;
#X restore 153 421 pd init_norm;
#X obj 100 231 *~;
#X obj 102 443 -~ 60.206;
#X obj 113 517 *~ 0.98;
#X obj 100 539 +~;
#X obj 101 471 *~ 0.02;
#X msg 314 481 1 \$1;
#X obj 314 502 -;
#X obj 314 458 clip 0 1;
#X obj 314 437 / 100;
#X floatatom 314 413 5 0.5 100 0 - - - 0;
#X obj 333 366 loadbang;
#X obj 100 277 fft~;
#X obj 463 557 line 0 0.1;
#X obj 463 602 / 2;
#X obj 463 622 mtof;
#X msg 463 536 6 \, 273 26.7;
#X obj 463 580 t f f;
#X obj 494 602 - 6;
#X obj 463 642 / 44100;
#X obj 463 663 * 4096;
#X msg 656 633 6;
#X obj 656 653 / 2;
#X obj 656 673 mtof;
#X floatatom 656 693 9 0 0 0 - - - 0;
#X text 723 694 Hz;
#X obj 754 654 / 2;
#X obj 754 673 mtof;
#X floatatom 754 693 9 0 0 0 - - - 0;
#X text 822 693 Hz;
#X msg 754 634 273;
#X obj 656 612 t b b;
#X obj 463 498 tgl 15 0 empty empty empty 0 -6 0 8 #fcfcfc #000000 #000000 0 1;
#X obj 463 458 loadbang;
#X msg 463 478 1;
#X obj 656 592 loadbang;
#X obj 468 245 loadbang;
#X obj 703 102 inlet;
#X obj 130 253 table \$0-window 4096;
#X obj 137 214 tabreceive~ \$0-window;
#X text 353 403 temporal lowpass;
#X text 355 415 parameter between 0 .. 100 %;
#X text 23 23 spectrum~;
#X text 120 23 draws the power of a spectrum in a logarithmic scale;
#X text 118 36 (by Thomas Musil);
#X obj 113 496 tabreceive~ \$0-lin_scope;
#X obj 100 564 tabsend~ \$0-lin_scope;
#X obj 463 685 tabread4 \$0-lin_scope;
#X obj 468 267 f \$0;
#X text 553 536 transformation to log scale;
#X msg 333 385 100;
#X obj 314 341 max 0.5;
#X obj 314 319 min 100;
#X obj 440 107 inlet;
#X text 96 81 audio sig;
#X text 700 81 ON/OFF;
#X text 427 86 (0 .. 100);
#X text 408 72 temporal lowpass;
#X obj 533 244 bng 15 250 50 0 empty empty empty 0 -6 0 8 #fcfcfc #000000 #000000;
#X obj 463 735 tabwrite \$0-s;
#X msg 468 296 \; \$1-s xticks 0 12 2;
#X msg 491 330 \; \$1-s yticks 0 5 2;
#X obj 462 516 metro 100;
#X obj 704 166 switch~ 4096 2;
#X obj 463 711 clip 0 100;
#X obj 773 101 loadbang;
#X msg 773 123 1;
#X connect 0 0 8 0;
#X connect 1 0 3 0;
#X connect 2 0 3 1;
#X connect 3 0 4 0;
#X connect 4 0 9 0;
#X connect 7 0 9 1;
#X connect 8 0 19 0;
#X connect 9 0 12 0;
#X connect 10 0 11 1;
#X connect 11 0 53 0;
#X connect 12 0 11 0;
#X connect 13 0 14 0;
#X connect 14 0 10 1;
#X connect 15 0 13 0;
#X connect 15 0 12 1;
#X connect 16 0 15 0;
#X connect 17 0 16 0;
#X connect 18 0 57 0;
#X connect 19 0 1 0;
#X connect 19 0 1 1;
#X connect 19 1 2 0;
#X connect 19 1 2 1;
#X connect 20 0 24 0;
#X connect 21 0 22 0;
#X connect 22 0 26 0;
#X connect 23 0 20 0;
#X connect 24 0 21 0;
#X connect 24 1 25 0;
#X connect 25 0 66 1;
#X connect 26 0 27 0;
#X connect 27 0 54 0;
#X connect 28 0 29 0;
#X connect 29 0 30 0;
#X connect 30 0 31 0;
#X connect 33 0 34 0;
#X connect 34 0 35 0;
#X connect 37 0 33 0;
#X connect 38 0 28 0;
#X connect 38 1 37 0;
#X connect 39 0 69 0;
#X connect 40 0 41 0;
#X connect 41 0 39 0;
#X connect 42 0 38 0;
#X connect 43 0 55 0;
#X connect 44 0 70 0;
#X connect 46 0 8 1;
#X connect 52 0 10 0;
#X connect 54 0 71 0;
#X connect 55 0 67 0;
#X connect 55 0 68 0;
#X connect 57 0 17 0;
#X connect 58 0 17 0;
#X connect 59 0 58 0;
#X connect 60 0 59 0;
#X connect 65 0 55 0;
#X connect 69 0 23 0;
#X connect 71 0 66 0;
#X connect 72 0 73 0;
#X connect 73 0 70 0;
#X restore 17 330 pd FFT_Analyse;
#X obj 63 309 inlet;
#X obj 17 309 inlet~;
#X obj 110 309 inlet;
#N canvas 0 22 450 300 (subpatch) 0;
#X array \$0-s 268 float 0;
#X coords 0 100 267 0 267 140 1;
#X restore 23 37 graph;
#X obj 297 52 cnv 15 1 1 empty empty -10 0 0 0 10 #fcfcfc #000000 0;
#X obj 297 164 cnv 15 1 1 empty empty -90 0 0 0 10 #fcfcfc #000000 0;
#X obj 297 108 cnv 15 1 1 empty empty -50 0 0 0 10 #fcfcfc #000000 0;
#X obj 297 80 cnv 15 1 1 empty empty -30 0 0 0 10 #fcfcfc #000000 0;
#X obj 297 136 cnv 15 1 1 empty empty -70 0 0 0 10 #fcfcfc #000000 0;
#X obj 18 181 cnv 15 1 1 empty empty 10 0 5 0 10 #fcfcfc #000000 0;
#X obj 66 181 cnv 15 1 1 empty empty 40 0 5 0 10 #fcfcfc #000000 0;
#X obj 115 181 cnv 15 1 1 empty empty 160 0 5 0 10 #fcfcfc #000000 0;
#X obj 162 181 cnv 15 1 1 empty empty 640 0 5 0 10 #fcfcfc #000000 0;
#X obj 210 181 cnv 15 1 1 empty empty 2k56 0 5 0 10 #fcfcfc #000000 0;
#X obj 258 181 cnv 15 1 1 empty empty 10k2 0 5 0 10 #fcfcfc #000000 0;
#X obj 138 194 cnv 15 1 1 empty empty 320 0 5 0 10 #fcfcfc #000000 0;
#X obj 282 194 cnv 15 1 1 empty empty 20k5 0 5 0 10 #fcfcfc #000000 0;
#X obj 42 191 cnv 15 1 1 empty empty 20 0 9 0 10 #fcfcfc #000000 0;
#X obj 90 194 cnv 15 1 1 empty empty 80 0 5 0 10 #fcfcfc #000000 0;
#X obj 186 194 cnv 15 1 1 empty empty 1k28 0 5 0 10 #fcfcfc #000000 0;
#X obj 234 194 cnv 15 1 1 empty empty 5k12 0 5 0 10 #fcfcfc #000000 0;
#X obj 46 178 cnv 15 1 1 empty empty | 0 7 0 10 #fcfcfc #000000 0;
#X obj 94 178 cnv 15 1 1 empty empty | 0 7 0 10 #fcfcfc #000000 0;
#X obj 142 178 cnv 15 1 1 empty empty | 0 7 0 10 #fcfcfc #000000 0;
#X obj 190 178 cnv 15 1 1 empty empty | 0 7 0 10 #fcfcfc #000000 0;
#X obj 238 178 cnv 15 1 1 empty empty | 0 7 0 10 #fcfcfc #000000 0;
#X obj 286 178 cnv 15 1 1 empty empty | 0 7 0 10 #fcfcfc #000000 0;
#X connect 1 0 0 1;
#X connect 2 0 0 0;
#X connect 3 0 0 2;
#X coords 0 -1 1 1 330 210 1 0 0;
#X restore 397 613 pd spectrolog;
#X obj 822 253 mtof;
#X floatatom 822 230 5 0 0 0 - \$0-pit - 0;
#X floatatom 822 278 9 0 0 0 - - - 0;
#X text 896 229 <= cutoff (pitch units);
#X text 894 274 <= cutoff (Hertz);
#X obj 778 345 bp~, f 6;
#X floatatom 827 310 5 0 0 0 - - - 0;
#X text 829 343 band-pass filter;
#X text 891 304 <= Filter Q ("Quality");
#X text 912 318 careful arund 0!;
#X obj 87 149 send~ signal;
#X obj 181 238 r~ signal;
#X obj 507 234 r~ signal;
#X obj 794 204 r~ signal;
#X obj 490 61 hradio 19 1 0 4 empty empty empty 0 -10 0 12 #fcfcfc #000000 #000000 0;
#X obj 490 87 s filt;
#X obj 398 551 catch~ filter;
#X obj 223 667 output~;
#X obj 796 391 *~ 0.5;
#X floatatom 837 367 5 0 0 0 - - - 0;
#X text 883 370 gain;
#N canvas 762 126 702 497 control 0;
#X obj 260 38 r filt;
#X obj 94 181 sel 0;
#X obj 76 302 *~;
#X msg 94 217 1 50;
#X obj 94 241 line~;
#X msg 137 217 0 50;
#X msg 242 216 1 50;
#X obj 242 240 line~;
#X msg 285 216 0 50;
#X obj 242 180 sel 1;
#X obj 245 297 *~;
#X obj 246 425 throw~ filter;
#X msg 362 214 1 50;
#X obj 362 238 line~;
#X msg 405 214 0 50;
#X obj 354 297 *~;
#X obj 363 178 sel 2;
#X obj 72 269 catch~ lp;
#X obj 188 271 catch~ hp;
#X obj 320 267 catch~ bp;
#X msg 564 219 1 50;
#X obj 564 243 line~;
#X msg 607 219 0 50;
#X obj 548 299 *~;
#X obj 565 183 sel 3;
#X obj 488 267 catch~ vcf;
#X connect 0 0 1 0;
#X connect 0 0 9 0;
#X connect 0 0 16 0;
#X connect 0 0 24 0;
#X connect 1 0 3 0;
#X connect 1 1 5 0;
#X connect 2 0 11 0;
#X connect 3 0 4 0;
#X connect 4 0 2 1;
#X connect 5 0 4 0;
#X connect 6 0 7 0;
#X connect 7 0 10 1;
#X connect 8 0 7 0;
#X connect 9 0 6 0;
#X connect 9 1 8 0;
#X connect 10 0 11 0;
#X connect 12 0 13 0;
#X connect 13 0 15 1;
#X connect 14 0 13 0;
#X connect 15 0 11 0;
#X connect 16 0 12 0;
#X connect 16 1 14 0;
#X connect 17 0 2 0;
#X connect 18 0 10 0;
#X connect 19 0 15 0;
#X connect 20 0 21 0;
#X connect 21 0 23 1;
#X connect 22 0 21 0;
#X connect 23 0 11 0;
#X connect 24 0 20 0;
#X connect 24 1 22 0;
#X connect 25 0 23 0;
#X restore 821 70 pd control;
#X obj 506 378 throw~ hp;
#X obj 799 505 throw~ bp;
#X obj 180 374 throw~ lp;
#X text 79 25 01_basic_filters;
#X obj 1148 248 mtof;
#X floatatom 1148 225 5 0 0 0 - \$0-pit - 0;
#X floatatom 1148 273 8 0 0 0 - - - 0;
#X text 1200 224 <= cutoff (pitch units);
#X text 1203 271 <= cutoff (Hertz);
#X floatatom 1158 314 5 0 0 0 - - - 0;
#X obj 1133 350 vcf~;
#X text 1172 352 has two outputs: bp and lp;
#X obj 1123 203 r~ signal;
#X obj 1131 456 *~ 0.5;
#X floatatom 1172 432 5 0 0 0 - - - 0;
#X text 1218 435 gain;
#X text 1200 315 <= Filter Q ("Quality");
#X text 1221 329 careful arund 0!;
#N canvas 702 174 450 300 switch 0;
#X obj 70 76 inlet~;
#X obj 263 78 inlet;
#X obj 71 243 outlet~;
#X obj 134 77 inlet~;
#X obj 73 179 vline~;
#X msg 73 142 1 10;
#X msg 191 144 1 10;
#X msg 119 143 0 10;
#X obj 168 177 vline~;
#X msg 236 146 0 10;
#X obj 73 203 *~;
#X obj 170 207 *~;
#X obj 167 101 sel 0;
#X connect 0 0 10 1;
#X connect 1 0 12 0;
#X connect 3 0 11 1;
#X connect 4 0 10 0;
#X connect 5 0 4 0;
#X connect 6 0 8 0;
#X connect 7 0 4 0;
#X connect 8 0 11 0;
#X connect 9 0 8 0;
#X connect 10 0 2 0;
#X connect 11 0 2 0;
#X connect 12 0 5 0;
#X connect 12 0 9 0;
#X connect 12 1 6 0;
#X connect 12 1 7 0;
#X restore 1130 408 pd switch;
#X obj 1191 381 hradio 19 1 0 2 empty empty empty 0 -10 0 12 #fcfcfc #000000 #000000 0;
#X text 1117 168 VOLTAGE_CONTROLLED BP/resonant LP FILTER;
#X text 1368 352 lp only to 7000hz;
#X obj 1131 490 throw~ vcf;
#X text 790 168 BANDPASS FILTER;
#X obj 836 704 - 100;
#X obj 980 628 vu 19 200 empty empty -1 -10 0 12 #404040 #000000 1 0;
#X text 732 107 ACHTUNG! BEI FILTERN GENERELL VORSICHT MIT EXTREMWERTEN!!!!!! BESONDERS FREQUENZ;
#X obj 837 673 env~ 1024;
#X text 10 414 One-Pole heißt \, dass eine Frequency- Response an einer Stelle besteht.;
#X connect 0 0 4 0;
#X connect 1 0 0 0;
#X connect 2 0 45 0;
#X connect 3 0 17 0;
#X connect 4 0 2 1;
#X connect 9 0 11 0;
#X connect 10 0 9 0;
#X connect 11 0 14 1;
#X connect 14 0 43 0;
#X connect 17 0 31 0;
#X connect 18 0 17 2;
#X connect 19 0 17 1;
#X connect 21 0 23 0;
#X connect 22 0 21 0;
#X connect 23 0 26 1;
#X connect 26 0 39 0;
#X connect 27 0 26 2;
#X connect 32 0 2 0;
#X connect 33 0 14 0;
#X connect 34 0 26 0;
#X connect 35 0 36 0;
#X connect 37 0 20 0;
#X connect 37 0 38 0;
#X connect 37 0 38 1;
#X connect 37 0 70 0;
#X connect 39 0 44 0;
#X connect 40 0 39 1;
#X connect 47 0 49 0;
#X connect 48 0 47 0;
#X connect 49 0 53 1;
#X connect 52 0 53 2;
#X connect 53 0 61 0;
#X connect 53 1 61 1;
#X connect 55 0 53 0;
#X connect 56 0 65 0;
#X connect 57 0 56 1;
#X connect 61 0 56 0;
#X connect 62 0 61 2;
#X connect 67 0 68 0;
#X connect 70 0 67 0;
