#N canvas 136 38 1376 849 12;
#X obj 424 439 vcf~, f 20;
#X floatatom 583 403 5 0 0 0 - - - 0;
#X obj 545 307 500;
#X obj 584 316 1000;
#X obj 503 254 0.1;
#X floatatom 503 227 5 0 0 0 - - - 0;
#X floatatom 545 251 5 0 0 0 - - - 0;
#X floatatom 584 275 5 0 0 0 - - - 0;
#X text 629 404 Q;
#N canvas 237 196 748 466 switch 0;
#X obj 95 294 inlet~;
#X obj 630 38 inlet;
#X obj 79 375 outlet~;
#X obj 220 302 inlet~;
#X obj 81 221 vline~;
#X msg 81 184 1 10;
#X msg 199 186 1 10;
#X msg 127 185 0 10;
#X obj 199 217 vline~;
#X msg 244 188 0 10;
#X obj 81 335 *~;
#X obj 201 337 *~;
#X obj 84 97 sel 0;
#X msg 334 193 1 10;
#X obj 311 226 vline~;
#X msg 379 195 0 10;
#X obj 313 346 *~;
#X obj 331 103 sel 2;
#X obj 332 297 inlet~;
#X obj 180 98 sel 1;
#X msg 444 202 1 10;
#X obj 421 235 vline~;
#X msg 489 204 0 10;
#X obj 423 355 *~;
#X obj 442 306 inlet~;
#X obj 441 112 sel 3;
#X connect 0 0 10 1;
#X connect 1 0 12 0;
#X connect 1 0 17 0;
#X connect 1 0 19 0;
#X connect 1 0 25 0;
#X connect 3 0 11 1;
#X connect 4 0 10 0;
#X connect 5 0 4 0;
#X connect 6 0 8 0;
#X connect 7 0 4 0;
#X connect 8 0 11 0;
#X connect 9 0 8 0;
#X connect 10 0 2 0;
#X connect 11 0 2 0;
#X connect 12 0 5 0;
#X connect 12 1 7 0;
#X connect 13 0 14 0;
#X connect 14 0 16 0;
#X connect 15 0 14 0;
#X connect 16 0 2 0;
#X connect 17 0 13 0;
#X connect 17 1 15 0;
#X connect 18 0 16 1;
#X connect 19 0 6 0;
#X connect 19 1 9 0;
#X connect 20 0 21 0;
#X connect 21 0 23 0;
#X connect 22 0 21 0;
#X connect 23 0 2 0;
#X connect 24 0 23 1;
#X connect 25 0 20 0;
#X connect 25 1 22 0;
#X restore 67 375 pd switch;
#X obj 147 325 hradio 19 1 0 4 empty empty empty 0 -10 0 12 #fcfcfc #000000 #000000 0;
#X obj 99 213 adc~;
#X obj 68 68 noise~;
#X obj 81 513 bng 15 250 50 0 empty empty load 18 8 0 12 #fcfcfc #000000 #000000;
#X obj 81 536 openpanel;
#X obj 81 590 soundfiler;
#X obj 119 256 bng 19 250 50 0 empty empty empty 0 -10 0 12 #fcfcfc #000000 #000000;
#X obj 242 322 spigot;
#X obj 275 296 tgl 19 0 empty empty empty 0 -10 0 12 #fcfcfc #000000 #000000 0 1;
#X obj 68 92 *~ 0.5;
#X text 147 351 inputs:;
#X obj 67 422 s~ signal;
#X text 150 371 1 noise;
#X text 151 388 2 phasor (ping);
#X text 150 406 3 mic;
#X text 148 424 4 soundfile;
#X obj 81 621 table sample-13;
#X msg 81 562 read -resize \$1 sample-13;
#X obj 421 404 r~ signal;
#X text 498 202 freq;
#X text 549 223 low;
#X text 585 251 high;
#X text 309 296 loop;
#X text 67 20 SWEEPING VCF;
#X text 226 12 [vcf~] is a resonant band-pass and low-pass filter that takes either a control or an audio signal to set center frequency \, which may thus change continuously in time as in an analog voltage controlled filter (and unlike [bp~] and [lop~] that only take control values). The "Q" or filter sharpness is still only set by control messages. It is more expensive but more powerful than the [bp~] band-pass filter., f 78;
#X text 225 105 [vcf~] is implemented as a one-pole complex filter with outlets for the real and imaginary value. These may be used as band-pass and low-pass filter outputs \, or combined to allow other possibilities., f 78;
#X text 144 257 play;
#X obj 120 291 tabplay~ sample-13;
#N canvas 427 195 516 481 sweep 0;
#X obj 46 168 osc~;
#X floatatom 46 104 5 0 0 0 - - - 0;
#X floatatom 313 180 5 0 0 0 - - - 0;
#X floatatom 363 178 5 0 0 0 - - - 0;
#X obj 313 245 expr $f2 - $f1;
#X floatatom 313 279 5 0 0 0 - - - 0;
#X obj 363 201 t b f;
#X obj 243 336 expr~ $v1 * $v2 + $v3;
#X obj 46 255 expr~ $v1 * 0.5 + 0.5;
#X obj 46 59 inlet;
#X obj 311 103 inlet;
#X obj 365 106 inlet;
#X obj 249 389 outlet~;
#X text 33 26 freq;
#X text 220 75 sweep untergrenze;
#X text 367 76 sweep obergrenze;
#X connect 0 0 8 0;
#X connect 1 0 0 0;
#X connect 2 0 4 0;
#X connect 2 0 7 2;
#X connect 3 0 6 0;
#X connect 4 0 5 0;
#X connect 5 0 7 1;
#X connect 6 0 4 0;
#X connect 6 1 4 1;
#X connect 7 0 12 0;
#X connect 8 0 7 0;
#X connect 9 0 1 0;
#X connect 10 0 2 0;
#X connect 11 0 3 0;
#X restore 498 345 pd sweep;
#X obj 424 686 dac~ 1 2;
#X obj 427 646 *~;
#X obj 425 512 *~ 1;
#X obj 538 544 vsl 19 100 0 1 0 0 empty empty empty 0 -9 0 12 #fcfcfc #000000 #000000 0 1;
#X msg 538 650 \$1 10;
#X obj 538 669 line~;
#X floatatom 449 477 5 0 0 0 - - - 0;
#X text 492 476 Gain;
#N canvas 577 147 380 383 spectrolog 0;
#N canvas 556 61 872 789 FFT_Analyse 0;
#X obj 101 102 inlet~;
#X obj 101 332 *~;
#X obj 132 331 *~;
#X obj 101 356 +~;
#X obj 102 377 powtodb~;
#N canvas 0 22 346 535 init_input_window 0;
#X obj 73 217 / 10;
#X obj 55 278 line 0 0.1;
#X msg 119 246 0;
#X obj 54 176 t f f b;
#X obj 54 239 pack;
#X obj 55 301 t f f;
#X obj 54 152 - 1;
#X obj 74 114 t f f;
#X obj 55 359 * 3.14159;
#X obj 55 381 sin;
#X msg 55 401 \$1 \$1;
#X obj 55 423 *;
#X text 119 334 0...0.99;
#X text 128 359 0...pi;
#X text 79 423 hanning;
#X msg 55 88 4096;
#X obj 100 88 f 4096;
#X obj 99 60 bng 15 250 50 0 empty empty empty 0 -6 0 8 #fcfcfc #000000 #000000;
#X obj 99 39 loadbang;
#X obj 74 333 / 4096;
#X obj 55 448 tabwrite \$0-window;
#X text 86 381 half-sine;
#X connect 0 0 4 1;
#X connect 1 0 5 0;
#X connect 2 0 1 0;
#X connect 3 0 4 0;
#X connect 3 1 0 0;
#X connect 3 2 2 0;
#X connect 4 0 1 0;
#X connect 5 0 19 0;
#X connect 5 1 20 1;
#X connect 6 0 3 0;
#X connect 7 0 6 0;
#X connect 7 1 19 1;
#X connect 8 0 9 0;
#X connect 9 0 10 0;
#X connect 10 0 11 0;
#X connect 11 0 20 0;
#X connect 15 0 7 0;
#X connect 16 0 7 0;
#X connect 17 0 16 0;
#X connect 18 0 17 0;
#X connect 19 0 8 0;
#X restore 161 276 pd init_input_window;
#N canvas 0 22 450 300 (subpatch) 0;
#X array \$0-lin_scope 2048 float 0;
#X coords 0 100 2047 0 200 140 1;
#X restore 110 621 graph;
#N canvas 0 22 822 328 init_norm 0;
#X obj 43 230 outlet;
#X obj 43 187 - 100;
#X floatatom 43 208 9 0 0 0 - - - 0;
#X text 108 169 leistung - techn. dB;
#X msg 43 69 4096;
#X obj 80 68 f 4096;
#X obj 80 47 bng 15 250 50 0 empty empty empty 0 -6 0 8 #fcfcfc #000000 #000000;
#X obj 80 26 loadbang;
#X obj 43 167 rmstodb;
#X obj 43 110 / 4;
#X text 74 103 faktor 2 wegen hanning;
#X text 74 114 weiterer faktor 2 \, weil wir nur die;
#X text 73 124 erste haelfte des konjungiert komplexen spektrum sehen;
#X text 108 135 bzw. bearbeiten \, somit nur die haelfte der spektralen energie;
#X connect 1 0 2 0;
#X connect 2 0 0 0;
#X connect 4 0 9 0;
#X connect 5 0 9 0;
#X connect 6 0 5 0;
#X connect 7 0 6 0;
#X connect 8 0 1 0;
#X connect 9 0 8 0;
#X restore 153 421 pd init_norm;
#X obj 100 231 *~;
#X obj 102 443 -~ 60.206;
#X obj 113 517 *~ 0.98;
#X obj 100 539 +~;
#X obj 101 471 *~ 0.02;
#X msg 314 481 1 \$1;
#X obj 314 502 -;
#X obj 314 458 clip 0 1;
#X obj 314 437 / 100;
#X floatatom 314 413 5 0.5 100 0 - - - 0;
#X obj 333 366 loadbang;
#X obj 100 277 fft~;
#X obj 463 557 line 0 0.1;
#X obj 463 602 / 2;
#X obj 463 622 mtof;
#X msg 463 536 6 \, 273 26.7;
#X obj 463 580 t f f;
#X obj 494 602 - 6;
#X obj 463 642 / 44100;
#X obj 463 663 * 4096;
#X msg 656 633 6;
#X obj 656 653 / 2;
#X obj 656 673 mtof;
#X floatatom 656 693 9 0 0 0 - - - 0;
#X text 723 694 Hz;
#X obj 754 654 / 2;
#X obj 754 673 mtof;
#X floatatom 754 693 9 0 0 0 - - - 0;
#X text 822 693 Hz;
#X msg 754 634 273;
#X obj 656 612 t b b;
#X obj 463 498 tgl 15 0 empty empty empty 0 -6 0 8 #fcfcfc #000000 #000000 0 1;
#X obj 463 458 loadbang;
#X msg 463 478 1;
#X obj 656 592 loadbang;
#X obj 468 245 loadbang;
#X obj 703 102 inlet;
#X obj 130 253 table \$0-window 4096;
#X obj 137 214 tabreceive~ \$0-window;
#X text 353 403 temporal lowpass;
#X text 355 415 parameter between 0 .. 100 %;
#X text 23 23 spectrum~;
#X text 120 23 draws the power of a spectrum in a logarithmic scale;
#X text 118 36 (by Thomas Musil);
#X obj 113 496 tabreceive~ \$0-lin_scope;
#X obj 100 564 tabsend~ \$0-lin_scope;
#X obj 463 685 tabread4 \$0-lin_scope;
#X obj 468 267 f \$0;
#X text 553 536 transformation to log scale;
#X msg 333 385 100;
#X obj 314 341 max 0.5;
#X obj 314 319 min 100;
#X obj 440 107 inlet;
#X text 96 81 audio sig;
#X text 700 81 ON/OFF;
#X text 427 86 (0 .. 100);
#X text 408 72 temporal lowpass;
#X obj 533 244 bng 15 250 50 0 empty empty empty 0 -6 0 8 #fcfcfc #000000 #000000;
#X obj 463 735 tabwrite \$0-s;
#X msg 468 296 \; \$1-s xticks 0 12 2;
#X msg 491 330 \; \$1-s yticks 0 5 2;
#X obj 462 516 metro 100;
#X obj 704 166 switch~ 4096 2;
#X obj 463 711 clip 0 100;
#X obj 773 101 loadbang;
#X msg 773 123 1;
#X connect 0 0 8 0;
#X connect 1 0 3 0;
#X connect 2 0 3 1;
#X connect 3 0 4 0;
#X connect 4 0 9 0;
#X connect 7 0 9 1;
#X connect 8 0 19 0;
#X connect 9 0 12 0;
#X connect 10 0 11 1;
#X connect 11 0 53 0;
#X connect 12 0 11 0;
#X connect 13 0 14 0;
#X connect 14 0 10 1;
#X connect 15 0 13 0;
#X connect 15 0 12 1;
#X connect 16 0 15 0;
#X connect 17 0 16 0;
#X connect 18 0 57 0;
#X connect 19 0 1 0;
#X connect 19 0 1 1;
#X connect 19 1 2 0;
#X connect 19 1 2 1;
#X connect 20 0 24 0;
#X connect 21 0 22 0;
#X connect 22 0 26 0;
#X connect 23 0 20 0;
#X connect 24 0 21 0;
#X connect 24 1 25 0;
#X connect 25 0 66 1;
#X connect 26 0 27 0;
#X connect 27 0 54 0;
#X connect 28 0 29 0;
#X connect 29 0 30 0;
#X connect 30 0 31 0;
#X connect 33 0 34 0;
#X connect 34 0 35 0;
#X connect 37 0 33 0;
#X connect 38 0 28 0;
#X connect 38 1 37 0;
#X connect 39 0 69 0;
#X connect 40 0 41 0;
#X connect 41 0 39 0;
#X connect 42 0 38 0;
#X connect 43 0 55 0;
#X connect 44 0 70 0;
#X connect 46 0 8 1;
#X connect 52 0 10 0;
#X connect 54 0 71 0;
#X connect 55 0 67 0;
#X connect 55 0 68 0;
#X connect 57 0 17 0;
#X connect 58 0 17 0;
#X connect 59 0 58 0;
#X connect 60 0 59 0;
#X connect 65 0 55 0;
#X connect 69 0 23 0;
#X connect 71 0 66 0;
#X connect 72 0 73 0;
#X connect 73 0 70 0;
#X restore 17 330 pd FFT_Analyse;
#X obj 63 309 inlet;
#X obj 17 309 inlet~;
#X obj 110 309 inlet;
#N canvas 0 22 450 300 (subpatch) 0;
#X array \$0-s 268 float 0;
#X coords 0 100 267 0 267 140 1;
#X restore 23 37 graph;
#X obj 297 52 cnv 15 1 1 empty empty -10 0 0 0 10 #fcfcfc #000000 0;
#X obj 297 164 cnv 15 1 1 empty empty -90 0 0 0 10 #fcfcfc #000000 0;
#X obj 297 108 cnv 15 1 1 empty empty -50 0 0 0 10 #fcfcfc #000000 0;
#X obj 297 80 cnv 15 1 1 empty empty -30 0 0 0 10 #fcfcfc #000000 0;
#X obj 297 136 cnv 15 1 1 empty empty -70 0 0 0 10 #fcfcfc #000000 0;
#X obj 18 181 cnv 15 1 1 empty empty 10 0 5 0 10 #fcfcfc #000000 0;
#X obj 66 181 cnv 15 1 1 empty empty 40 0 5 0 10 #fcfcfc #000000 0;
#X obj 115 181 cnv 15 1 1 empty empty 160 0 5 0 10 #fcfcfc #000000 0;
#X obj 162 181 cnv 15 1 1 empty empty 640 0 5 0 10 #fcfcfc #000000 0;
#X obj 210 181 cnv 15 1 1 empty empty 2k56 0 5 0 10 #fcfcfc #000000 0;
#X obj 258 181 cnv 15 1 1 empty empty 10k2 0 5 0 10 #fcfcfc #000000 0;
#X obj 138 194 cnv 15 1 1 empty empty 320 0 5 0 10 #fcfcfc #000000 0;
#X obj 282 194 cnv 15 1 1 empty empty 20k5 0 5 0 10 #fcfcfc #000000 0;
#X obj 42 191 cnv 15 1 1 empty empty 20 0 9 0 10 #fcfcfc #000000 0;
#X obj 90 194 cnv 15 1 1 empty empty 80 0 5 0 10 #fcfcfc #000000 0;
#X obj 186 194 cnv 15 1 1 empty empty 1k28 0 5 0 10 #fcfcfc #000000 0;
#X obj 234 194 cnv 15 1 1 empty empty 5k12 0 5 0 10 #fcfcfc #000000 0;
#X obj 46 178 cnv 15 1 1 empty empty | 0 7 0 10 #fcfcfc #000000 0;
#X obj 94 178 cnv 15 1 1 empty empty | 0 7 0 10 #fcfcfc #000000 0;
#X obj 142 178 cnv 15 1 1 empty empty | 0 7 0 10 #fcfcfc #000000 0;
#X obj 190 178 cnv 15 1 1 empty empty | 0 7 0 10 #fcfcfc #000000 0;
#X obj 238 178 cnv 15 1 1 empty empty | 0 7 0 10 #fcfcfc #000000 0;
#X obj 286 178 cnv 15 1 1 empty empty | 0 7 0 10 #fcfcfc #000000 0;
#X connect 1 0 0 1;
#X connect 2 0 0 0;
#X connect 3 0 0 2;
#X coords 0 -1 1 1 330 210 1 0 0;
#X restore 981 88 pd spectrolog;
#X obj 356 546 s~ filt;
#X obj 986 35 r~ filt;
#X text 667 275 Sweeping Range Low-High;
#X text 573 351 <- look inside;
#X obj 403 281 loadbang;
#X text 669 298 in Hertz;
#X obj 85 163 phasor~ 100;
#X obj 186 174 osc~ 100;
#X obj 715 588 vcf~, f 20;
#X floatatom 874 552 5 0 0 0 - - - 0;
#X obj 836 456 500;
#X obj 875 465 1000;
#X obj 794 403 0.1;
#X floatatom 794 376 5 0 0 0 - - - 0;
#X floatatom 836 400 5 0 0 0 - - - 0;
#X floatatom 875 424 5 0 0 0 - - - 0;
#X text 920 553 Q;
#X obj 712 553 r~ signal;
#X text 789 351 freq;
#X text 840 372 low;
#X text 876 400 high;
#N canvas 427 195 516 481 sweep 0;
#X obj 46 168 osc~;
#X floatatom 46 104 5 0 0 0 - - - 0;
#X floatatom 313 180 5 0 0 0 - - - 0;
#X floatatom 363 178 5 0 0 0 - - - 0;
#X obj 313 245 expr $f2 - $f1;
#X floatatom 313 279 5 0 0 0 - - - 0;
#X obj 363 201 t b f;
#X obj 243 336 expr~ $v1 * $v2 + $v3;
#X obj 46 255 expr~ $v1 * 0.5 + 0.5;
#X obj 46 59 inlet;
#X obj 311 103 inlet;
#X obj 365 106 inlet;
#X obj 249 389 outlet~;
#X text 33 26 freq;
#X text 220 75 sweep untergrenze;
#X text 367 76 sweep obergrenze;
#X connect 0 0 8 0;
#X connect 1 0 0 0;
#X connect 2 0 4 0;
#X connect 2 0 7 2;
#X connect 3 0 6 0;
#X connect 4 0 5 0;
#X connect 5 0 7 1;
#X connect 6 0 4 0;
#X connect 6 1 4 1;
#X connect 7 0 12 0;
#X connect 8 0 7 0;
#X connect 9 0 1 0;
#X connect 10 0 2 0;
#X connect 11 0 3 0;
#X restore 789 494 pd sweep;
#X floatatom 740 626 5 0 0 0 - - - 0;
#X text 783 625 Gain;
#X text 958 424 Sweeping Range Low-High;
#X text 864 500 <- look inside;
#X obj 694 430 loadbang;
#X text 960 447 in Hertz;
#X obj 961 704 vcf~, f 20;
#X floatatom 1120 668 5 0 0 0 - - - 0;
#X obj 1082 572 500;
#X obj 1121 581 1000;
#X obj 1040 519 0.1;
#X floatatom 1040 492 5 0 0 0 - - - 0;
#X floatatom 1082 516 5 0 0 0 - - - 0;
#X floatatom 1121 540 5 0 0 0 - - - 0;
#X text 1166 669 Q;
#X obj 958 669 r~ signal;
#X text 1035 467 freq;
#X text 1086 488 low;
#X text 1122 516 high;
#N canvas 427 195 516 481 sweep 0;
#X obj 46 168 osc~;
#X floatatom 46 104 5 0 0 0 - - - 0;
#X floatatom 313 180 5 0 0 0 - - - 0;
#X floatatom 363 178 5 0 0 0 - - - 0;
#X obj 313 245 expr $f2 - $f1;
#X floatatom 313 279 5 0 0 0 - - - 0;
#X obj 363 201 t b f;
#X obj 243 336 expr~ $v1 * $v2 + $v3;
#X obj 46 255 expr~ $v1 * 0.5 + 0.5;
#X obj 46 59 inlet;
#X obj 311 103 inlet;
#X obj 365 106 inlet;
#X obj 249 389 outlet~;
#X text 33 26 freq;
#X text 220 75 sweep untergrenze;
#X text 367 76 sweep obergrenze;
#X connect 0 0 8 0;
#X connect 1 0 0 0;
#X connect 2 0 4 0;
#X connect 2 0 7 2;
#X connect 3 0 6 0;
#X connect 4 0 5 0;
#X connect 5 0 7 1;
#X connect 6 0 4 0;
#X connect 6 1 4 1;
#X connect 7 0 12 0;
#X connect 8 0 7 0;
#X connect 9 0 1 0;
#X connect 10 0 2 0;
#X connect 11 0 3 0;
#X restore 1035 610 pd sweep;
#X floatatom 986 742 5 0 0 0 - - - 0;
#X text 1029 741 Gain;
#X text 1204 540 Sweeping Range Low-High;
#X text 1110 616 <- look inside;
#X obj 940 546 loadbang;
#X text 1206 563 in Hertz;
#X connect 0 0 41 0;
#X connect 1 0 0 2;
#X connect 2 0 38 1;
#X connect 3 0 38 2;
#X connect 4 0 38 0;
#X connect 5 0 4 0;
#X connect 6 0 2 0;
#X connect 7 0 3 0;
#X connect 9 0 21 0;
#X connect 10 0 9 4;
#X connect 11 0 9 2;
#X connect 12 0 19 0;
#X connect 13 0 14 0;
#X connect 14 0 27 0;
#X connect 16 0 37 0;
#X connect 17 0 16 0;
#X connect 18 0 17 1;
#X connect 19 0 9 0;
#X connect 27 0 15 0;
#X connect 28 0 0 0;
#X connect 37 0 9 3;
#X connect 37 1 17 0;
#X connect 38 0 0 1;
#X connect 40 0 39 0;
#X connect 40 0 39 1;
#X connect 41 0 40 0;
#X connect 41 0 48 0;
#X connect 42 0 43 0;
#X connect 43 0 44 0;
#X connect 44 0 40 1;
#X connect 45 0 41 1;
#X connect 49 0 47 0;
#X connect 52 0 4 0;
#X connect 52 0 2 0;
#X connect 52 0 3 0;
#X connect 54 0 9 1;
#X connect 56 0 40 0;
#X connect 57 0 56 2;
#X connect 58 0 69 1;
#X connect 59 0 69 2;
#X connect 60 0 69 0;
#X connect 61 0 60 0;
#X connect 62 0 58 0;
#X connect 63 0 59 0;
#X connect 65 0 56 0;
#X connect 69 0 56 1;
#X connect 74 0 60 0;
#X connect 74 0 58 0;
#X connect 74 0 59 0;
#X connect 76 0 40 0;
#X connect 77 0 76 2;
#X connect 78 0 89 1;
#X connect 79 0 89 2;
#X connect 80 0 89 0;
#X connect 81 0 80 0;
#X connect 82 0 78 0;
#X connect 83 0 79 0;
#X connect 85 0 76 0;
#X connect 89 0 76 1;
#X connect 94 0 80 0;
#X connect 94 0 78 0;
#X connect 94 0 79 0;
