#N canvas 132 25 924 699 12;
#X obj 57 185 f;
#X obj 57 218 + 1;
#X floatatom 57 251 5 0 0 0 - - - 0;
#X obj 57 283 print counter;
#X obj 57 130 bng 19 250 50 0 empty empty empty 0 -10 0 12 #fcfcfc #000000 #000000;
#X text 160 135 Reset (Achtet auf den Unterschied \, ob Hot oder Cold Inlet);
#X text 57 35 Counter;
#X obj 57 99 metro 1000;
#X obj 57 66 tgl 19 0 empty empty empty 0 -10 0 12 #fcfcfc #000000 #000000 0 1;
#X floatatom 124 67 5 0 0 0 - - - 0;
#X msg 106 136 -1;
#X msg 127 158 -1;
#X connect 0 0 1 0;
#X connect 1 0 2 0;
#X connect 1 0 0 1;
#X connect 2 0 3 0;
#X connect 4 0 0 0;
#X connect 7 0 4 0;
#X connect 8 0 7 0;
#X connect 9 0 7 1;
#X connect 10 0 0 0;
#X connect 11 0 0 1;
