#N canvas 162 200 964 506 12;
#X obj 246 300 bng 19 250 50 0 empty empty empty 0 -10 0 12 #fcfcfc #000000 #000000;
#X obj 376 360 bng 19 250 50 0 empty empty empty 0 -10 0 12 #fcfcfc #000000 #000000;
#X obj 430 360 bng 19 250 50 0 empty empty empty 0 -10 0 12 #fcfcfc #000000 #000000;
#X text 243 406 50%;
#X obj 245 182 random 100;
#X obj 245 219 moses 50, f 19;
#X floatatom 245 252 5 0 0 0 - - - 0;
#X floatatom 376 254 5 0 0 0 - - - 0;
#X obj 245 138 bng 19 250 50 0 empty empty empty 0 -10 0 12 #fcfcfc #000000 #000000;
#X text 328 181 0-99;
#X text 197 255 0-49;
#X floatatom 376 322 5 0 0 0 - - - 0;
#X floatatom 429 322 5 0 0 0 - - - 0;
#X obj 245 93 metro 10;
#X obj 244 45 tgl 19 0 empty empty empty 0 -10 0 12 #fcfcfc #000000 #000000 0 1;
#X floatatom 308 49 5 0 0 0 - - - 0;
#X text 374 406 10%;
#X text 433 407 40%;
#X text 371 436 45%;
#X text 437 438 5%;
#X text 243 436 50%;
#X obj 376 289 moses 95;
#X connect 4 0 5 0;
#X connect 5 0 6 0;
#X connect 5 1 7 0;
#X connect 6 0 0 0;
#X connect 7 0 21 0;
#X connect 8 0 4 0;
#X connect 11 0 1 0;
#X connect 12 0 2 0;
#X connect 13 0 8 0;
#X connect 14 0 13 0;
#X connect 15 0 13 1;
#X connect 21 0 11 0;
#X connect 21 1 12 0;
