#N canvas 0 38 1512 875 12;
#X obj 354 151 phasor~;
#X floatatom 354 97 5 0 0 0 - - - 0;
#X obj 353 289 throw~ phasor;
#X floatatom 90 128 5 0 0 0 - - - 0;
#X obj 90 171 osc~;
#X obj 466 288 tabwrite~ phasor;
#X obj 192 292 tabwrite~ sine;
#X obj 88 293 throw~ sine;
#X obj 59 457 catch~ sine;
#X obj 158 456 catch~ phasor;
#X obj 268 455 catch~ square;
#X obj 62 597 dac~;
#X obj 368 456 catch~ pulse;
#X obj 59 520 *~;
#X obj 90 481 vsl 15 40 0 1 0 0 empty empty empty 0 -9 0 12 #fcfcfc #000000 #000000 0 1;
#X obj 158 521 *~;
#X obj 189 482 vsl 15 40 0 1 0 0 empty empty empty 0 -9 0 12 #fcfcfc #000000 #000000 0 1;
#X obj 268 523 *~;
#X obj 299 484 vsl 15 40 0 1 0 0 empty empty empty 0 -9 0 12 #fcfcfc #000000 #000000 0 1;
#X obj 368 529 *~;
#X obj 399 490 vsl 15 40 0 1 0 0 empty empty empty 0 -9 0 12 #fcfcfc #000000 #000000 0 1;
#X text 350 26 sawtooth (phasor);
#X obj 463 528 *~;
#X obj 494 489 vsl 15 40 0 1 0 0 empty empty empty 0 -9 0 12 #fcfcfc #000000 #000000 0 1;
#X obj 463 455 catch~ triangle;
#X obj 175 192 bng 19 250 50 0 empty empty empty 0 -10 0 12 #fcfcfc #000000 #000000;
#X text 98 28 cosine wave;
#X msg 153 118 0.75;
#X obj 446 190 bng 19 250 50 0 empty empty empty 0 -10 0 12 #fcfcfc #000000 #000000;
#X msg 444 134 0;
#X obj 92 373 array define sine 400;
#X obj 361 374 array define phasor 400;
#X obj 480 246 metro 100;
#X obj 480 221 tgl 15 0 empty empty draw_it 17 7 0 10 #fcfcfc #000000 #000000 0 1;
#X obj 202 253 metro 100;
#X obj 202 228 tgl 15 0 empty empty draw_it 17 7 0 10 #fcfcfc #000000 #000000 0 1;
#N canvas 190 38 1294 760 square 1;
#X floatatom 108 123 5 0 0 0 - - - 0;
#X obj 177 186 phasor~;
#X obj 108 186 phasor~;
#X obj 177 158 * -1;
#X obj 108 225 +~;
#X msg 255 140 0;
#X msg 289 138 0.5;
#X obj 255 112 bng 19 250 50 0 empty empty empty 0 -10 0 12 #fcfcfc #000000 #000000;
#X obj 114 473 throw~ square;
#X obj 108 259 -~ 0.5;
#N canvas 0 22 450 278 (subpatch) 0;
#X array phasor2 100 float 3;
#A 0 0.416232 0.403792 0.391353 0.378913 0.366474 0.354034 0.341594 0.329155 0.316715 0.304276 0.291836 0.279396 0.266957 0.254517 0.242078 0.229638 0.217199 0.204759 0.192319 0.17988 0.16744 0.155001 0.142561 0.130121 0.117682 0.105242 0.0928027 0.0803631 0.0679236 0.055484 0.0430444 0.0306048 0.0181652 0.00572565 0.993286 0.980846 0.968407 0.955967 0.943528 0.931088 0.918649 0.906209 0.893769 0.88133 0.86889 0.856451 0.844011 0.831572 0.819132 0.806692 0.794253 0.781813 0.769374 0.756934 0.744494 0.732055 0.719615 0.707176 0.694736 0.682297 0.669857 0.657417 0.644978 0.632538 0.620099 0.607659 0.595219 0.58278 0.57034 0.557901 0.545461 0.533022 0.520582 0.508142 0.495703 0.483263 0.470824 0.458384 0.445944 0.433505 0.421065 0.408626 0.396186 0.383747 0.371307 0.358867 0.346428 0.333988 0.321549 0.309109 0.296669 0.28423 0.27179 0.259351 0.246911 0.234472 0.222032 0.209592 0.197153 0.184713;
#X coords 0 1 100 -1 58 28 1 0 0;
#X restore 297 308 graph;
#X obj 380 211 array define square 400;
#N canvas 0 22 450 278 (subpatch) 0;
#X array phasor1 100 float 3;
#A 0 0.0837681 0.0962077 0.108647 0.121087 0.133526 0.145966 0.158406 0.170845 0.183285 0.195724 0.208164 0.220604 0.233043 0.245483 0.257922 0.270362 0.282801 0.295241 0.307681 0.32012 0.33256 0.344999 0.357439 0.369879 0.382318 0.394758 0.407197 0.419637 0.432076 0.444516 0.456956 0.469395 0.481835 0.494274 0.506714 0.519154 0.531593 0.544033 0.556472 0.568912 0.581351 0.593791 0.606231 0.61867 0.63111 0.643549 0.655989 0.668428 0.680868 0.693308 0.705747 0.718187 0.730626 0.743066 0.755506 0.767945 0.780385 0.792824 0.805264 0.817703 0.830143 0.842583 0.855022 0.867462 0.879901 0.892341 0.904781 0.91722 0.92966 0.942099 0.954539 0.966978 0.979418 0.991858 0.00429723 0.0167368 0.0291764 0.041616 0.0540556 0.0664952 0.0789347 0.0913743 0.103814 0.116253 0.128693 0.141133 0.153572 0.166012 0.178451 0.190891 0.203331 0.21577 0.22821 0.240649 0.253089 0.265528 0.277968 0.290408 0.302847 0.315287;
#X coords 0 1 100 -1 49 26 1;
#X restore 294 263 graph;
#X obj 207 265 tabwrite~ phasor1, f 9;
#X obj 208 302 tabwrite~ phasor2, f 11;
#X obj 223 239 metro 100;
#X obj 223 214 tgl 15 0 empty empty draw_it 17 7 0 10 #fcfcfc #000000 #000000 0 1;
#X obj 109 292 *~ 2;
#X obj 109 316 -~ 1;
#X text 104 64 2 phasor (gegenläufig und um 180° verschoben);
#X text 107 82 werden addiert;
#X obj 166 384 metro 100;
#X obj 166 359 tgl 15 0 empty empty draw_it 17 7 0 10 #fcfcfc #000000 #000000 0 1;
#X obj 152 426 tabwrite~ square;
#X obj 671 192 expr~ $v1 > 0.5;
#X obj 670 218 *~ 2;
#X obj 671 241 -~ 1;
#X floatatom 671 130 8 0 0 0 - - - 0;
#X obj 671 159 phasor~;
#X obj 676 348 throw~ square;
#X obj 823 280 metro 100;
#X obj 823 255 tgl 15 0 empty empty draw_it 17 7 0 10 #fcfcfc #000000 #000000 0 1;
#X obj 809 322 tabwrite~ square;
#X text 667 68 2 möglichkeit (boolean);
#X text 104 13 square (non-bandlimited);
#X text 86 550 problem: Aliasing!;
#X text 91 576 Frequenzen ab der Nyquist-Freq (Sr/2) werden nicht korrekt dargestellt.;
#X obj 921 187 line~;
#X msg 916 135 100 \, 24000 30000;
#X connect 0 0 2 0;
#X connect 0 0 3 0;
#X connect 1 0 4 1;
#X connect 1 0 14 0;
#X connect 2 0 4 0;
#X connect 2 0 13 0;
#X connect 3 0 1 0;
#X connect 4 0 9 0;
#X connect 5 0 2 1;
#X connect 6 0 1 1;
#X connect 7 0 5 0;
#X connect 7 0 6 0;
#X connect 9 0 17 0;
#X connect 15 0 13 0;
#X connect 15 0 14 0;
#X connect 16 0 15 0;
#X connect 17 0 18 0;
#X connect 18 0 8 0;
#X connect 18 0 23 0;
#X connect 21 0 23 0;
#X connect 22 0 21 0;
#X connect 24 0 25 0;
#X connect 25 0 26 0;
#X connect 26 0 32 0;
#X connect 26 0 29 0;
#X connect 27 0 28 0;
#X connect 28 0 24 0;
#X connect 30 0 32 0;
#X connect 31 0 30 0;
#X connect 38 0 37 0;
#X restore 629 79 pd square;
#N canvas 90 38 1129 709 pulse 0;
#X obj 222 274 tgl 19 0 empty empty empty 0 -10 0 12 #fcfcfc #000000 #000000 0 1;
#X obj 220 299 metro 100;
#X obj 88 189 *~ 2;
#X obj 88 213 -~ 1;
#X obj 90 123 phasor~;
#X obj 90 147 expr~ $v1 > $v2;
#X floatatom 89 92 10 0 0 0 - - - 0;
#X obj 192 114 / 100;
#X obj 89 248 throw~ pulse;
#X obj 220 326 tabwrite~ pulse;
#X obj 195 79 hsl 162 19 0 100 0 0 empty empty pulsewidth -2 -10 0 12 #fcfcfc #000000 #000000 0 1;
#X text 87 50 pulse;
#X floatatom 206 147 5 0 0 0 - - - 0;
#X obj 432 141 array define pulse 400;
#X connect 0 0 1 0;
#X connect 1 0 9 0;
#X connect 2 0 3 0;
#X connect 3 0 8 0;
#X connect 3 0 9 0;
#X connect 4 0 5 0;
#X connect 5 0 2 0;
#X connect 6 0 4 0;
#X connect 7 0 5 1;
#X connect 7 0 12 0;
#X connect 10 0 7 0;
#X restore 629 107 pd pulse;
#N canvas 577 147 380 383 spectrolog 0;
#N canvas 556 61 872 789 FFT_Analyse 0;
#X obj 101 102 inlet~;
#X obj 101 332 *~;
#X obj 132 331 *~;
#X obj 101 356 +~;
#X obj 102 377 powtodb~;
#N canvas 0 22 346 535 init_input_window 0;
#X obj 73 217 / 10;
#X obj 55 278 line 0 0.1;
#X msg 119 246 0;
#X obj 54 176 t f f b;
#X obj 54 239 pack;
#X obj 55 301 t f f;
#X obj 54 152 - 1;
#X obj 74 114 t f f;
#X obj 55 359 * 3.14159;
#X obj 55 381 sin;
#X msg 55 401 \$1 \$1;
#X obj 55 423 *;
#X text 119 334 0...0.99;
#X text 128 359 0...pi;
#X text 79 423 hanning;
#X msg 55 88 4096;
#X obj 100 88 f 4096;
#X obj 99 60 bng 15 250 50 0 empty empty empty 0 -6 0 8 #fcfcfc #000000 #000000;
#X obj 99 39 loadbang;
#X obj 74 333 / 4096;
#X obj 55 448 tabwrite \$0-window;
#X text 86 381 half-sine;
#X connect 0 0 4 1;
#X connect 1 0 5 0;
#X connect 2 0 1 0;
#X connect 3 0 4 0;
#X connect 3 1 0 0;
#X connect 3 2 2 0;
#X connect 4 0 1 0;
#X connect 5 0 19 0;
#X connect 5 1 20 1;
#X connect 6 0 3 0;
#X connect 7 0 6 0;
#X connect 7 1 19 1;
#X connect 8 0 9 0;
#X connect 9 0 10 0;
#X connect 10 0 11 0;
#X connect 11 0 20 0;
#X connect 15 0 7 0;
#X connect 16 0 7 0;
#X connect 17 0 16 0;
#X connect 18 0 17 0;
#X connect 19 0 8 0;
#X restore 161 276 pd init_input_window;
#N canvas 0 22 450 300 (subpatch) 0;
#X array \$0-lin_scope 2048 float 0;
#X coords 0 100 2047 0 200 140 1;
#X restore 110 621 graph;
#N canvas 0 22 822 328 init_norm 0;
#X obj 43 230 outlet;
#X obj 43 187 - 100;
#X floatatom 43 208 9 0 0 0 - - - 0;
#X text 108 169 leistung - techn. dB;
#X msg 43 69 4096;
#X obj 80 68 f 4096;
#X obj 80 47 bng 15 250 50 0 empty empty empty 0 -6 0 8 #fcfcfc #000000 #000000;
#X obj 80 26 loadbang;
#X obj 43 167 rmstodb;
#X obj 43 110 / 4;
#X text 74 103 faktor 2 wegen hanning;
#X text 74 114 weiterer faktor 2 \, weil wir nur die;
#X text 73 124 erste haelfte des konjungiert komplexen spektrum sehen;
#X text 108 135 bzw. bearbeiten \, somit nur die haelfte der spektralen energie;
#X connect 1 0 2 0;
#X connect 2 0 0 0;
#X connect 4 0 9 0;
#X connect 5 0 9 0;
#X connect 6 0 5 0;
#X connect 7 0 6 0;
#X connect 8 0 1 0;
#X connect 9 0 8 0;
#X restore 153 421 pd init_norm;
#X obj 100 231 *~;
#X obj 102 443 -~ 60.206;
#X obj 113 517 *~ 0.98;
#X obj 100 539 +~;
#X obj 101 471 *~ 0.02;
#X msg 314 481 1 \$1;
#X obj 314 502 -;
#X obj 314 458 clip 0 1;
#X obj 314 437 / 100;
#X floatatom 314 413 5 0.5 100 0 - - - 0;
#X obj 333 366 loadbang;
#X obj 100 277 fft~;
#X obj 463 557 line 0 0.1;
#X obj 463 602 / 2;
#X obj 463 622 mtof;
#X msg 463 536 6 \, 273 26.7;
#X obj 463 580 t f f;
#X obj 494 602 - 6;
#X obj 463 642 / 44100;
#X obj 463 663 * 4096;
#X msg 656 633 6;
#X obj 656 653 / 2;
#X obj 656 673 mtof;
#X floatatom 656 693 9 0 0 0 - - - 0;
#X text 723 694 Hz;
#X obj 754 654 / 2;
#X obj 754 673 mtof;
#X floatatom 754 693 9 0 0 0 - - - 0;
#X text 822 693 Hz;
#X msg 754 634 273;
#X obj 656 612 t b b;
#X obj 463 498 tgl 15 0 empty empty empty 0 -6 0 8 #fcfcfc #000000 #000000 0 1;
#X obj 463 458 loadbang;
#X msg 463 478 1;
#X obj 656 592 loadbang;
#X obj 468 245 loadbang;
#X obj 703 102 inlet;
#X obj 130 253 table \$0-window 4096;
#X obj 137 214 tabreceive~ \$0-window;
#X text 353 403 temporal lowpass;
#X text 355 415 parameter between 0 .. 100 %;
#X text 23 23 spectrum~;
#X text 120 23 draws the power of a spectrum in a logarithmic scale;
#X text 118 36 (by Thomas Musil);
#X obj 113 496 tabreceive~ \$0-lin_scope;
#X obj 100 564 tabsend~ \$0-lin_scope;
#X obj 463 685 tabread4 \$0-lin_scope;
#X obj 468 267 f \$0;
#X text 553 536 transformation to log scale;
#X msg 333 385 100;
#X obj 314 341 max 0.5;
#X obj 314 319 min 100;
#X obj 440 107 inlet;
#X text 96 81 audio sig;
#X text 700 81 ON/OFF;
#X text 427 86 (0 .. 100);
#X text 408 72 temporal lowpass;
#X obj 533 244 bng 15 250 50 0 empty empty empty 0 -6 0 8 #fcfcfc #000000 #000000;
#X obj 463 735 tabwrite \$0-s;
#X msg 468 296 \; \$1-s xticks 0 12 2;
#X msg 491 330 \; \$1-s yticks 0 5 2;
#X obj 462 516 metro 100;
#X obj 704 166 switch~ 4096 2;
#X obj 463 711 clip 0 100;
#X obj 773 101 loadbang;
#X msg 773 123 1;
#X connect 0 0 8 0;
#X connect 1 0 3 0;
#X connect 2 0 3 1;
#X connect 3 0 4 0;
#X connect 4 0 9 0;
#X connect 7 0 9 1;
#X connect 8 0 19 0;
#X connect 9 0 12 0;
#X connect 10 0 11 1;
#X connect 11 0 53 0;
#X connect 12 0 11 0;
#X connect 13 0 14 0;
#X connect 14 0 10 1;
#X connect 15 0 13 0;
#X connect 15 0 12 1;
#X connect 16 0 15 0;
#X connect 17 0 16 0;
#X connect 18 0 57 0;
#X connect 19 0 1 0;
#X connect 19 0 1 1;
#X connect 19 1 2 0;
#X connect 19 1 2 1;
#X connect 20 0 24 0;
#X connect 21 0 22 0;
#X connect 22 0 26 0;
#X connect 23 0 20 0;
#X connect 24 0 21 0;
#X connect 24 1 25 0;
#X connect 25 0 66 1;
#X connect 26 0 27 0;
#X connect 27 0 54 0;
#X connect 28 0 29 0;
#X connect 29 0 30 0;
#X connect 30 0 31 0;
#X connect 33 0 34 0;
#X connect 34 0 35 0;
#X connect 37 0 33 0;
#X connect 38 0 28 0;
#X connect 38 1 37 0;
#X connect 39 0 69 0;
#X connect 40 0 41 0;
#X connect 41 0 39 0;
#X connect 42 0 38 0;
#X connect 43 0 55 0;
#X connect 44 0 70 0;
#X connect 46 0 8 1;
#X connect 52 0 10 0;
#X connect 54 0 71 0;
#X connect 55 0 67 0;
#X connect 55 0 68 0;
#X connect 57 0 17 0;
#X connect 58 0 17 0;
#X connect 59 0 58 0;
#X connect 60 0 59 0;
#X connect 65 0 55 0;
#X connect 69 0 23 0;
#X connect 71 0 66 0;
#X connect 72 0 73 0;
#X connect 73 0 70 0;
#X restore 17 330 pd FFT_Analyse;
#X obj 63 309 inlet;
#X obj 17 309 inlet~;
#X obj 110 309 inlet;
#N canvas 0 22 450 300 (subpatch) 0;
#X array \$0-s 268 float 0;
#X coords 0 100 267 0 267 140 1;
#X restore 23 37 graph;
#X obj 297 52 cnv 15 1 1 empty empty -10 0 0 0 10 #fcfcfc #000000 0;
#X obj 297 164 cnv 15 1 1 empty empty -90 0 0 0 10 #fcfcfc #000000 0;
#X obj 297 108 cnv 15 1 1 empty empty -50 0 0 0 10 #fcfcfc #000000 0;
#X obj 297 80 cnv 15 1 1 empty empty -30 0 0 0 10 #fcfcfc #000000 0;
#X obj 297 136 cnv 15 1 1 empty empty -70 0 0 0 10 #fcfcfc #000000 0;
#X obj 18 181 cnv 15 1 1 empty empty 10 0 5 0 10 #fcfcfc #000000 0;
#X obj 66 181 cnv 15 1 1 empty empty 40 0 5 0 10 #fcfcfc #000000 0;
#X obj 115 181 cnv 15 1 1 empty empty 160 0 5 0 10 #fcfcfc #000000 0;
#X obj 162 181 cnv 15 1 1 empty empty 640 0 5 0 10 #fcfcfc #000000 0;
#X obj 210 181 cnv 15 1 1 empty empty 2k56 0 5 0 10 #fcfcfc #000000 0;
#X obj 258 181 cnv 15 1 1 empty empty 10k2 0 5 0 10 #fcfcfc #000000 0;
#X obj 138 194 cnv 15 1 1 empty empty 320 0 5 0 10 #fcfcfc #000000 0;
#X obj 282 194 cnv 15 1 1 empty empty 20k5 0 5 0 10 #fcfcfc #000000 0;
#X obj 42 191 cnv 15 1 1 empty empty 20 0 9 0 10 #fcfcfc #000000 0;
#X obj 90 194 cnv 15 1 1 empty empty 80 0 5 0 10 #fcfcfc #000000 0;
#X obj 186 194 cnv 15 1 1 empty empty 1k28 0 5 0 10 #fcfcfc #000000 0;
#X obj 234 194 cnv 15 1 1 empty empty 5k12 0 5 0 10 #fcfcfc #000000 0;
#X obj 46 178 cnv 15 1 1 empty empty | 0 7 0 10 #fcfcfc #000000 0;
#X obj 94 178 cnv 15 1 1 empty empty | 0 7 0 10 #fcfcfc #000000 0;
#X obj 142 178 cnv 15 1 1 empty empty | 0 7 0 10 #fcfcfc #000000 0;
#X obj 190 178 cnv 15 1 1 empty empty | 0 7 0 10 #fcfcfc #000000 0;
#X obj 238 178 cnv 15 1 1 empty empty | 0 7 0 10 #fcfcfc #000000 0;
#X obj 286 178 cnv 15 1 1 empty empty | 0 7 0 10 #fcfcfc #000000 0;
#X connect 1 0 0 1;
#X connect 2 0 0 0;
#X connect 3 0 0 2;
#X coords 0 -1 1 1 330 210 1 0 0;
#X restore 510 559 pd spectrolog;
#N canvas 339 38 1124 720 triangle 1;
#X obj 117 92 phasor~;
#X floatatom 117 70 5 0 0 0 - - - 0;
#X text 157 69 frequency;
#X obj 135 182 min~;
#X obj 142 121 *~ -1;
#X obj 143 146 +~ 1;
#X obj 206 299 metro 100;
#X obj 206 274 tgl 15 0 empty empty draw_it 17 7 0 10 #fcfcfc #000000 #000000 0 1;
#X obj 135 232 -~ 1;
#X obj 135 207 *~ 4;
#X obj 206 327 tabwrite~ triangle;
#X obj 83 327 throw~ triangle;
#X text 152 194 Die unteren beiden Abschnitte (0 bis 0.5) werden durch min~;
#X obj 83 377 array define triangle 400;
#X connect 0 0 4 0;
#X connect 0 0 3 0;
#X connect 1 0 0 0;
#X connect 3 0 9 0;
#X connect 4 0 5 0;
#X connect 5 0 3 1;
#X connect 6 0 10 0;
#X connect 7 0 6 0;
#X connect 8 0 11 0;
#X connect 9 0 8 0;
#X restore 629 132 pd triangle;
#X text 776 100 -> Problem bei Non-Bandlimited-Oscillators: Aliasing!;
#X obj 354 179 expr~ $v1 * 2 - 1;
#X connect 0 0 41 0;
#X connect 1 0 0 0;
#X connect 3 0 4 0;
#X connect 4 0 7 0;
#X connect 4 0 6 0;
#X connect 8 0 13 0;
#X connect 9 0 15 0;
#X connect 10 0 17 0;
#X connect 12 0 19 0;
#X connect 13 0 11 0;
#X connect 13 0 11 1;
#X connect 13 0 38 0;
#X connect 14 0 13 1;
#X connect 15 0 11 0;
#X connect 15 0 11 1;
#X connect 15 0 38 0;
#X connect 16 0 15 1;
#X connect 17 0 11 0;
#X connect 17 0 11 1;
#X connect 17 0 38 0;
#X connect 18 0 17 1;
#X connect 19 0 11 0;
#X connect 19 0 11 1;
#X connect 19 0 38 0;
#X connect 20 0 19 1;
#X connect 22 0 11 0;
#X connect 22 0 11 1;
#X connect 22 0 38 0;
#X connect 23 0 22 1;
#X connect 24 0 22 0;
#X connect 25 0 6 0;
#X connect 27 0 4 1;
#X connect 27 0 25 0;
#X connect 28 0 5 0;
#X connect 29 0 28 0;
#X connect 29 0 0 1;
#X connect 32 0 5 0;
#X connect 33 0 32 0;
#X connect 34 0 6 0;
#X connect 35 0 34 0;
#X connect 41 0 5 0;
#X connect 41 0 2 0;
