#N canvas 205 57 957 492 12;
#X obj 222 274 tgl 19 0 empty empty empty 0 -10 0 12 #fcfcfc #000000 #000000 0 1;
#X obj 220 299 metro 100;
#X obj 172 173 *~ 2;
#X obj 172 197 -~ 1;
#X obj 90 123 phasor~;
#X obj 90 147 expr~ $v1 > $v2;
#X floatatom 89 92 5 0 0 0 - - - 0;
#X obj 192 114 / 100;
#X obj 95 326 throw~ pulse;
#X obj 220 326 tabwrite~ pulse;
#X obj 195 79 hsl 162 19 0 100 0 0 empty empty pulsewidth -2 -10 0 12 #fcfcfc #000000 #000000 0 1;
#X text 87 50 pulse;
#X floatatom 206 147 5 0 0 0 - - - 0;
#X obj 432 141 array define pulse 400;
#X connect 0 0 1 0;
#X connect 1 0 9 0;
#X connect 2 0 3 0;
#X connect 4 0 5 0;
#X connect 5 0 2 0;
#X connect 5 0 9 0;
#X connect 5 0 8 0;
#X connect 6 0 4 0;
#X connect 7 0 5 1;
#X connect 7 0 12 0;
#X connect 10 0 7 0;
