#N canvas 0 38 1037 874 12;
#X obj 49 655 output~;
#X obj 407 515 key;
#X floatatom 407 539 5 0 0 0 - - - 0;
#X obj 407 562 sel 10;
#X obj 407 586 tgl 19 0 empty empty empty 0 -10 0 12 #fcfcfc #000000 #000000 0 1;
#X obj 379 680 line~;
#X msg 389 625 \$1 10;
#X obj 42 597 clip~ -1 1;
#N canvas 76 76 858 637 konsonanten 0;
#X text 30 195 f;
#X text 121 190 s;
#X text 229 193 sch;
#X msg 29 234 \; k1 700 \; k2 1000 \; hip 666;
#X msg 118 232 \; k1 5000 \; k2 10000 \; hip 5000;
#X msg 216 232 \; k1 1600 \; k2 3000 \; hip 50;
#X obj 73 57 key;
#X floatatom 97 80 5 0 0 0 - - - 0;
#X obj 76 117 sel 102 115 223;
#X obj 272 167 t b;
#X obj 272 191 s kons;
#X connect 6 0 7 0;
#X connect 6 0 8 0;
#X connect 8 0 3 0;
#X connect 8 0 9 0;
#X connect 8 1 4 0;
#X connect 8 1 9 0;
#X connect 8 2 5 0;
#X connect 8 2 9 0;
#X connect 9 0 10 0;
#X restore 198 144 pd konsonanten;
#N canvas -16 180 1141 611 vokale 0;
#X obj 242 12 key;
#X floatatom 242 36 5 0 0 0 - - - 0;
#X msg 76 265 \; f1 320 \; f2 800, f 8;
#X msg 158 266 \; f1 500 \; f2 1000;
#X msg 236 264 \; f1 1000 \; f2 1400;
#X text 80 237 u;
#X text 158 237 o;
#X text 240 238 a;
#X text 347 240 ö;
#X msg 338 265 \; f1 1500 \; f2 500;
#X text 432 244 ü;
#X msg 428 265 \; f1 1650 \; f2 320;
#X text 524 241 ä;
#X msg 525 267 \; f1 1800 \; f2 700;
#X msg 616 271 \; f1 2300 \; f2 500;
#X text 620 238 e;
#X text 715 243 i;
#X msg 716 272 \; f1 3200 \; f2 320;
#X msg 892 266 \; f1 150 \; f2 300;
#X msg 814 265 \; f1 150 \; f2 600;
#X text 819 317 N;
#X text 893 318 M;
#X obj 234 63 sel 117 111 97 246 252 228 101 105 110 109;
#X obj 743 130 t b;
#X obj 743 154 s voc;
#X connect 0 0 1 0;
#X connect 1 0 22 0;
#X connect 22 0 2 0;
#X connect 22 0 23 0;
#X connect 22 1 3 0;
#X connect 22 1 23 0;
#X connect 22 2 4 0;
#X connect 22 2 23 0;
#X connect 22 3 9 0;
#X connect 22 3 23 0;
#X connect 22 4 11 0;
#X connect 22 4 23 0;
#X connect 22 5 13 0;
#X connect 22 5 23 0;
#X connect 22 6 14 0;
#X connect 22 6 23 0;
#X connect 22 7 17 0;
#X connect 22 7 23 0;
#X connect 22 8 19 0;
#X connect 22 8 23 0;
#X connect 22 9 18 0;
#X connect 22 9 23 0;
#X connect 23 0 24 0;
#X restore 81 154 pd vokale;
#X obj 712 105 vline~;
#X obj 712 129 tabread4~ array1;
#N canvas 0 50 450 250 (subpatch) 0;
#X array array1 100 float 3;
#A 0 0.619163 0.618117 0.617072 0.616028 0.614986 0.613945 0.612905 0.611867 0.61083 0.609794 0.608759 0.607726 0.606695 0.605664 0.604635 0.603607 0.60258 0.601555 0.600531 0.599509 0.598487 0.597467 0.596449 0.595431 0.594415 0.5934 0.592387 0.591375 0.590364 0.589354 0.588346 0.587339 0.586333 0.585329 0.584325 0.583324 0.582323 0.581324 0.580326 0.579329 0.578334 0.57734 0.576347 0.575355 0.574365 0.573376 0.572388 0.571402 0.570417 0.569433 0.56845 0.567469 0.566489 0.56551 0.564532 0.563556 0.562581 0.561607 0.560635 0.559663 0.558693 0.557725 0.556757 0.555791 0.554826 0.553863 0.5529 0.551939 0.550979 0.55002 0.549063 0.548107 0.547152 0.546198 0.545246 0.544295 0.543345 0.542396 0.541449 0.540502 0.539558 0.538614 0.537671 0.53673 0.53579 0.534851 0.533914 0.532978 0.532043 0.531109 0.530176 0.529245 0.528315 0.527386 0.526458 0.525532 0.524606 0.523682 0.52276 0.521838;
#X coords 0 1 100 0 200 140 1 0 0;
#X restore 481 33 graph;
#X msg 712 76 0 \, 99 1;
#X obj 84 280 r voc;
#X obj 84 304 bng 19 250 50 0 empty empty empty 0 -10 0 12 #fcfcfc #000000 #000000;
#N canvas 229 138 613 456 vokalgenerator 0;
#X obj 44 102 expr~ $v1 * 2 - 1;
#X obj 45 256 vcf~, f 12;
#X floatatom 85 210 5 0 0 0 - - - 0;
#X floatatom 126 210 5 0 0 0 - - - 0;
#X obj 172 259 vcf~, f 12;
#X floatatom 212 213 5 0 0 0 - - - 0;
#X floatatom 257 210 5 0 0 0 - - - 0;
#X obj 171 302 *~ 0.2;
#X obj 85 175 r f1;
#X obj 211 181 r f2;
#X obj 194 120 loadbang;
#X msg 194 144 10;
#X obj 41 405 outlet~;
#X obj 42 375 +~;
#X obj 44 34 phasor~ 50;
#X connect 0 0 1 0;
#X connect 0 0 4 0;
#X connect 1 0 13 0;
#X connect 2 0 1 1;
#X connect 3 0 1 2;
#X connect 4 0 7 0;
#X connect 5 0 4 1;
#X connect 6 0 4 2;
#X connect 7 0 13 0;
#X connect 8 0 2 0;
#X connect 9 0 5 0;
#X connect 10 0 11 0;
#X connect 11 0 3 0;
#X connect 11 0 6 0;
#X connect 13 0 12 0;
#X connect 14 0 0 0;
#X restore 45 229 pd vokalgenerator;
#N canvas 251 197 332 492 konsonantgenerator 0;
#X floatatom 67 132 5 0 0 0 - - - 0;
#X floatatom 108 132 5 0 0 0 - - - 0;
#X obj 154 181 vcf~, f 12;
#X floatatom 194 135 5 0 0 0 - - - 0;
#X floatatom 239 132 5 0 0 0 - - - 0;
#X obj 153 224 *~ 0.2;
#X obj 176 42 loadbang;
#X msg 176 66 10;
#X obj 30 57 noise~;
#X obj 42 375 *~ 1;
#X obj 27 178 vcf~, f 12;
#X obj 43 432 hip~;
#X obj 144 267 vsl 19 162 50 5000 0 0 empty hip empty 0 -9 0 12 #fcfcfc #000000 #000000 0 1;
#X obj 67 97 r k1;
#X obj 193 103 r k2;
#X obj 43 456 outlet~;
#X connect 0 0 10 1;
#X connect 1 0 10 2;
#X connect 2 0 5 0;
#X connect 3 0 2 1;
#X connect 4 0 2 2;
#X connect 5 0 9 0;
#X connect 6 0 7 0;
#X connect 7 0 1 0;
#X connect 7 0 4 0;
#X connect 8 0 2 0;
#X connect 8 0 10 0;
#X connect 9 0 11 0;
#X connect 10 0 9 0;
#X connect 11 0 15 0;
#X connect 12 0 11 1;
#X connect 13 0 0 0;
#X connect 14 0 3 0;
#X restore 208 233 pd konsonantgenerator;
#X obj 247 289 bng 19 250 50 0 empty empty empty 0 -10 0 12 #fcfcfc #000000 #000000;
#X obj 252 265 r kons;
#X obj 48 424 *~;
#X obj 210 415 *~;
#X msg 83 353 1 10;
#X obj 83 387 line~;
#X msg 126 354 0 10;
#X msg 234 346 1 10;
#X obj 234 380 line~;
#X msg 277 347 0 10;
#X obj 45 493 *~;
#N canvas 16 54 1496 858 klickgenerator 0;
#X obj 183 359 clip~ -1 1;
#X obj 305 13 key;
#X floatatom 304 39 5 0 0 0 - - - 0;
#X obj 304 127 del 10;
#X obj 415 202 vline~;
#X msg 413 176 0 \, 1 1 \, 0 1 1;
#X msg 349 179 1 \, 0 10;
#X floatatom 463 231 5 0 0 0 - - - 0;
#X obj 111 128 phasor~ -18;
#X obj 111 164 bp~ 800 8;
#X obj 195 227 vline~;
#X obj 111 275 *~;
#X msg 205 185 0 \, 1 10 \, 0 10 200;
#X text 115 96 "r" -> phasor;
#X obj 395 117 t b;
#X obj 395 141 s click;
#X obj 183 422 outlet~;
#X obj 649 43 noise~;
#X obj 646 218 *~;
#X obj 673 162 vline~;
#X obj 651 95 hip~ 5000;
#X obj 673 186 pow~ 8;
#X msg 684 138 1 \, 0 50;
#X obj 304 62 sel 107 114 116;
#X obj 435 260 bp~ 2000 10;
#X obj 459 97 del 10;
#X connect 0 0 16 0;
#X connect 1 0 2 0;
#X connect 2 0 23 0;
#X connect 3 0 6 0;
#X connect 4 0 24 0;
#X connect 5 0 4 0;
#X connect 6 0 4 0;
#X connect 7 0 24 1;
#X connect 8 0 9 0;
#X connect 9 0 11 0;
#X connect 10 0 11 1;
#X connect 11 0 0 0;
#X connect 12 0 10 0;
#X connect 14 0 15 0;
#X connect 17 0 20 0;
#X connect 18 0 16 0;
#X connect 19 0 21 0;
#X connect 20 0 18 0;
#X connect 21 0 18 1;
#X connect 22 0 19 0;
#X connect 23 0 3 0;
#X connect 23 0 14 0;
#X connect 23 1 12 0;
#X connect 23 1 14 0;
#X connect 23 2 14 0;
#X connect 23 2 25 0;
#X connect 24 0 0 0;
#X connect 25 0 22 0;
#X restore 406 229 pd klickgenerator;
#X obj 413 290 bng 19 250 50 0 empty empty empty 0 -10 0 12 #fcfcfc #000000 #000000;
#X obj 418 266 r click;
#X obj 382 414 *~;
#X msg 406 345 1 10;
#X obj 406 379 line~;
#X msg 449 346 0 10;
#X obj 500 264 env~;
#X floatatom 500 288 5 0 0 0 - - - 0;
#X text 744 223 s a m s t a g _;
#X obj 587 684 sel s a m s t a g, f 23;
#X symbolatom 594 649 10 0 0 0 - - - 0;
#X obj 587 708 bng 19 250 50 0 empty empty empty 0 -10 0 12 #fcfcfc #000000 #000000;
#X obj 615 733 bng 19 250 50 0 empty empty empty 0 -10 0 12 #fcfcfc #000000 #000000;
#X obj 643 252 text define test;
#X obj 597 567 text get test;
#X floatatom 595 527 5 0 0 0 - - - 0;
#X floatatom 624 474 5 0 0 0 - - - 0;
#X obj 624 497 t b f;
#X connect 1 0 2 0;
#X connect 2 0 3 0;
#X connect 3 0 4 0;
#X connect 4 0 6 0;
#X connect 5 0 28 1;
#X connect 6 0 5 0;
#X connect 7 0 0 0;
#X connect 10 0 11 0;
#X connect 13 0 10 0;
#X connect 14 0 15 0;
#X connect 15 0 22 0;
#X connect 15 0 27 0;
#X connect 15 0 35 0;
#X connect 16 0 20 0;
#X connect 17 0 21 0;
#X connect 18 0 24 0;
#X connect 18 0 25 0;
#X connect 18 0 35 0;
#X connect 19 0 18 0;
#X connect 20 0 28 0;
#X connect 21 0 28 0;
#X connect 22 0 23 0;
#X connect 23 0 20 1;
#X connect 24 0 23 0;
#X connect 25 0 26 0;
#X connect 26 0 21 1;
#X connect 27 0 26 0;
#X connect 28 0 7 0;
#X connect 29 0 32 0;
#X connect 29 0 36 0;
#X connect 30 0 33 0;
#X connect 30 0 27 0;
#X connect 30 0 24 0;
#X connect 31 0 30 0;
#X connect 32 0 28 0;
#X connect 33 0 34 0;
#X connect 34 0 32 1;
#X connect 35 0 34 0;
#X connect 36 0 37 0;
#X connect 39 0 41 0;
#X connect 39 1 42 0;
#X connect 40 0 39 0;
#X connect 44 0 40 0;
#X connect 45 0 44 0;
#X connect 46 0 47 0;
#X connect 47 0 45 0;
#X connect 47 1 44 1;
