#N canvas 666 53 1337 875 12;
#X obj 661 721 text define wv1;
#X obj 71 294 array define wavetable1;
#X obj 661 744 text define wv2;
#X floatatom 274 349 5 0 0 0 - - - 0;
#X obj 274 458 list prepend;
#X listbox 274 505 17 0 0 0 - - - 0;
#X floatatom 283 428 5 0 0 0 - - - 0;
#X obj 240 436 bng 19 250 50 0 empty empty empty 0 -10 0 12 #fcfcfc #000000 #000000;
#X msg 383 436 set;
#X obj 274 551 text set wv2, f 16;
#X obj 274 395 expr 1 / $f1;
#X msg 646 338 \; wavetable1 sinesum 515 1 0 0.333333 0 0.2 0 0.142857 0 0.111111 0 0.0909091 0 \; wavetable1 normalize;
#X obj 71 360 tabosc4~ wavetable1;
#X floatatom 70 328 5 0 0 0 - - - 0;
#X obj 70 433 output~;
#X obj 661 767 text define wv3;
#X msg 99 585 \; wavetable1 sinesum 515 \$1 \$2 \$3 \$4 \$5 \$6 \$7 \$8 \$9 \$10 \$11 \$12 \$13 \$14 \$15 \$16 \; wavetable1 normalize;
#X msg 91 708 \; wavetable1 sinesum 515 \$1 0 \$3 0 \$5 0 \$7 0 \$9 0 \$11 0 \$13 0 \$15 \; wavetable1 normalize;
#X msg 656 529 \; wavetable1 sinesum 512 1 0 -0.111111 0 0.04 0 -0.0204082 0 0.0123457 0 -0.00826446 \; wavetable1 normalize;
#X text 667 135 Sawtooth;
#X text 646 255 Formula: 1/index;
#X text 646 423 Formula: 1/index (only odd ones);
#X text 656 614 Formula: 1/(sqrt(index) (only odd ones \, + and -);
#N canvas 701 52 811 646 list 0;
#X floatatom 112 73 5 0 0 0 - - - 0;
#X obj 110 185 list prepend;
#X listbox 110 209 9 0 0 0 - - - 0;
#X floatatom 29 158 5 0 0 0 - - - 0;
#X obj 78 190 bng 19 250 50 0 empty empty empty 0 -10 0 12 #fcfcfc #000000 #000000;
#X msg 233 186 set;
#X obj 122 240 text set wv3, f 35;
#X obj 110 119 expr 1 / pow($f1 \, 2);
#X msg 108 279 \; wavetable1 sinesum 512 \$1 0 -\$3 0 \$5 0 -\$7 0 \$9 0 -\$11 \; wavetable1 normalize;
#X connect 0 0 7 0;
#X connect 1 0 2 0;
#X connect 2 0 1 1;
#X connect 2 0 6 0;
#X connect 2 0 8 0;
#X connect 4 0 2 0;
#X connect 5 0 2 0;
#X connect 7 0 3 0;
#X connect 7 0 1 0;
#X restore 447 521 pd list triangle;
#X text 646 306 Square;
#X text 656 487 Triangle;
#X text 313 370 (Construction to collect values in a list);
#X text 657 34 Bandlimited Oscillators;
#X text 67 36 With the message "sinesum" \, PD can shape waveforms in an array according to given volume properties of partial tones.;
#X text 67 66 This allows to create bandlimited Oscillators (waves with limited overtones) \, by creating a waveform and then reading the array out periodically at audio frequency (wavetable synthesis).;
#X text 373 393 formula 1/index;
#X msg 646 156 \; wavetable1 sinesum 515 1 0.5 0.333333 0.25 0.2 0.166667 0.142857 0.125 0.111111 0.1 0.0909091 0.0833333 0.0769231 0.0714286 0.0666667 0.0625 0.0588235 \; \; wavetable1 normalize;
#X text 111 331 freq;
#X text 81 382 wavetable oscillator;
#X text 67 124 this is done via message box: [namearray | sinesum | no of points (power of 2 + 3) | volumes of partials (at indices 1 \, 2 \, 3 \, 4 etc....);
#X msg 73 223 \; wavetable1 normalize;
#X text 233 219 it is important to normalize the array before playing;
#X text 241 235 (or the volume values must not be greater than 1);
#X msg 272 268 \; wavetable1 const 0;
#X msg 71 174 \; wavetable1 sinesum 515 1 0.5 0.25 0.125 \; wavetable1 normalize;
#X connect 3 0 10 0;
#X connect 4 0 5 0;
#X connect 5 0 4 1;
#X connect 5 0 9 0;
#X connect 5 0 16 0;
#X connect 7 0 5 0;
#X connect 8 0 5 0;
#X connect 10 0 6 0;
#X connect 10 0 4 0;
#X connect 12 0 14 0;
#X connect 13 0 12 0;
