#N canvas 552 255 960 493 12;
#X obj 277 155 cos~;
#X obj 277 198 snapshot~;
#X obj 321 149 metro 50;
#X obj 276 281 vsl 19 162 0 1 0 0 empty empty empty 0 -9 0 12 #fcfcfc #000000 #000000 0 1;
#X obj 278 122 sig~;
#X obj 335 113 tgl 19 0 empty empty empty 0 -10 0 12 #fcfcfc #000000 #000000 0 1;
#X floatatom 285 235 5 0 0 0 - - - 0;
#X obj 280 67 * -0.25;
#X obj 502 155 cos~;
#X obj 502 198 snapshot~;
#X obj 503 122 sig~;
#X floatatom 510 235 12 0 0 0 - - - 0;
#X obj 503 97 + 0.25;
#X obj 341 16 hsl 162 19 0 1 0 0 empty empty empty -2 -10 0 12 #fcfcfc #000000 #000000 0 1;
#X obj 505 67 * -0.25;
#X obj 439 276 vsl 19 162 0 1 0 0 empty empty empty 0 -9 0 12 #fcfcfc #000000 #000000 0 1;
#X connect 0 0 1 0;
#X connect 1 0 6 0;
#X connect 2 0 1 0;
#X connect 2 0 9 0;
#X connect 4 0 0 0;
#X connect 5 0 2 0;
#X connect 6 0 3 0;
#X connect 7 0 4 0;
#X connect 8 0 9 0;
#X connect 9 0 11 0;
#X connect 10 0 8 0;
#X connect 11 0 15 0;
#X connect 12 0 10 0;
#X connect 13 0 7 0;
#X connect 13 0 14 0;
#X connect 14 0 12 0;
