#N canvas 347 38 942 801 12;
#X obj 128 251 spigot;
#X obj 31 183 bng 19 250 50 0 empty empty empty 0 -10 0 12 #fcfcfc #000000 #000000;
#X obj 168 217 tgl 19 0 empty empty empty 0 -10 0 12 #fcfcfc #000000 #000000 0 1;
#X obj 37 665 output~;
#X obj 36 370 fluid.pitch~;
#X floatatom 37 421 5 0 0 0 - - - 0;
#X obj 36 394 unpack f f;
#X floatatom 103 422 5 0 0 0 - - - 0;
#X obj 103 445 >= 0.978;
#X obj 103 469 change;
#X obj 37 517 spigot;
#X obj 103 493 tgl 19 0 empty empty empty 0 -10 0 12 #fcfcfc #000000 #000000 0 1;
#X floatatom 157 422 5 0 0 1 threshold - - 0;
#X floatatom 37 546 5 0 0 0 - - - 0;
#N canvas 0 22 450 278 (subpatch) 0;
#X array sample 1.392e+06 float 2;
#X coords 0 1 1.392e+06 -1 200 140 1 0 0;
#X restore 562 37 graph;
#X obj 88 79 soundfiler;
#X obj 31 224 tabplay~ sample;
#X obj 31 248 s~ sig;
#X obj 480 249 r~ sig;
#X obj 36 346 r~ sig;
#X msg 114 329 unit \$1;
#X obj 117 286 vradio 19 1 0 2 empty empty empty 0 -10 0 12 #fcfcfc #000000 #000000 0;
#X text 143 281 0 = hertz;
#X text 141 303 1 = MIDI;
#X text 177 453 Values are gated here;
#X text 175 471 According to the "confidence";
#X text 174 484 output. Change the threshold;
#X text 176 498 to get a more active result.;
#X obj 37 572 osc~;
#X floatatom 479 300 5 0 0 0 - - - 0;
#X obj 483 366 osc~;
#X obj 89 5 loadbang;
#X obj 479 330 mtof;
#X msg 87 28 read -resize ../samples/cello.wav sample \; sample normalize 1;
#X obj 140 620 r~ sig;
#X obj 482 273 sigmund~ -hop 4096 notes -minpower 70 -stabletime 50;
#X connect 0 0 16 0;
#X connect 1 0 16 0;
#X connect 2 0 0 1;
#X connect 4 0 6 0;
#X connect 5 0 10 0;
#X connect 6 0 5 0;
#X connect 6 1 7 0;
#X connect 7 0 8 0;
#X connect 8 0 9 0;
#X connect 9 0 11 0;
#X connect 10 0 13 0;
#X connect 11 0 10 1;
#X connect 12 0 8 1;
#X connect 13 0 28 0;
#X connect 16 0 17 0;
#X connect 16 1 0 0;
#X connect 18 0 35 0;
#X connect 19 0 4 0;
#X connect 20 0 4 0;
#X connect 21 0 20 0;
#X connect 28 0 3 0;
#X connect 29 0 32 0;
#X connect 31 0 33 0;
#X connect 32 0 30 0;
#X connect 33 0 15 0;
#X connect 34 0 3 1;
#X connect 35 0 29 0;
