#N canvas 257 77 1151 758 12;
#X obj 461 94 soundfiler;
#X obj 460 30 loadbang;
#X obj 105 402 phasor~;
#X obj 462 124 s smp-len;
#X obj 105 486 *~;
#X obj 150 466 r smp-len;
#X obj 546 30 bng 19 250 50 0 empty empty empty 0 -10 0 12 #fcfcfc #000000 #000000;
#X obj 105 527 tabread4~ sample;
#X obj 107 113 expr $f1 / $f2;
#X obj 202 84 samplerate~;
#X obj 107 19 r smp-len;
#X obj 107 51 t f b;
#X floatatom 107 145 9 0 0 0 - - - 0;
#X text 188 144 length in seconds;
#X obj 107 176 expr 1/ $f1;
#X floatatom 107 208 10 0 0 0 - - - 0;
#X obj 105 640 dac~ 1 2;
#X obj 105 599 *~;
#X floatatom 126 574 5 0 0 0 - - - 0;
#X text 188 208 freq;
#X obj 123 247 tgl 19 0 empty empty empty 0 -10 0 12 #fcfcfc #000000 #000000 0 1;
#X obj 105 342 *;
#X obj 122 310 t b f;
#X msg 180 359 0;
#N canvas 0 22 450 278 (subpatch) 0;
#X array sample 768000 float 2;
#X coords 0 1 768000 -1 200 140 1 0 0;
#X restore 459 175 graph;
#X floatatom 123 287 5 0 0 0 - - - 0;
#N canvas 527 565 450 300 playhead 0;
#X obj 49 136 snapshot~;
#X obj 50 53 inlet~;
#X obj 121 80 metro 25;
#X obj 120 46 loadbang;
#X obj 49 173 s playhead;
#X connect 0 0 4 0;
#X connect 1 0 0 0;
#X connect 2 0 0 0;
#X connect 3 0 2 0;
#X restore 184 435 pd playhead;
#X obj 462 316 hsl 195 19 0 1 0 0 empty playhead empty -2 -10 0 12 #fcfcfc #000000 #000000 0 1;
#X text 176 282 playrate;
#X text 476 415 Eine Änderung der Playrate (Abspielgeschwindigkeit) geht in digitaler und analoger Audioelektronik immer mit Transposition einher. Um genau zu transponieren \, muss die korrekte Playrate ausgerechnet werden.;
#X msg 460 66 read -resize ../samples/monte.wav sample;
#X connect 0 0 3 0;
#X connect 1 0 30 0;
#X connect 2 0 4 0;
#X connect 2 0 26 0;
#X connect 4 0 7 0;
#X connect 5 0 4 1;
#X connect 6 0 30 0;
#X connect 7 0 17 0;
#X connect 8 0 12 0;
#X connect 9 0 8 1;
#X connect 10 0 11 0;
#X connect 11 0 8 0;
#X connect 11 1 9 0;
#X connect 12 0 14 0;
#X connect 14 0 15 0;
#X connect 15 0 21 0;
#X connect 17 0 16 0;
#X connect 17 0 16 1;
#X connect 18 0 17 1;
#X connect 20 0 25 0;
#X connect 21 0 2 0;
#X connect 22 0 21 0;
#X connect 22 1 21 1;
#X connect 23 0 2 1;
#X connect 25 0 22 0;
#X connect 30 0 0 0;
