#N canvas 33 38 998 485 12;
#X obj 20 126 delwrite~ \$0-delayline 5000;
#X obj 612 303 delread~ \$0-delayline 500;
#X obj 269 378 output~;
#N canvas 702 174 450 300 switch 0;
#X obj 70 76 inlet~;
#X obj 263 78 inlet;
#X obj 71 243 outlet~;
#X obj 134 77 inlet~;
#X obj 73 179 vline~;
#X msg 73 142 1 10;
#X msg 191 144 1 10;
#X msg 119 143 0 10;
#X obj 168 177 vline~;
#X msg 236 146 0 10;
#X obj 73 203 *~;
#X obj 170 207 *~;
#X obj 167 101 sel 0;
#X connect 0 0 10 1;
#X connect 1 0 12 0;
#X connect 3 0 11 1;
#X connect 4 0 10 0;
#X connect 5 0 4 0;
#X connect 6 0 8 0;
#X connect 7 0 4 0;
#X connect 8 0 11 0;
#X connect 9 0 8 0;
#X connect 10 0 2 0;
#X connect 11 0 2 0;
#X connect 12 0 5 0;
#X connect 12 0 9 0;
#X connect 12 1 6 0;
#X connect 12 1 7 0;
#X restore 20 99 pd switch;
#X obj 81 73 hradio 19 1 0 2 empty empty empty 0 -10 0 12 #fcfcfc #000000 #000000 0;
#X obj 20 11 adc~;
#X obj 270 283 delread4~ \$0-delayline 500;
#N canvas 702 174 450 300 switch 0;
#X obj 70 76 inlet~;
#X obj 263 78 inlet;
#X obj 71 243 outlet~;
#X obj 134 77 inlet~;
#X obj 73 179 vline~;
#X msg 73 142 1 10;
#X msg 191 144 1 10;
#X msg 119 143 0 10;
#X obj 168 177 vline~;
#X msg 236 146 0 10;
#X obj 73 203 *~;
#X obj 170 207 *~;
#X obj 167 101 sel 0;
#X connect 0 0 10 1;
#X connect 1 0 12 0;
#X connect 3 0 11 1;
#X connect 4 0 10 0;
#X connect 5 0 4 0;
#X connect 6 0 8 0;
#X connect 7 0 4 0;
#X connect 8 0 11 0;
#X connect 9 0 8 0;
#X connect 10 0 2 0;
#X connect 11 0 2 0;
#X connect 12 0 5 0;
#X connect 12 0 9 0;
#X connect 12 1 6 0;
#X connect 12 1 7 0;
#X restore 269 334 pd switch;
#X obj 348 334 hradio 19 1 0 2 empty empty empty 0 -10 0 12 #fcfcfc #000000 #000000 0;
#X obj 270 44 vsl 19 100 0 1000 0 0 empty empty empty 0 -9 0 12 #fcfcfc #000000 #000000 0 1;
#X floatatom 270 154 5 0 0 0 - - - 0;
#X obj 50 46 osc~ 440;
#X msg 270 205 \$1 \$2;
#X obj 270 231 vline~;
#X text 627 339 delread~ transponiert nicht;
#X text 304 75 Delay-Zeit;
#X text 330 235 Fließender Übergang mit vline~;
#X text 441 46 Bei delread4~ kann die Delay-Zeit über ein Audiosignal gesteuert werden. Diese können zur Transposition von Eingangssignalen verwendet werden. Dabei gilt: Del-Time > höhere Transposition \, Del-Time < tiefere Transposition. Die Geschwindigkeit der Positionsänderung entscheidet die "Stärke" der Transposition.;
#X obj 194 260 snapshot~;
#X floatatom 194 287 5 0 0 0 - - - 0;
#X obj 194 233 metro 20;
#X obj 194 206 tgl 19 0 empty empty empty 0 -10 0 12 #fcfcfc #000000 #000000 0 1;
#X obj 270 179 pack f 1000;
#X obj 610 266 line;
#X connect 3 0 0 0;
#X connect 4 0 3 2;
#X connect 5 0 3 0;
#X connect 6 0 7 0;
#X connect 7 0 2 0;
#X connect 7 0 2 1;
#X connect 8 0 7 2;
#X connect 9 0 10 0;
#X connect 10 0 22 0;
#X connect 11 0 3 1;
#X connect 12 0 13 0;
#X connect 13 0 18 0;
#X connect 13 0 6 0;
#X connect 18 0 19 0;
#X connect 20 0 18 0;
#X connect 21 0 20 0;
#X connect 22 0 12 0;
#X connect 23 0 1 0;
