#N canvas 97 126 1081 641 12;
#X obj 72 253 delwrite~ \$0-delayline 5000;
#N canvas 702 174 618 457 switch 0;
#X obj 90 212 inlet~;
#X obj 451 33 inlet;
#X obj 70 305 outlet~;
#X obj 226 222 inlet~;
#X obj 73 179 vline~;
#X msg 73 142 1 10;
#X msg 231 144 1 10;
#X msg 119 143 0 10;
#X obj 208 177 vline~;
#X msg 276 146 0 10;
#X obj 73 238 *~;
#X obj 209 254 *~;
#X obj 167 101 sel 0;
#X obj 234 102 sel 1;
#X obj 355 101 sel 2;
#X msg 371 144 1 10;
#X obj 348 177 vline~;
#X msg 416 146 0 10;
#X obj 350 258 *~;
#X obj 366 226 inlet~;
#X connect 0 0 10 1;
#X connect 1 0 12 0;
#X connect 1 0 13 0;
#X connect 1 0 14 0;
#X connect 3 0 11 1;
#X connect 4 0 10 0;
#X connect 5 0 4 0;
#X connect 6 0 8 0;
#X connect 7 0 4 0;
#X connect 8 0 11 0;
#X connect 9 0 8 0;
#X connect 10 0 2 0;
#X connect 11 0 2 0;
#X connect 12 0 5 0;
#X connect 12 1 7 0;
#X connect 13 0 6 0;
#X connect 13 1 9 0;
#X connect 14 0 15 0;
#X connect 14 1 17 0;
#X connect 15 0 16 0;
#X connect 16 0 18 0;
#X connect 17 0 16 0;
#X connect 18 0 2 0;
#X connect 19 0 18 1;
#X restore 49 179 pd switch;
#X obj 128 180 hradio 19 1 0 3 empty empty empty 0 -10 0 12 #fcfcfc #000000 #000000 0;
#X obj 51 34 adc~;
#X obj 67 93 osc~ 440;
#X floatatom 107 115 5 0 1 0 - - - 0;
#X obj 67 141 *~ 0.5;
#X obj 52 400 bng 15 250 50 0 empty empty load 18 8 0 12 #fcfcfc #000000 #000000;
#X obj 52 423 openpanel;
#X obj 52 477 soundfiler;
#X obj 171 75 bng 19 250 50 0 empty empty empty 0 -10 0 12 #fcfcfc #000000 #000000;
#X obj 224 147 spigot;
#X obj 263 121 tgl 19 0 empty empty empty 0 -10 0 12 #fcfcfc #000000 #000000 0 1;
#X obj 328 340 *~ 0;
#X obj 353 319 tgl 15 0 empty empty empty 17 7 0 10 #fcfcfc #000000 #000000 0 1;
#X obj 327 222 phasor~ 1;
#X obj 328 251 *~ 250;
#X obj 448 98 vsl 15 128 0 5000 0 0 empty empty Fenster 0 -9 0 10 #fcfcfc #000000 #000000 0 1;
#X floatatom 448 233 5 0 0 0 - - - 0;
#X obj 327 62 vsl 15 128 -4 4 0 0 empty empty empty 0 -9 0 10 #fcfcfc #000000 #000000 0 1;
#X floatatom 327 198 5 0 0 0 - - - 0;
#X obj 715 265 snapshot~;
#X floatatom 715 289 10 0 0 0 - - - 0;
#X obj 715 209 tgl 19 0 empty empty empty 0 -10 0 12 #fcfcfc #000000 #000000 0 1;
#X obj 715 233 metro 50;
#X msg 376 193 0;
#X msg 323 27 0;
#X msg 360 28 2;
#X obj 328 286 delread4~ \$0-delayline 5000;
#X obj 50 313 *~ 0;
#X obj 75 292 tgl 15 0 empty empty empty 17 7 0 10 #fcfcfc #000000 #000000 0 1;
#X obj 309 380 +~;
#X obj 309 404 output~;
#X msg 399 29 -4;
#X msg 479 111 250;
#X text 359 170 phase reset;
#X text 619 40 Um eine kontinuierliche (und steuerbare) Transposition zu erreichen \, muss die sich die Delay-Zeit kontinuierlich verändern. Das kann mittels eines [phasor~]-Objekts gemacht werden. [phasor~] geht immer von 0 bis zur "Fenstergröße" und springt dann (hörbar) zurück.;
#X msg 52 449 read -resize \$1 sample2;
#X obj 52 508 table sample2;
#X obj 172 110 tabplay~ sample2, f 8;
#N canvas 0 22 450 278 (subpatch) 0;
#X array phasor1 2000 float 2;
#X coords 0 5000 2000 -5000 200 140 1 0 0;
#X restore 715 335 graph;
#X obj 792 262 tabwrite~ phasor1;
#X connect 1 0 0 0;
#X connect 1 0 29 0;
#X connect 2 0 1 3;
#X connect 3 0 1 0;
#X connect 4 0 6 0;
#X connect 5 0 6 1;
#X connect 6 0 1 1;
#X connect 7 0 8 0;
#X connect 8 0 37 0;
#X connect 10 0 39 0;
#X connect 11 0 10 0;
#X connect 12 0 11 1;
#X connect 13 0 31 1;
#X connect 14 0 13 1;
#X connect 15 0 16 0;
#X connect 16 0 21 0;
#X connect 16 0 28 0;
#X connect 16 0 41 0;
#X connect 17 0 18 0;
#X connect 18 0 16 1;
#X connect 19 0 20 0;
#X connect 20 0 15 0;
#X connect 21 0 22 0;
#X connect 23 0 24 0;
#X connect 24 0 21 0;
#X connect 24 0 41 0;
#X connect 25 0 15 1;
#X connect 26 0 19 0;
#X connect 27 0 19 0;
#X connect 28 0 13 0;
#X connect 29 0 31 0;
#X connect 30 0 29 1;
#X connect 31 0 32 0;
#X connect 33 0 19 0;
#X connect 34 0 17 0;
#X connect 37 0 9 0;
#X connect 39 0 1 2;
#X connect 39 1 11 0;
