#N canvas 202 42 795 557 12;
#N canvas 702 174 618 457 switch 0;
#X obj 90 212 inlet~;
#X obj 451 33 inlet;
#X obj 70 305 outlet~;
#X obj 226 222 inlet~;
#X obj 73 179 vline~;
#X msg 73 142 1 10;
#X msg 231 144 1 10;
#X msg 119 143 0 10;
#X obj 208 177 vline~;
#X msg 276 146 0 10;
#X obj 73 238 *~;
#X obj 209 254 *~;
#X obj 167 101 sel 0;
#X obj 234 102 sel 1;
#X obj 355 101 sel 2;
#X msg 371 144 1 10;
#X obj 348 177 vline~;
#X msg 416 146 0 10;
#X obj 350 258 *~;
#X obj 366 226 inlet~;
#X connect 0 0 10 1;
#X connect 1 0 12 0;
#X connect 1 0 13 0;
#X connect 1 0 14 0;
#X connect 3 0 11 1;
#X connect 4 0 10 0;
#X connect 5 0 4 0;
#X connect 6 0 8 0;
#X connect 7 0 4 0;
#X connect 8 0 11 0;
#X connect 9 0 8 0;
#X connect 10 0 2 0;
#X connect 11 0 2 0;
#X connect 12 0 5 0;
#X connect 12 1 7 0;
#X connect 13 0 6 0;
#X connect 13 1 9 0;
#X connect 14 0 15 0;
#X connect 14 1 17 0;
#X connect 15 0 16 0;
#X connect 16 0 18 0;
#X connect 17 0 16 0;
#X connect 18 0 2 0;
#X connect 19 0 18 1;
#X restore 79 175 pd switch;
#X obj 158 176 hradio 19 1 0 3 empty empty empty 0 -10 0 12 #fcfcfc #000000 #000000 0;
#X obj 81 30 adc~;
#X obj 97 89 osc~ 440;
#X floatatom 137 111 5 0 1 0 - - - 0;
#X obj 97 137 *~ 0.5;
#X obj 201 71 bng 19 250 50 0 empty empty empty 0 -10 0 12 #fcfcfc #000000 #000000;
#X obj 254 143 spigot;
#X obj 293 117 tgl 19 0 empty empty empty 0 -10 0 12 #fcfcfc #000000 #000000 0 1;
#X obj 202 106 tabplay~ sample3, f 8;
#X floatatom 391 45 5 0 0 2 Halbton_Transposition - - 0;
#N canvas 675 220 736 470 transp 0;
#X obj 39 174 - 1;
#X obj 39 205 * -1;
#X floatatom 83 175 10 0 0 0 - - - 0;
#X floatatom 84 209 5 0 0 0 - - - 0;
#X obj 40 327 / 0.25;
#X floatatom 40 351 5 0 0 0 - - - 0;
#X floatatom 39 147 5 0 0 0 - - - 0;
#X obj 38 119 pow 2;
#X obj 67 93 / 12;
#X obj 37 67 t b f;
#X msg 37 92 2;
#X obj 82 247 r fenster;
#X obj 82 271 / 1000;
#X obj 82 299 t b f;
#X obj 37 32 inlet;
#X obj 39 383 outlet;
#X text 165 243 fenster (in sek!);
#X text 254 16 Formel für Halbtontransposition zu Abspielgeschwindigkeit:;
#X text 255 33 2 ^ (x/12);
#X text 87 147 -> playback rate;
#X text 130 210 -> inversierter Wert für [phasor~];
#X text 122 329 geteilt durch Fensterdauer;
#X text 254 52 https://en.wikipedia.org/wiki/Twelfth_root_of_two;
#X connect 0 0 1 0;
#X connect 0 0 2 0;
#X connect 1 0 3 0;
#X connect 1 0 4 0;
#X connect 4 0 5 0;
#X connect 5 0 15 0;
#X connect 6 0 0 0;
#X connect 7 0 6 0;
#X connect 8 0 7 1;
#X connect 9 0 10 0;
#X connect 9 1 8 0;
#X connect 10 0 7 0;
#X connect 11 0 12 0;
#X connect 12 0 13 0;
#X connect 13 0 4 0;
#X connect 13 1 4 1;
#X connect 14 0 9 0;
#X restore 391 73 pd transp;
#X obj 391 102 phasor~;
#X obj 602 86 s fenster;
#X floatatom 602 59 6 0 0 2 Fenster\ in\ msec - - 0;
#X obj 391 336 output~;
#X obj 391 222 *~;
#X obj 409 144 r fenster;
#X obj 409 168 pack f 200;
#X obj 409 192 line~;
#X text 423 222 * Fenstergröße;
#X msg 480 78 0;
#X obj 79 216 delwrite~ \$0-delay 500;
#X obj 391 248 delread4~ \$0-delay 500, f 10;
#X connect 0 0 22 0;
#X connect 1 0 0 3;
#X connect 2 0 0 0;
#X connect 3 0 5 0;
#X connect 4 0 5 1;
#X connect 5 0 0 1;
#X connect 6 0 9 0;
#X connect 7 0 6 0;
#X connect 8 0 7 1;
#X connect 9 0 0 2;
#X connect 9 1 7 0;
#X connect 10 0 11 0;
#X connect 11 0 12 0;
#X connect 12 0 16 0;
#X connect 14 0 13 0;
#X connect 16 0 23 0;
#X connect 17 0 18 0;
#X connect 18 0 19 0;
#X connect 19 0 16 1;
#X connect 21 0 12 1;
#X connect 23 0 15 0;
#X connect 23 0 15 1;
