#N canvas 138 38 1097 835 12;
#X obj 205 273 bng 19 250 50 0 empty empty empty 0 -10 0 12 #fcfcfc #000000 #000000;
#X obj 258 273 bng 19 250 50 0 empty empty empty 0 -10 0 12 #fcfcfc #000000 #000000;
#X obj 311 273 bng 19 250 50 0 empty empty empty 0 -10 0 12 #fcfcfc #000000 #000000;
#X obj 202 83 tgl 19 0 empty empty empty 0 -10 0 12 #fcfcfc #000000 #000000 0 1;
#X obj 202 116 metro 250;
#X text 28 350 Wahrscheinlichkeit;
#X text 191 349 50%;
#X obj 258 244 moses 80;
#X text 255 348 30%;
#X text 311 349 20%;
#X obj 196 307 print a;
#X obj 258 307 print b;
#X obj 323 306 print c;
#X text 19 39 "Weighted Random" (gewichteter Zufall) mit 2 [moses];
#X obj 202 151 random 101;
#X obj 205 215 moses 50;
#X floatatom 263 75 5 0 0 0 - - - 0;
#X floatatom 252 173 5 0 0 0 - - - 0;
#X floatatom 309 207 5 0 0 0 - - - 0;
#X connect 0 0 10 0;
#X connect 1 0 11 0;
#X connect 2 0 12 0;
#X connect 3 0 4 0;
#X connect 4 0 14 0;
#X connect 7 0 1 0;
#X connect 7 1 2 0;
#X connect 14 0 15 0;
#X connect 15 0 0 0;
#X connect 15 1 7 0;
#X connect 16 0 4 1;
#X connect 17 0 15 1;
#X connect 18 0 7 1;
