#N canvas 80 38 1512 821 12;
#X obj 91 199 send something;
#X obj 441 202 send anotherthing;
#X obj 422 293 receive anotherthing;
#X floatatom 94 125 5 0 0 0 - - - 0;
#X floatatom 101 341 5 0 0 0 - - - 0;
#X obj 65 264 receive something;
#X symbolatom 142 341 10 0 0 0 - - - 0;
#X obj 138 135 bng 19 250 50 0 empty empty empty 0 -10 0 12 #fcfcfc #000000 #000000;
#X obj 63 400 bng 19 250 50 0 empty empty empty 0 -10 0 12 #fcfcfc #000000 #000000;
#X obj 86 385 print something;
#X floatatom 525 152 5 0 0 0 - - - 0;
#X obj 468 138 bng 19 250 50 0 empty empty empty 0 -10 0 12 #fcfcfc #000000 #000000;
#X msg 431 89 symbol doggo;
#X msg 62 92 symbol kittycat;
#X floatatom 461 342 5 0 0 0 - - - 0;
#X symbolatom 502 342 10 0 0 0 - - - 0;
#X obj 418 354 bng 19 250 50 0 empty empty empty 0 -10 0 12 #fcfcfc #000000 #000000;
#X obj 455 387 print anotherthing;
#X msg 114 495 \; something 62 \; anotherthing 100;
#X floatatom 666 270 5 0 0 0 - - - 0;
#X floatatom 663 354 5 0 0 0 - - - 0;
#X floatatom 775 228 5 0 0 0 - hello - 0;
#X obj 778 292 vsl 19 162 0 127 0 0 empty slider empty 0 -9 0 12 #fcfcfc #000000 #000000 0 1;
#X floatatom 1072 249 5 0 0 0 - - - 0;
#X obj 1072 228 r numberbox2;
#X obj 1077 354 r slider2;
#X obj 663 374 s slider;
#X obj 923 292 vsl 19 162 0 127 0 0 slider2 empty empty 0 -9 0 12 #fcfcfc #000000 #000000 0 1;
#X floatatom 1077 375 5 0 0 0 - - - 0;
#X floatatom 924 238 5 0 0 0 - - numberbox2 0;
#X obj 757 514 value y;
#X obj 680 508 send y;
#X floatatom 680 480 5 0 0 0 - - - 0;
#X obj 757 483 bng 19 250 50 0 empty empty empty 17 7 0 10 #dfdfdf #000000 #000000;
#X floatatom 757 543 5 0 0 0 - - - 0;
#X obj 831 518 send array;
#N canvas 0 22 450 278 (subpatch) 0;
#X array array 7 float 2;
#X coords 0 1.1 7 -1.1 100 50 1 0 0;
#X restore 928 480 graph;
#X text 663 190 send;
#X text 770 189 recieve;
#X text 929 187 send;
#X text 1036 186 recieve;
#X text 666 95 GUI-Objekte können Messages empfangen und senden (unter "Eigenschaftgen" setzbar).;
#X text 667 130 Wenn Gui-Objekte Send- oder Recivedaten epfangen können \, verschwindet der In- bzw. Outlet;
#X obj 666 290 s hello;
#X text 271 508 semicolon!;
#X msg 616 616 \; hello -234;
#X obj 1180 289 vsl 19 162 0 127 0 0 slider slider2 empty 0 -9 0 12 #fcfcfc #000000 #000000 0 1;
#X obj 211 199 s;
#X msg 112 606 \; something symbol hello \; anotherthing 1234;
#X msg 831 472 0 -1 0 1 0 -0.5 0 1, f 9;
#X connect 2 0 16 0;
#X connect 2 0 14 0;
#X connect 2 0 15 0;
#X connect 2 0 17 0;
#X connect 3 0 0 0;
#X connect 5 0 4 0;
#X connect 5 0 6 0;
#X connect 5 0 8 0;
#X connect 5 0 9 0;
#X connect 7 0 0 0;
#X connect 10 0 1 0;
#X connect 11 0 1 0;
#X connect 12 0 1 0;
#X connect 13 0 0 0;
#X connect 19 0 43 0;
#X connect 20 0 26 0;
#X connect 24 0 23 0;
#X connect 25 0 28 0;
#X connect 30 0 34 0;
#X connect 32 0 31 0;
#X connect 33 0 30 0;
#X connect 49 0 35 0;
