#N canvas 208 246 968 325 12;
#N canvas 237 275 450 300 osc 0;
#X obj 78 54 inlet;
#X obj 77 99 osc~;
#X msg 152 130 1 5 \, 0 500 5;
#X obj 150 171 vline~;
#X obj 77 203 *~;
#X obj 78 237 outlet~;
#X obj 156 37 inlet;
#X connect 0 0 1 0;
#X connect 1 0 4 0;
#X connect 2 0 3 0;
#X connect 3 0 4 1;
#X connect 4 0 5 0;
#X connect 6 0 2 0;
#X restore 220 193 pd osc;
#X obj 215 237 dac~;
#X text 67 31 weighted random auf 4 oscillatoren. randomrange soll mit sends eingestellt werden;
#X connect 0 0 1 0;
