#N canvas 504 58 1094 646 12;
#X obj 132 564 output~;
#N canvas 562 153 738 438 snare 0;
#X obj 128 33 inlet;
#X obj 129 203 vline~;
#X obj 129 239 osc~;
#X obj 130 352 *~;
#X msg 295 172 1 \, 0 500;
#X obj 295 196 vline~;
#X obj 295 220 pow~ 2;
#X obj 127 379 outlet~;
#X obj 129 272 expr~ tanh($v1);
#X obj 476 167 vline~;
#X obj 476 191 pow~ 2;
#X obj 129 306 +~;
#X obj 433 218 *~;
#X obj 425 35 noise~;
#X msg 476 143 1 \, 0 250;
#X msg 128 174 400 \, \$1 20;
#X obj 425 92 lop~ 1000;
#X obj 128 57 t b b b b;
#X obj 127 133 expr $f1 + random(-10 \, 10);
#X obj 127 102 200;
#X obj 231 47 inlet;
#X obj 488 60 expr random(500 \, 2000);
#X connect 0 0 17 0;
#X connect 1 0 2 0;
#X connect 2 0 8 0;
#X connect 3 0 7 0;
#X connect 4 0 5 0;
#X connect 5 0 6 0;
#X connect 6 0 3 1;
#X connect 8 0 11 0;
#X connect 9 0 10 0;
#X connect 10 0 12 1;
#X connect 11 0 3 0;
#X connect 12 0 11 1;
#X connect 13 0 16 0;
#X connect 14 0 9 0;
#X connect 15 0 1 0;
#X connect 16 0 12 0;
#X connect 17 0 19 0;
#X connect 17 1 4 0;
#X connect 17 2 14 0;
#X connect 17 3 21 0;
#X connect 18 0 15 0;
#X connect 19 0 18 0;
#X connect 20 0 19 1;
#X connect 21 0 16 1;
#X restore 343 453 pd snare;
#X obj 138 25 tgl 19 0 empty empty empty 0 -10 0 12 #fcfcfc #000000 #000000 0 1;
#X floatatom 198 15 5 0 0 0 - - - 0;
#N canvas 443 180 738 411 clap 0;
#X obj 248 2 inlet;
#X obj 127 351 outlet~;
#X obj 231 194 vline~;
#X obj 231 218 pow~ 2;
#X obj 124 264 +~;
#X obj 124 237 *~;
#X obj 118 36 noise~;
#X obj 367 169 vline~;
#X obj 367 193 pow~ 2;
#X obj 437 222 *~;
#X obj 170 107 line~;
#X obj 543 87 line~;
#X obj 248 33 t b b b b;
#X obj 477 87 noise~;
#X msg 170 75 2000 \, 1000 20;
#X msg 543 58 2000 \, 1000 20;
#X msg 231 170 1 \, 0 150;
#X msg 367 145 1 \, 0 250;
#X obj 477 116 vcf~ 6;
#X obj 118 138 vcf~ 6;
#X obj 124 291 *~ 2;
#X obj 367 121 delay 50;
#X connect 0 0 12 0;
#X connect 2 0 3 0;
#X connect 3 0 5 1;
#X connect 4 0 20 0;
#X connect 5 0 4 0;
#X connect 6 0 19 0;
#X connect 7 0 8 0;
#X connect 8 0 9 0;
#X connect 9 0 4 1;
#X connect 10 0 19 1;
#X connect 11 0 18 1;
#X connect 12 0 14 0;
#X connect 12 1 16 0;
#X connect 12 2 21 0;
#X connect 12 3 15 0;
#X connect 13 0 18 0;
#X connect 14 0 10 0;
#X connect 15 0 11 0;
#X connect 16 0 2 0;
#X connect 17 0 7 0;
#X connect 18 0 9 1;
#X connect 19 0 5 0;
#X connect 20 0 1 0;
#X connect 21 0 17 0;
#X restore 434 453 pd clap;
#N canvas 757 224 450 300 kick 0;
#X obj 102 25 inlet;
#X msg 102 62 0 \, 1 200;
#X obj 102 86 line~;
#X obj 102 110 sqrt~;
#X obj 102 134 *~ 20;
#X obj 102 158 cos~;
#X obj 102 182 outlet~;
#X connect 0 0 1 0;
#X connect 1 0 2 0;
#X connect 2 0 3 0;
#X connect 3 0 4 0;
#X connect 4 0 5 0;
#X connect 5 0 6 0;
#X restore 133 453 pd kick;
#N canvas 659 161 467 362 trashycym 0;
#X obj 32 74 noise~;
#X obj 44 134 delwrite~ noise 100;
#X obj 232 118 delread~ noise 100;
#X obj 32 218 +~;
#X msg 176 236 1 4 \, 0 496 4;
#X obj 176 260 vline~;
#X obj 176 284 pow~ 2;
#X obj 32 254 *~;
#X obj 298 165 delread~ noise 100;
#X obj 175 4 inlet;
#X obj 32 317 outlet~;
#X obj 176 38 t b b b;
#X obj 232 90 random 100;
#X obj 298 143 random 100;
#X obj 32 104 hip~ 5000;
#X obj 32 290 *~ 0.5;
#X connect 0 0 14 0;
#X connect 2 0 3 1;
#X connect 3 0 7 0;
#X connect 4 0 5 0;
#X connect 5 0 6 0;
#X connect 6 0 7 1;
#X connect 7 0 15 0;
#X connect 8 0 3 1;
#X connect 9 0 11 0;
#X connect 11 0 4 0;
#X connect 11 1 12 0;
#X connect 11 2 13 0;
#X connect 12 0 2 0;
#X connect 13 0 8 0;
#X connect 14 0 1 0;
#X connect 14 0 3 0;
#X connect 15 0 10 0;
#X restore 224 453 pd trashycym;
#X obj 138 49 metro 125;
#X obj 400 379 mtof;
#X obj 138 307 s kick;
#X obj 193 307 s cym;
#X obj 245 307 s snare;
#X obj 303 307 s clap;
#X obj 133 399 r kick;
#X obj 223 391 r cym;
#X obj 342 393 r snare;
#X obj 432 408 r clap;
#X obj 138 80 random 101;
#X obj 139 137 moses 25;
#X obj 246 262 moses 75;
#N canvas 63 101 458 352 pan 0;
#X obj 90 168 cos~;
#X obj 218 168 cos~;
#X obj 91 81 * -0.25;
#X obj 219 81 expr 0.25 - ($f1 * 0.25);
#X obj 220 30 inlet;
#X obj 91 213 *~;
#X obj 219 213 *~;
#X obj 73 20 inlet~;
#X obj 91 237 outlet~;
#X obj 219 237 outlet~;
#X obj 90 138 line~;
#X msg 92 110 \$1 10;
#X obj 216 140 line~;
#X msg 218 112 \$1 10;
#X connect 0 0 5 0;
#X connect 1 0 6 0;
#X connect 2 0 11 0;
#X connect 3 0 13 0;
#X connect 4 0 2 0;
#X connect 4 0 3 0;
#X connect 5 0 8 0;
#X connect 6 0 9 0;
#X connect 7 0 5 1;
#X connect 7 0 6 1;
#X connect 10 0 0 0;
#X connect 11 0 10 0;
#X connect 12 0 1 0;
#X connect 13 0 12 0;
#X restore 133 515 pd pan;
#X obj 133 425 bng 19 250 50 0 empty empty empty 0 -10 0 12 #fcfcfc #000000 #000000;
#X obj 175 491 hsl 50 10 0 1 0 0 empty empty empty -2 -10 0 12 #fcfcfc #000000 #000000 0 1;
#N canvas 63 101 458 352 pan 0;
#X obj 90 168 cos~;
#X obj 218 168 cos~;
#X obj 91 81 * -0.25;
#X obj 219 81 expr 0.25 - ($f1 * 0.25);
#X obj 220 30 inlet;
#X obj 91 213 *~;
#X obj 219 213 *~;
#X obj 73 20 inlet~;
#X obj 91 237 outlet~;
#X obj 219 237 outlet~;
#X obj 90 138 line~;
#X msg 92 110 \$1 10;
#X obj 216 140 line~;
#X msg 218 112 \$1 10;
#X connect 0 0 5 0;
#X connect 1 0 6 0;
#X connect 2 0 11 0;
#X connect 3 0 13 0;
#X connect 4 0 2 0;
#X connect 4 0 3 0;
#X connect 5 0 8 0;
#X connect 6 0 9 0;
#X connect 7 0 5 1;
#X connect 7 0 6 1;
#X connect 10 0 0 0;
#X connect 11 0 10 0;
#X connect 12 0 1 0;
#X connect 13 0 12 0;
#X restore 223 512 pd pan;
#X obj 265 488 hsl 50 10 0 1 0 0 empty empty empty -2 -10 0 12 #fcfcfc #000000 #000000 0 1;
#N canvas 63 101 458 352 pan 0;
#X obj 90 168 cos~;
#X obj 218 168 cos~;
#X obj 91 81 * -0.25;
#X obj 219 81 expr 0.25 - ($f1 * 0.25);
#X obj 220 30 inlet;
#X obj 91 213 *~;
#X obj 219 213 *~;
#X obj 73 20 inlet~;
#X obj 91 237 outlet~;
#X obj 219 237 outlet~;
#X obj 90 138 line~;
#X msg 92 110 \$1 10;
#X obj 216 140 line~;
#X msg 218 112 \$1 10;
#X connect 0 0 5 0;
#X connect 1 0 6 0;
#X connect 2 0 11 0;
#X connect 3 0 13 0;
#X connect 4 0 2 0;
#X connect 4 0 3 0;
#X connect 5 0 8 0;
#X connect 6 0 9 0;
#X connect 7 0 5 1;
#X connect 7 0 6 1;
#X connect 10 0 0 0;
#X connect 11 0 10 0;
#X connect 12 0 1 0;
#X connect 13 0 12 0;
#X restore 323 521 pd pan;
#X obj 365 497 hsl 50 10 0 1 0 0 empty empty empty -2 -10 0 12 #fcfcfc #000000 #000000 0 1;
#N canvas 63 101 458 352 pan 0;
#X obj 90 168 cos~;
#X obj 218 168 cos~;
#X obj 91 81 * -0.25;
#X obj 219 81 expr 0.25 - ($f1 * 0.25);
#X obj 220 30 inlet;
#X obj 91 213 *~;
#X obj 219 213 *~;
#X obj 73 20 inlet~;
#X obj 91 237 outlet~;
#X obj 219 237 outlet~;
#X obj 90 138 line~;
#X msg 92 110 \$1 10;
#X obj 216 140 line~;
#X msg 218 112 \$1 10;
#X connect 0 0 5 0;
#X connect 1 0 6 0;
#X connect 2 0 11 0;
#X connect 3 0 13 0;
#X connect 4 0 2 0;
#X connect 4 0 3 0;
#X connect 5 0 8 0;
#X connect 6 0 9 0;
#X connect 7 0 5 1;
#X connect 7 0 6 1;
#X connect 10 0 0 0;
#X connect 11 0 10 0;
#X connect 12 0 1 0;
#X connect 13 0 12 0;
#X restore 432 526 pd pan;
#X obj 474 502 hsl 50 10 0 1 0 0 empty empty empty -2 -10 0 12 #fcfcfc #000000 #000000 0 1;
#X floatatom 192 106 5 0 0 0 - - - 0;
#X floatatom 247 114 5 0 0 0 - - - 0;
#X floatatom 297 112 5 0 0 0 - - - 0;
#X obj 222 420 bng 19 250 50 0 empty empty empty 0 -10 0 12 #fcfcfc #000000 #000000;
#X obj 193 228 moses 90;
#X obj 344 423 bng 19 250 50 0 empty empty empty 0 -10 0 12 #fcfcfc #000000 #000000;
#X obj 431 429 bng 19 250 50 0 empty empty empty 0 -10 0 12 #fcfcfc #000000 #000000;
#N canvas 342 273 789 541 percent 0;
#X restore 831 138 pd percent;
#X obj 400 351 expr random (38 \, 71);
#X floatatom 391 230 5 0 0 0 - - - 0;
#X obj 391 206 expr $f2 - $f1;
#X obj 444 173 t b f;
#X floatatom 528 247 5 0 0 0 - - - 0;
#X obj 528 223 expr $f2 - $f1;
#X obj 581 190 t b f;
#X obj 655 224 expr 100 - $f1;
#X floatatom 656 258 5 0 0 0 - - - 0;
#X connect 1 0 25 0;
#X connect 2 0 7 0;
#X connect 3 0 7 1;
#X connect 4 0 27 0;
#X connect 5 0 20 0;
#X connect 6 0 23 0;
#X connect 7 0 17 0;
#X connect 8 0 1 1;
#X connect 13 0 21 0;
#X connect 14 0 32 0;
#X connect 15 0 34 0;
#X connect 16 0 35 0;
#X connect 17 0 18 0;
#X connect 18 0 9 0;
#X connect 18 1 33 0;
#X connect 19 0 11 0;
#X connect 19 1 12 0;
#X connect 20 0 0 0;
#X connect 20 1 0 1;
#X connect 21 0 5 0;
#X connect 22 0 20 1;
#X connect 23 0 0 0;
#X connect 23 1 0 1;
#X connect 24 0 23 1;
#X connect 25 0 0 0;
#X connect 25 1 0 1;
#X connect 26 0 25 1;
#X connect 27 0 0 0;
#X connect 27 1 0 1;
#X connect 28 0 27 1;
#X connect 29 0 18 1;
#X connect 29 0 39 0;
#X connect 30 0 33 1;
#X connect 30 0 40 0;
#X connect 30 0 42 0;
#X connect 31 0 19 1;
#X connect 31 0 43 0;
#X connect 31 0 44 0;
#X connect 32 0 6 0;
#X connect 33 0 10 0;
#X connect 33 1 19 0;
#X connect 34 0 1 0;
#X connect 35 0 4 0;
#X connect 37 0 8 0;
#X connect 39 0 38 0;
#X connect 40 0 39 0;
#X connect 40 1 39 1;
#X connect 42 0 41 0;
#X connect 43 0 42 0;
#X connect 43 1 42 1;
#X connect 44 0 45 0;
