#N canvas 0 38 1512 802 12;
#X obj 134 766 output~;
#N canvas 774 53 738 438 snare 0;
#X obj 128 33 inlet;
#X obj 129 203 vline~;
#X obj 129 239 osc~;
#X obj 130 352 *~;
#X msg 295 172 1 \, 0 500;
#X obj 295 196 vline~;
#X obj 295 220 pow~ 2;
#X obj 127 379 outlet~;
#X obj 129 272 expr~ tanh($v1);
#X obj 476 167 vline~;
#X obj 476 191 pow~ 2;
#X obj 129 306 +~;
#X obj 433 218 *~;
#X obj 425 35 noise~;
#X msg 476 143 1 \, 0 250;
#X msg 128 174 400 \, \$1 20;
#X obj 425 92 lop~ 1000;
#X obj 128 57 t b b b b;
#X obj 127 133 expr $f1 + random(-10 \, 10);
#X obj 231 47 inlet;
#X obj 488 60 expr random(500 \, 2000);
#X obj 127 102 200;
#X connect 0 0 17 0;
#X connect 1 0 2 0;
#X connect 2 0 8 0;
#X connect 3 0 7 0;
#X connect 4 0 5 0;
#X connect 5 0 6 0;
#X connect 6 0 3 1;
#X connect 8 0 11 0;
#X connect 9 0 10 0;
#X connect 10 0 12 1;
#X connect 11 0 3 0;
#X connect 12 0 11 1;
#X connect 13 0 16 0;
#X connect 14 0 9 0;
#X connect 15 0 1 0;
#X connect 16 0 12 0;
#X connect 17 0 21 0;
#X connect 17 1 4 0;
#X connect 17 2 14 0;
#X connect 17 3 20 0;
#X connect 18 0 15 0;
#X connect 19 0 21 1;
#X connect 20 0 16 1;
#X connect 21 0 18 0;
#X restore 426 634 pd snare;
#N canvas 443 180 738 411 clap 0;
#X obj 248 2 inlet;
#X obj 127 351 outlet~;
#X obj 231 194 vline~;
#X obj 231 218 pow~ 2;
#X obj 124 264 +~;
#X obj 124 237 *~;
#X obj 118 36 noise~;
#X obj 367 169 vline~;
#X obj 367 193 pow~ 2;
#X obj 437 222 *~;
#X obj 170 107 line~;
#X obj 543 87 line~;
#X obj 248 33 t b b b b;
#X obj 477 87 noise~;
#X msg 231 170 1 \, 0 150;
#X msg 367 145 1 \, 0 250;
#X obj 477 116 vcf~ 6;
#X obj 118 138 vcf~ 6;
#X obj 367 121 delay 50;
#X obj 124 291 *~ 3;
#X msg 170 75 3000 \, 1000 20;
#X msg 543 58 3000 \, 1000 20;
#X connect 0 0 12 0;
#X connect 2 0 3 0;
#X connect 3 0 5 1;
#X connect 4 0 19 0;
#X connect 5 0 4 0;
#X connect 6 0 17 0;
#X connect 7 0 8 0;
#X connect 8 0 9 0;
#X connect 9 0 4 1;
#X connect 10 0 17 1;
#X connect 11 0 16 1;
#X connect 12 0 20 0;
#X connect 12 1 14 0;
#X connect 12 2 18 0;
#X connect 12 3 21 0;
#X connect 13 0 16 0;
#X connect 14 0 2 0;
#X connect 15 0 7 0;
#X connect 16 0 9 1;
#X connect 17 0 5 0;
#X connect 18 0 15 0;
#X connect 19 0 1 0;
#X connect 20 0 10 0;
#X connect 21 0 11 0;
#X restore 602 579 pd clap;
#N canvas 757 224 211 259 kick 0;
#X obj 102 25 inlet;
#X msg 102 55 0 \, 1 200;
#X obj 102 79 line~;
#X obj 102 103 sqrt~;
#X obj 102 127 *~ 20;
#X obj 102 151 cos~;
#X obj 102 186 outlet~;
#X connect 0 0 1 0;
#X connect 1 0 2 0;
#X connect 2 0 3 0;
#X connect 3 0 4 0;
#X connect 4 0 5 0;
#X connect 5 0 6 0;
#X restore 133 586 pd kick;
#N canvas 134 135 467 362 trashycym 0;
#X obj 32 74 noise~;
#X obj 44 134 delwrite~ noise 100;
#X obj 232 118 delread~ noise 100;
#X obj 32 218 +~;
#X msg 176 236 1 4 \, 0 496 4;
#X obj 176 260 vline~;
#X obj 176 284 pow~ 2;
#X obj 32 254 *~;
#X obj 298 165 delread~ noise 100;
#X obj 175 4 inlet;
#X obj 32 317 outlet~;
#X obj 176 38 t b b b;
#X obj 232 90 random 100;
#X obj 298 143 random 100;
#X obj 32 290 *~ 0.5;
#X obj 32 104 hip~ 5000;
#X connect 0 0 15 0;
#X connect 2 0 3 1;
#X connect 3 0 7 0;
#X connect 4 0 5 0;
#X connect 5 0 6 0;
#X connect 6 0 7 1;
#X connect 7 0 14 0;
#X connect 8 0 3 1;
#X connect 9 0 11 0;
#X connect 11 0 4 0;
#X connect 11 1 12 0;
#X connect 11 2 13 0;
#X connect 12 0 2 0;
#X connect 13 0 8 0;
#X connect 14 0 10 0;
#X connect 15 0 1 0;
#X connect 15 0 3 0;
#X restore 282 541 pd trashycym;
#X obj 133 488 r kick;
#X obj 281 466 r cym;
#X obj 428 468 r snare;
#X obj 603 492 r clap;
#N canvas 63 101 458 352 pan 0;
#X obj 90 168 cos~;
#X obj 218 168 cos~;
#X obj 91 81 * -0.25;
#X obj 219 81 expr 0.25 - ($f1 * 0.25);
#X obj 220 30 inlet;
#X obj 91 213 *~;
#X obj 219 213 *~;
#X obj 73 20 inlet~;
#X obj 91 237 outlet~;
#X obj 219 237 outlet~;
#X obj 90 138 line~;
#X msg 92 110 \$1 10;
#X obj 216 140 line~;
#X msg 218 112 \$1 10;
#X connect 0 0 5 0;
#X connect 1 0 6 0;
#X connect 2 0 11 0;
#X connect 3 0 13 0;
#X connect 4 0 2 0;
#X connect 4 0 3 0;
#X connect 5 0 8 0;
#X connect 6 0 9 0;
#X connect 7 0 5 1;
#X connect 7 0 6 1;
#X connect 10 0 0 0;
#X connect 11 0 10 0;
#X connect 12 0 1 0;
#X connect 13 0 12 0;
#X restore 134 733 pd pan;
#X obj 133 514 bng 19 250 50 0 empty empty empty 0 -10 0 12 #fcfcfc #000000 #000000;
#X obj 176 709 hsl 50 10 0 1 0 0 empty empty empty -2 -10 0 12 #fcfcfc #000000 #000000 0 1;
#N canvas 63 101 458 352 pan 0;
#X obj 90 168 cos~;
#X obj 218 168 cos~;
#X obj 91 81 * -0.25;
#X obj 219 81 expr 0.25 - ($f1 * 0.25);
#X obj 220 30 inlet;
#X obj 91 213 *~;
#X obj 219 213 *~;
#X obj 73 20 inlet~;
#X obj 91 237 outlet~;
#X obj 219 237 outlet~;
#X obj 90 138 line~;
#X msg 92 110 \$1 10;
#X obj 216 140 line~;
#X msg 218 112 \$1 10;
#X connect 0 0 5 0;
#X connect 1 0 6 0;
#X connect 2 0 11 0;
#X connect 3 0 13 0;
#X connect 4 0 2 0;
#X connect 4 0 3 0;
#X connect 5 0 8 0;
#X connect 6 0 9 0;
#X connect 7 0 5 1;
#X connect 7 0 6 1;
#X connect 10 0 0 0;
#X connect 11 0 10 0;
#X connect 12 0 1 0;
#X connect 13 0 12 0;
#X restore 284 732 pd pan;
#X obj 326 708 hsl 50 10 0 1 0 0 empty empty empty -2 -10 0 12 #fcfcfc #000000 #000000 0 1;
#N canvas 63 101 458 352 pan 0;
#X obj 90 168 cos~;
#X obj 218 168 cos~;
#X obj 91 81 * -0.25;
#X obj 219 81 expr 0.25 - ($f1 * 0.25);
#X obj 220 30 inlet;
#X obj 91 213 *~;
#X obj 219 213 *~;
#X obj 73 20 inlet~;
#X obj 91 237 outlet~;
#X obj 219 237 outlet~;
#X obj 90 138 line~;
#X msg 92 110 \$1 10;
#X obj 216 140 line~;
#X msg 218 112 \$1 10;
#X connect 0 0 5 0;
#X connect 1 0 6 0;
#X connect 2 0 11 0;
#X connect 3 0 13 0;
#X connect 4 0 2 0;
#X connect 4 0 3 0;
#X connect 5 0 8 0;
#X connect 6 0 9 0;
#X connect 7 0 5 1;
#X connect 7 0 6 1;
#X connect 10 0 0 0;
#X connect 11 0 10 0;
#X connect 12 0 1 0;
#X connect 13 0 12 0;
#X restore 425 739 pd pan;
#X obj 467 715 hsl 50 10 0 1 0 0 empty empty empty -2 -10 0 12 #fcfcfc #000000 #000000 0 1;
#N canvas 63 101 458 352 pan 0;
#X obj 90 168 cos~;
#X obj 218 168 cos~;
#X obj 91 81 * -0.25;
#X obj 219 81 expr 0.25 - ($f1 * 0.25);
#X obj 220 30 inlet;
#X obj 91 213 *~;
#X obj 219 213 *~;
#X obj 73 20 inlet~;
#X obj 91 237 outlet~;
#X obj 219 237 outlet~;
#X obj 90 138 line~;
#X msg 92 110 \$1 10;
#X obj 216 140 line~;
#X msg 218 112 \$1 10;
#X connect 0 0 5 0;
#X connect 1 0 6 0;
#X connect 2 0 11 0;
#X connect 3 0 13 0;
#X connect 4 0 2 0;
#X connect 4 0 3 0;
#X connect 5 0 8 0;
#X connect 6 0 9 0;
#X connect 7 0 5 1;
#X connect 7 0 6 1;
#X connect 10 0 0 0;
#X connect 11 0 10 0;
#X connect 12 0 1 0;
#X connect 13 0 12 0;
#X restore 601 741 pd pan;
#X obj 643 717 hsl 50 10 0 1 0 0 empty empty empty -2 -10 0 12 #fcfcfc #000000 #000000 0 1;
#X obj 281 490 bng 19 250 50 0 empty empty empty 0 -10 0 12 #fcfcfc #000000 #000000;
#X obj 428 498 bng 19 250 50 0 empty empty empty 0 -10 0 12 #fcfcfc #000000 #000000;
#X obj 602 513 bng 19 250 50 0 empty empty empty 0 -10 0 12 #fcfcfc #000000 #000000;
#X text 739 713 panning Left-Right;
#X text 738 734 0 = Left;
#X text 734 749 1 = right;
#X text 70 132 Folgende Verteilungungen: 25% - 25% - 25% - 25%;
#X text 252 149 50% - 20% - 10% - 10%;
#X text 75 213 Zusätzlich sollt ihr für die snare zufallswerte zwischen 36 und 60 erzeugen \, diese sollen dann mit mtof ins rechte inlet gehen. Das soll jedes mal neu gesetzt werden \, wenn die snare drum einen bang bekommt. Nach den Random-Werten soll ein [spigot] programmiert werden \, der die randomwerte ggf. unterbricht.;
#X text 77 306 Zuletzt sollen für die lautstärke für jede drum random-werten zwischen 0.5 und 1 erzeugt werden (jedes mald \, wenn die drum einen bang bekommt). dazu müsst ihr nach der drum (vor pd-pan) die korrekten objekte einfügen.;
#X text 67 25 Aufgabe: Baut einen Sequencer \, mit dem die vier Drum-Synths angespielt werden. Die Bangs sollen mit sends and die jeweiligen receive-objekte geschickt werden. Die Wahrscheinlichkeit \, mit welcher jede der Drums angespielt wird \, soll änderbar sein (weighted random). Die Wahrscheinlichkeitsverteilung soll mit einer Message-Box an die jeweiligen receive-objekte gesendet werden (diese müsst ihr hinzufügen).;
#X text 250 176 3 zusätzliche verteilungen eurer wahl;
#X text 78 411 der bang \, der an die drum gesendet wird \, löst verschiedene dinge aus (random etc). achtet auf korrektes scheduling mit [trigger].;
#X text 80 374 Als extra könnt ihr noch für jede Drum random-werte zw. 0.0-1.0 für das panning erzeugen.;
#X obj 583 59 tgl 19 0 empty empty empty 0 -10 0 12 #fcfcfc #000000 #000000 0 1;
#X obj 583 83 metro 250;
#X obj 692 239 moses 75;
#X floatatom 537 233 5 0 0 0 - - - 0;
#X floatatom 692 266 5 0 0 0 - - - 0;
#X obj 583 107 random 101;
#X obj 538 257 bng 19 250 50 0 empty empty empty 0 -10 0 12 #fcfcfc #000000 #000000;
#X obj 601 277 bng 19 250 50 0 empty empty empty 0 -10 0 12 #fcfcfc #000000 #000000;
#X obj 693 294 bng 19 250 50 0 empty empty empty 0 -10 0 12 #fcfcfc #000000 #000000;
#X obj 749 295 bng 19 250 50 0 empty empty empty 0 -10 0 12 #fcfcfc #000000 #000000;
#X floatatom 603 251 5 0 0 0 - - - 0;
#X floatatom 746 267 5 0 0 0 - - - 0;
#X obj 534 287 s kick;
#X obj 602 305 s cym;
#X obj 692 322 s snare;
#X obj 756 322 s clap;
#X text 113 160 das ist insgesamt nicht 100%;
#X obj 196 559 random 51;
#X obj 196 587 + 50;
#X obj 134 673 *~;
#X floatatom 195 635 5 0 0 0 - - - 0;
#X obj 196 611 / 100;
#X obj 340 560 random 51;
#X obj 340 588 + 50;
#X floatatom 339 636 5 0 0 0 - - - 0;
#X obj 340 612 / 100;
#X obj 283 679 *~;
#X obj 512 587 random 51;
#X obj 512 615 + 50;
#X floatatom 511 663 5 0 0 0 - - - 0;
#X obj 512 639 / 100;
#X obj 426 684 *~;
#X obj 678 575 random 51;
#X obj 678 603 + 50;
#X floatatom 677 651 5 0 0 0 - - - 0;
#X obj 678 627 / 100;
#X obj 601 693 *~;
#X floatatom 510 468 5 0 0 0 - - - 0;
#X obj 509 418 random 25;
#X obj 510 442 + 36;
#X obj 510 491 mtof;
#X floatatom 510 516 5 0 0 0 - - - 0;
#X obj 509 541 spigot;
#X text 984 307 25% 25% 25% 25%;
#X text 985 328 50% 10% 35% 5%;
#X text 987 351 10% 20% 30% 40%;
#X obj 583 174 moses 25;
#X obj 639 196 moses 50;
#X floatatom 707 88 5 0 0 0 - - - 0;
#X obj 639 132 r w1;
#X obj 690 152 r w2;
#X obj 744 196 r w3;
#X floatatom 639 155 5 0 0 0 - - - 0;
#X floatatom 690 175 5 0 0 0 - - - 0;
#X floatatom 744 219 5 0 0 0 - - - 0;
#X msg 879 116 \; w1 25 \; w2 50 \; w3 75;
#X msg 952 117 \; w1 50 \; w2 60 \; w3 95;
#X msg 1032 111 \; w1 10 \; w2 30 \; w3 60;
#X msg 880 181 \; w1 100 \; w2 0 \; w3 0;
#X obj 428 524 t b b b;
#X obj 555 503 tgl 19 0 empty empty empty 0 -10 0 12 #fcfcfc #000000 #000000 0 1;
#X msg 964 184 \; w1 0 \; w2 0 \; w3 101;
#X obj 281 514 t b b;
#X obj 133 538 t b b;
#X obj 599 538 t b b;
#X text 888 61 weights;
#X connect 1 0 63 0;
#X connect 2 0 68 0;
#X connect 3 0 51 0;
#X connect 4 0 58 0;
#X connect 5 0 10 0;
#X connect 6 0 18 0;
#X connect 7 0 19 0;
#X connect 8 0 20 0;
#X connect 9 0 0 0;
#X connect 9 1 0 1;
#X connect 10 0 95 0;
#X connect 11 0 9 1;
#X connect 12 0 0 0;
#X connect 12 1 0 1;
#X connect 13 0 12 1;
#X connect 14 0 0 0;
#X connect 14 1 0 1;
#X connect 15 0 14 1;
#X connect 16 0 0 0;
#X connect 16 1 0 1;
#X connect 17 0 16 1;
#X connect 18 0 94 0;
#X connect 19 0 91 0;
#X connect 20 0 96 0;
#X connect 32 0 33 0;
#X connect 33 0 37 0;
#X connect 34 0 36 0;
#X connect 34 1 43 0;
#X connect 35 0 38 0;
#X connect 36 0 40 0;
#X connect 37 0 78 0;
#X connect 38 0 44 0;
#X connect 39 0 45 0;
#X connect 40 0 46 0;
#X connect 41 0 47 0;
#X connect 42 0 39 0;
#X connect 43 0 41 0;
#X connect 49 0 50 0;
#X connect 50 0 53 0;
#X connect 51 0 9 0;
#X connect 52 0 51 1;
#X connect 53 0 52 0;
#X connect 54 0 55 0;
#X connect 55 0 57 0;
#X connect 56 0 58 1;
#X connect 57 0 56 0;
#X connect 58 0 12 0;
#X connect 59 0 60 0;
#X connect 60 0 62 0;
#X connect 61 0 63 1;
#X connect 62 0 61 0;
#X connect 63 0 14 0;
#X connect 64 0 65 0;
#X connect 65 0 67 0;
#X connect 66 0 68 1;
#X connect 67 0 66 0;
#X connect 68 0 16 0;
#X connect 69 0 72 0;
#X connect 70 0 71 0;
#X connect 71 0 69 0;
#X connect 72 0 73 0;
#X connect 73 0 74 0;
#X connect 74 0 1 1;
#X connect 78 0 35 0;
#X connect 78 1 79 0;
#X connect 79 0 42 0;
#X connect 79 1 34 0;
#X connect 80 0 33 1;
#X connect 81 0 84 0;
#X connect 82 0 85 0;
#X connect 83 0 86 0;
#X connect 84 0 78 1;
#X connect 85 0 79 1;
#X connect 86 0 34 1;
#X connect 91 0 1 0;
#X connect 91 1 59 0;
#X connect 91 2 70 0;
#X connect 92 0 74 1;
#X connect 94 0 4 0;
#X connect 94 1 54 0;
#X connect 95 0 3 0;
#X connect 95 1 49 0;
#X connect 96 0 2 0;
#X connect 96 1 64 0;
