#N canvas 10 25 1252 874 12;
#X obj 55 118 osc~;
#X obj 169 160 osc~;
#X text 53 26 CARRIER;
#X text 218 160 MODULATOR;
#X obj 60 49 hsl 162 19 0.1 4000 0 0 empty empty empty -2 -10 0 12 #fcfcfc #000000 #000000 0 1;
#X floatatom 57 73 5 0 0 0 - - - 0;
#X obj 173 108 hsl 162 19 0.1 4000 0 0 empty empty empty -2 -10 0 12 #fcfcfc #000000 #000000 0 1;
#X floatatom 170 132 5 0 0 0 - - - 0;
#X obj 68 338 dac~;
#X obj 69 305 *~;
#X obj 209 206 vsl 19 162 0 1 0 0 empty empty empty 0 -9 0 12 #fcfcfc #000000 #000000 0 1;
#X obj 209 376 pack f 10;
#X obj 209 399 line~;
#X obj 56 186 *~;
#X obj 353 184 send x;
#X floatatom 353 155 5 0 0 0 - - - 0;
#X floatatom 341 270 5 0 0 0 - - - 0;
#X floatatom 436 269 5 0 0 0 - - - 0;
#X obj 380 91 bng 19 250 50 0 empty empty empty 0 -10 0 12 #fcfcfc #000000 #000000;
#X floatatom 423 155 5 0 0 0 - - - 0;
#X obj 423 184 send y;
#X obj 344 238 receive carr;
#X obj 439 237 receive mod;
#X msg 463 42 \; carr 150 \; mod 279;
#X msg 451 81 \; carr 345 \; mod 2367;
#X msg 492 147 \; carr 987 \; mod 1;
#X connect 0 0 13 0;
#X connect 1 0 13 1;
#X connect 4 0 5 0;
#X connect 5 0 0 0;
#X connect 6 0 7 0;
#X connect 7 0 1 0;
#X connect 9 0 8 0;
#X connect 9 0 8 1;
#X connect 10 0 11 0;
#X connect 11 0 12 0;
#X connect 12 0 9 1;
#X connect 13 0 9 0;
#X connect 15 0 14 0;
#X connect 19 0 20 0;
#X connect 21 0 16 0;
#X connect 22 0 17 0;
