#N canvas 139 59 380 382 12;
#X msg 81 148 0 \, 1 \$1;
#X obj 81 57 metro 50;
#X obj 81 114 f;
#X obj 80 214 *~ 512;
#X floatatom 101 91 5 0 0 0 - - - 0;
#X obj 219 252 tabread4~ envelope;
#X obj 80 180 vline~;
#X obj 80 293 *~;
#X obj 80 251 tabread4~ pulsaret;
#X obj 80 324 outlet~;
#X obj 166 62 r \$1-freq;
#X obj 80 22 inlet;
#X obj 126 23 inlet;
#X obj 172 23 inlet;
#X obj 205 182 inlet;
#X obj 319 184 inlet;
#X connect 0 0 6 0;
#X connect 1 0 2 0;
#X connect 2 0 0 0;
#X connect 3 0 5 0;
#X connect 3 0 8 0;
#X connect 4 0 2 1;
#X connect 5 0 7 1;
#X connect 6 0 3 0;
#X connect 7 0 9 0;
#X connect 8 0 7 0;
#X connect 10 0 1 1;
#X connect 11 0 1 0;
#X connect 12 0 1 1;
#X connect 13 0 4 0;
#X connect 14 0 8 0;
#X connect 15 0 5 0;
