#N canvas 334 40 780 407 12;
#X obj 109 265 print float;
#X floatatom 109 235 5 0 0 0 - - - 0;
#X floatatom 96 124 11 0 0 0 - - - 0;
#X obj 63 134 bng 19 250 50 0 empty empty empty 0 -10 0 12 #fcfcfc #000000 #000000;
#X floatatom 170 171 5 0 0 0 - - - 0;
#X obj 110 198 float 6.5;
#X text 32 23 The [float] object stores a number \, initialized by its creation argument \, which may be reset using its right inlet and output by sending it the "bang" message. Sending a number to the left inletsets a new value and outputs it., f 76;
#X text 212 172 Set Number (no output);
#X text 41 104 Output;
#X text 110 300 Kurzform;
#X obj 447 212 int;
#X floatatom 447 250 5 0 0 0 - - - 0;
#X floatatom 447 171 7 0 0 0 - - - 0;
#X text 476 214 [int] konvertiert Floats zu Integer;
#X obj 180 299 f 6.4;
#X obj 447 297 i;
#X connect 1 0 0 0;
#X connect 2 0 5 0;
#X connect 3 0 5 0;
#X connect 4 0 5 1;
#X connect 5 0 1 0;
#X connect 10 0 11 0;
#X connect 12 0 10 0;
