#N canvas 132 84 1006 417 12;
#X obj 62 279 metro 500;
#X text 548 36 [metro] schickt regelmäßig Bangs in einem vorher definierten Zeitlichen Abstand (wie ein Metronom).;
#X text 556 156 Die Zeit wird in Pure Data in Millisekunden angegeben. 1000 ms = 1 sek.;
#X obj 63 167 tgl 19 0 empty empty empty 0 -10 0 12 #fcfcfc #000000 #000000 0 1;
#X obj 62 312 bng 19 250 50 0 empty empty empty 0 -10 0 12 #fcfcfc #000000 #000000;
#X text 52 18 [metro];
#X text 61 343 Metro mit Bangs im Abstand von 0.5 Sek.;
#X text 61 73 Metro wird mit einer Zahl über 0 oder einem Bang;
#X msg 104 155 0;
#X msg 140 154 stop;
#X msg 105 128 1;
#X text 59 88 angeschaltet \, mit 0 oder [stop( ausgeschaltet.;
#X text 61 105 Am einfachsten ist ein [toggle] (strg + shift + t);
#X text 142 196 Die Geschwindigkeit kann über das rechte Inlet gesetzt werden.;
#X floatatom 122 237 5 0 0 0 - - - 0;
#X connect 0 0 4 0;
#X connect 3 0 0 0;
#X connect 8 0 0 0;
#X connect 9 0 0 0;
#X connect 10 0 0 0;
#X connect 14 0 0 1;
