#N canvas 65 100 724 762 12;
#X obj 57 185 f, f 4;
#X floatatom 57 282 5 0 0 0 - - - 0;
#X obj 58 342 print counter;
#X obj 57 152 bng 19 250 50 0 empty empty empty 0 -10 0 12 #fcfcfc #000000 #000000;
#X obj 57 99 metro 1000;
#X obj 57 66 tgl 19 0 empty empty empty 0 -10 0 12 #fcfcfc #000000 #000000 0 1;
#X floatatom 57 236 5 0 0 0 - - - 0;
#X text 117 278 [mod] dividert den Input durch das Argument und gibt den Rest aus;
#X msg 106 136 -1;
#X msg 127 166 -1;
#X floatatom 125 56 5 0 0 0 - - - 0;
#X obj 57 208 + 1;
#X obj 56 257 mod 15;
#X connect 0 0 11 0;
#X connect 1 0 2 0;
#X connect 3 0 0 0;
#X connect 4 0 3 0;
#X connect 5 0 4 0;
#X connect 6 0 12 0;
#X connect 6 0 0 1;
#X connect 8 0 0 0;
#X connect 9 0 0 1;
#X connect 10 0 4 1;
#X connect 11 0 6 0;
#X connect 12 0 1 0;
