#N canvas 138 25 1354 707 12;
#X obj 134 55 metro 50;
#X obj 133 92 f;
#X obj 133 123 + 1;
#X floatatom 132 242 5 0 0 0 - - - 0;
#X obj 236 332 print no;
#X obj 132 156 mod 4;
#X obj 100 329 bng 19 250 50 0 empty empty empty 0 -10 0 12 #fcfcfc #000000 #000000;
#X obj 153 332 bng 19 250 50 0 empty empty empty 0 -10 0 12 #fcfcfc #000000 #000000;
#X obj 181 333 bng 19 250 50 0 empty empty empty 0 -10 0 12 #fcfcfc #000000 #000000;
#X text 249 112 [select] schickt einen Bang auf das jeweilige Outlet \, wenn der Input gleich wie eines der Creation Arguments ist. Wenn der Input keinem der Argumente enstpricht \, wird er einfach auf das ganz rechte Outlet geschickt (nicht als bang \, sondern einfach durchgeschleift.);
#X obj 136 18 tgl 19 0 empty empty empty 0 -10 0 12 #fcfcfc #000000 #000000 0 1;
#X floatatom 189 16 5 0 0 0 - - - 0;
#X obj 210 335 bng 19 250 50 0 empty empty empty 0 -10 0 12 #fcfcfc #000000 #000000;
#X obj 184 252 hradio 19 1 0 4 empty empty empty 0 -10 0 12 #fcfcfc #000000 #000000 0;
#X obj 135 292 select 0 1 2 3;
#X connect 0 0 1 0;
#X connect 1 0 2 0;
#X connect 2 0 5 0;
#X connect 3 0 14 0;
#X connect 5 0 1 1;
#X connect 5 0 3 0;
#X connect 10 0 0 0;
#X connect 11 0 0 1;
#X connect 14 0 6 0;
#X connect 14 1 7 0;
#X connect 14 2 8 0;
#X connect 14 3 12 0;
#X connect 14 4 4 0;
