#N canvas 179 36 1421 795 12;
#N canvas 0 22 450 278 (subpatch) 0;
#X array randarray 19 float 3;
#A 0 31 7 78 93 97 54 23 36 48 63 40 78 2 30 60 91 6 37 92;
#X coords 0 0 19 100 200 140 1 0 0;
#X restore 354 223 graph;
#X floatatom 196 335 5 0 0 0 - - - 0;
#X floatatom 72 337 5 0 0 0 - - - 0;
#X obj 72 373 tabwrite randarray;
#X obj 72 38 tgl 19 0 empty empty empty 0 -10 0 12 #fcfcfc #000000 #000000 0 1;
#X obj 196 241 f;
#X obj 196 276 + 1;
#X obj 72 205 t f b;
#X floatatom 72 149 5 0 0 0 - - - 0;
#X text 359 57 Pure Data zählt von 0!;
#X text 353 40 [random] gibt (Pseudo-) Zufallswerte von 0-x (Integer) aus.;
#X text 358 91 -> Wie würde man z.B. Zufallswerte zwischen 60 und 72 erzeugen?;
#X text 358 133 -> Wie würde man Zufalls-Floats (Zahlen mit Kommastellen) erzeugen?;
#X obj 196 311 mod 19;
#X obj 699 334 tgl 19 0 empty empty empty 0 -10 0 12 #fcfcfc #000000 #000000 0 1;
#X obj 699 458 + 60;
#X obj 699 372 metro 250;
#X floatatom 699 501 5 0 0 0 - - - 0;
#X obj 699 415 random 13;
#X obj 399 456 tgl 19 0 empty empty empty 0 -10 0 12 #fcfcfc #000000 #000000 0 1;
#X obj 399 488 metro 250;
#X obj 399 520 random 101;
#X floatatom 399 584 5 0 0 0 - - - 0;
#X obj 399 552 * 0.01;
#X obj 150 78 bng 19 250 50 0 empty empty empty 0 -10 0 12 #fcfcfc #000000 #000000;
#X obj 72 76 metro 50;
#X floatatom 126 32 5 0 0 0 - - - 0;
#X obj 72 111 random 100;
#X obj 142 445 bng 19 250 50 0 empty empty empty 0 -10 0 12 #fcfcfc #000000 #000000;
#X floatatom 141 507 11 0 0 0 - - - 0;
#X obj 141 480 expr random(5 \, 10);
#X connect 1 0 3 1;
#X connect 2 0 3 0;
#X connect 4 0 25 0;
#X connect 5 0 6 0;
#X connect 6 0 13 0;
#X connect 7 0 2 0;
#X connect 7 1 5 0;
#X connect 8 0 7 0;
#X connect 13 0 5 1;
#X connect 13 0 1 0;
#X connect 14 0 16 0;
#X connect 15 0 17 0;
#X connect 16 0 18 0;
#X connect 18 0 15 0;
#X connect 19 0 20 0;
#X connect 20 0 21 0;
#X connect 21 0 23 0;
#X connect 23 0 22 0;
#X connect 24 0 27 0;
#X connect 26 0 25 1;
#X connect 27 0 8 0;
#X connect 28 0 30 0;
#X connect 30 0 29 0;
