#N canvas 91 38 921 795 12;
#N canvas 0 22 450 278 (subpatch) 0;
#X array randarray 19 float 3;
#A 0 51 74 99 48 78 81 24 35 55 74 83 94 56 46 60 6 38 31 70;
#X coords 0 0 19 100 200 140 1 0 0;
#X restore 354 223 graph;
#X floatatom 196 335 5 0 0 0 - - - 0;
#X floatatom 72 337 5 0 0 0 - - - 0;
#X obj 72 373 tabwrite randarray;
#X obj 72 38 tgl 19 0 empty empty empty 0 -10 0 12 #fcfcfc #000000 #000000 0 1;
#X obj 196 241 f;
#X obj 196 276 + 1;
#X obj 72 205 t f b;
#X floatatom 72 182 5 0 0 0 - - - 0;
#X text 359 57 Pure Data zählt von 0!;
#X text 353 40 [random] gibt (Pseudo-) Zufallswerte von 0-x (Integer) aus.;
#X text 358 91 -> Wie würde man z.B. Zufallswerte zwischen 60 und 72 erzeugen?;
#X text 358 133 -> Wie würde man Zufalls-Floats (Zahlen mit Kommastellen) erzeugen?;
#X obj 196 311 mod 19;
#X obj 73 116 bng 19 250 50 0 empty empty empty 0 -10 0 12 #fcfcfc #000000 #000000;
#X obj 72 76 metro 50;
#X floatatom 126 32 5 0 0 0 - - - 0;
#X obj 87 470 bng 19 250 50 0 empty empty empty 0 -10 0 12 #fcfcfc #000000 #000000;
#X floatatom 86 547 11 0 0 0 - - - 0;
#X obj 72 144 random 100;
#X obj 379 396 tgl 19 0 empty empty empty 0 -10 0 12 #fcfcfc #000000 #000000 0 1;
#X obj 379 420 metro 1000;
#X floatatom 379 521 5 0 0 0 - - - 0;
#X floatatom 379 568 5 0 0 0 - - - 0;
#X obj 521 400 tgl 19 0 empty empty empty 0 -10 0 12 #fcfcfc #000000 #000000 0 1;
#X floatatom 522 475 5 0 0 0 - - - 0;
#X floatatom 522 522 5 0 0 0 - - - 0;
#X obj 522 451 random 101;
#X obj 521 424 metro 125;
#X obj 522 497 / 100;
#X obj 524 571 *~;
#X obj 524 595 output~;
#X obj 379 591 mtof;
#X obj 379 615 osc~;
#X obj 379 544 + 36;
#X obj 379 500 random 48;
#X obj 85 504 expr random(0 \, 1001) *0.001;
#X connect 1 0 3 1;
#X connect 2 0 3 0;
#X connect 4 0 15 0;
#X connect 5 0 6 0;
#X connect 6 0 13 0;
#X connect 7 0 2 0;
#X connect 7 1 5 0;
#X connect 8 0 7 0;
#X connect 13 0 5 1;
#X connect 13 0 1 0;
#X connect 14 0 19 0;
#X connect 15 0 14 0;
#X connect 16 0 15 1;
#X connect 17 0 36 0;
#X connect 19 0 8 0;
#X connect 20 0 21 0;
#X connect 22 0 34 0;
#X connect 23 0 32 0;
#X connect 24 0 28 0;
#X connect 25 0 29 0;
#X connect 26 0 30 0;
#X connect 27 0 25 0;
#X connect 28 0 27 0;
#X connect 28 0 35 0;
#X connect 29 0 26 0;
#X connect 30 0 31 0;
#X connect 32 0 33 0;
#X connect 33 0 30 1;
#X connect 34 0 23 0;
#X connect 35 0 22 0;
#X connect 36 0 18 0;
