#N canvas 105 175 566 627 12;
#X text 44 97 Zweitens sollen zusätzlich zufallszahlen zwischen 60 und 72 erzeugt werden \, diese sollen mit dem Objekt [mtof] die Frequenz eines [osc~] steuern.;
#X text 40 28 Programmiert ein [metro] \, dass bangs an ein [random] schickt. Dort sollen Zufällige Zahlen zwischen 500-2500 erzeugt werden. Diese sollen wiederum zurück ins [metro] und den Abstang der Bangs (das Tempo) steuern.;
#N canvas 254 96 1446 731 solution 0;
#X obj 58 178 tgl 19 0 empty empty empty 0 -10 0 12 #fcfcfc #000000 #000000 0 1;
#X obj 58 216 metro 1000;
#X floatatom 58 351 5 0 0 0 - - - 0;
#X obj 54 380 bng 19 250 50 0 empty empty empty 0 -10 0 12 #fcfcfc #000000 #000000;
#X obj 58 240 t b b;
#X floatatom 166 450 5 0 0 0 - - - 0;
#X obj 58 322 + 50;
#X obj 58 268 random 451;
#X obj 168 528 noteout;
#X obj 167 495 makenote 100 250;
#X obj 266 396 hsl 162 19 0 127 0 0 empty empty Velocity -2 -10 0 12 #fcfcfc #000000 #000000 0 1;
#X floatatom 263 420 5 0 0 0 - - - 0;
#X obj 314 450 hsl 162 19 25 1000 0 0 empty empty Duration -2 -10 0 12 #fcfcfc #000000 #000000 0 1;
#X floatatom 311 474 5 0 0 0 - - - 0;
#X obj 155 224 hsl 162 19 101 2001 0 0 empty empty empty -2 -10 0 12 #fcfcfc #000000 #000000 0 1;
#X floatatom 152 248 5 0 0 0 - - - 0;
#X obj 252 342 random 118;
#X obj 435 345 expr random(25 \, 1001);
#X obj 190 281 t b b b;
#X obj 166 378 random 37;
#X obj 166 416 + 48;
#X obj 618 199 metro 1000;
#X floatatom 618 334 5 0 0 0 - - - 0;
#X obj 614 363 bng 19 250 50 0 empty empty empty 0 -10 0 12 #fcfcfc #000000 #000000;
#X obj 618 223 t b b;
#X floatatom 726 433 5 0 0 0 - - - 0;
#X obj 618 305 + 50;
#X obj 618 251 random 451;
#X obj 727 478 makenote 100 250;
#X obj 826 379 hsl 162 19 0 127 0 0 empty empty Velocity -2 -10 0 12 #fcfcfc #000000 #000000 0 1;
#X floatatom 823 403 5 0 0 0 - - - 0;
#X obj 874 433 hsl 162 19 25 1000 0 0 empty empty Duration -2 -10 0 12 #fcfcfc #000000 #000000 0 1;
#X floatatom 871 457 5 0 0 0 - - - 0;
#X obj 715 207 hsl 162 19 101 2001 0 0 empty empty empty -2 -10 0 12 #fcfcfc #000000 #000000 0 1;
#X floatatom 712 231 5 0 0 0 - - - 0;
#X obj 812 325 random 118;
#X obj 995 328 expr random(25 \, 1001);
#X obj 750 264 t b b b;
#X obj 726 361 random 37;
#X obj 726 399 + 48;
#X obj 728 598 noteout;
#X msg 806 553 2;
#X connect 0 0 1 0;
#X connect 0 0 21 0;
#X connect 1 0 4 0;
#X connect 2 0 3 0;
#X connect 4 0 7 0;
#X connect 4 1 18 0;
#X connect 5 0 9 0;
#X connect 6 0 2 0;
#X connect 6 0 1 1;
#X connect 7 0 6 0;
#X connect 9 0 8 0;
#X connect 9 1 8 1;
#X connect 10 0 11 0;
#X connect 11 0 9 1;
#X connect 12 0 13 0;
#X connect 13 0 9 2;
#X connect 14 0 15 0;
#X connect 15 0 7 1;
#X connect 16 0 10 0;
#X connect 17 0 12 0;
#X connect 18 0 19 0;
#X connect 18 1 16 0;
#X connect 18 2 17 0;
#X connect 19 0 20 0;
#X connect 20 0 5 0;
#X connect 21 0 24 0;
#X connect 22 0 23 0;
#X connect 24 0 27 0;
#X connect 24 1 37 0;
#X connect 25 0 28 0;
#X connect 26 0 22 0;
#X connect 26 0 21 1;
#X connect 27 0 26 0;
#X connect 28 0 40 0;
#X connect 28 1 40 1;
#X connect 29 0 30 0;
#X connect 30 0 28 1;
#X connect 31 0 32 0;
#X connect 32 0 28 2;
#X connect 33 0 34 0;
#X connect 34 0 27 1;
#X connect 35 0 29 0;
#X connect 36 0 31 0;
#X connect 37 0 38 0;
#X connect 37 1 35 0;
#X connect 37 2 36 0;
#X connect 38 0 39 0;
#X connect 39 0 25 0;
#X connect 41 0 40 2;
#X restore 321 266 pd solution;
