#N canvas 538 130 1339 697 12;
#X obj 819 209 pipe 1000;
#X obj 777 160 bng 19 250 50 0 empty empty empty 0 -10 0 12 #fcfcfc #000000 #000000;
#X obj 821 340 print pipe;
#X floatatom 820 113 5 0 0 0 - - - 0;
#X msg 778 95 1;
#X text 66 43 Delay DATA;
#X obj 76 201 bng 19 250 50 0 empty empty empty 0 -10 0 12 #fcfcfc #000000 #000000;
#X obj 121 302 bng 19 250 50 0 empty empty empty 0 -10 0 12 #fcfcfc #000000 #000000;
#X floatatom 165 200 5 0 0 0 - - - 0;
#X text 67 60 "Delay" bedeutet Verzögerung. In Pure Data können sowohl Kontroll- als auch Audiosignale zeitverzögert wiedergegeben werden.;
#X obj 76 355 timer;
#X floatatom 76 379 5 0 0 0 - - - 0;
#X text 189 297 "delay" schickt NUR BANGS \, keine Intergers/Floats/Symbols etc.!;
#X msg 100 114 1000;
#X floatatom 100 138 5 0 0 0 - - - 0;
#X text 198 214 der delay-Wert (in ms) kann über das rechte Inlet gesetzt werden (ohne dass ein bang ausgegeben wird) \, oder als creation argument in die box geschrieben werden.;
#X text 150 114 delay-Werte können auch mit einer Number- oder Message-Box über das linke Inlet gesetzt werden. Wenn das delay-objekt einen Zahlenwert (message oder number-box) über das linke inlet bekommt \, wird allerdings nach der gesetzten Zeit ein Bang ausgegeben (set and do it).;
#X text 189 266 Das [delay] - Objekt schickt Bangs nach einer angegebenen Verzögerungszeit (Delayzeit) aus.;
#X text 139 355 Das [timer]-Objekt misst die vergehende Zeit. Immer \, wenn der rechte Inlet einen bang erhält \, wird die vergangene Zeit ausgegeben (akkumulierend \, wie Runden bei einer Stoppuhr). Sobald der linke Inlet gebangt wird \, wird die Zeit zurück auf 0 gesetzt.;
#X obj 41 166 bng 19 250 50 0 empty empty empty 0 -10 0 12 #fcfcfc #000000 #000000;
#X obj 102 265 delay 1500;
#X text 789 34 Pipe funktioniert ähnlich \, schickt allerdings Zahlen bzw. Zahlen-Streams;
#X floatatom 832 247 5 0 0 0 - - - 0;
#X msg 837 134 flush;
#X text 890 209 <----- Doku!;
#X floatatom 885 184 5 0 0 0 - - - 0;
#X msg 843 158 clear;
#X obj 76 225 t b b;
#N canvas 208 246 450 300 metro 0;
#X obj 31 75 delay 1000;
#X obj 99 147 spigot;
#X obj 139 109 tgl 19 0 empty empty empty 0 -10 0 12 #fcfcfc #000000 #000000 0 1;
#X obj 31 99 bng 19 250 50 0 empty empty empty 0 -10 0 12 #fcfcfc #000000 #000000;
#X floatatom 95 23 5 0 0 0 - - - 0;
#X connect 0 0 3 0;
#X connect 1 0 0 0;
#X connect 2 0 1 1;
#X connect 3 0 1 0;
#X connect 4 0 0 1;
#X restore 172 16 pd metro mit delay;
#X connect 0 0 2 0;
#X connect 0 0 22 0;
#X connect 1 0 0 0;
#X connect 3 0 0 0;
#X connect 4 0 0 0;
#X connect 6 0 27 0;
#X connect 8 0 20 1;
#X connect 10 0 11 0;
#X connect 13 0 14 0;
#X connect 14 0 19 0;
#X connect 14 0 20 0;
#X connect 19 0 10 0;
#X connect 20 0 7 0;
#X connect 20 0 10 1;
#X connect 23 0 0 0;
#X connect 25 0 0 1;
#X connect 26 0 0 0;
#X connect 27 0 10 0;
#X connect 27 1 20 0;
