#N canvas 503 156 1009 729 12;
#X obj 256 137 delay 500;
#X obj 298 169 delay 250;
#X obj 329 219 delay 125;
#X obj 214 67 tgl 19 0 empty empty empty 0 -10 0 12 #fcfcfc #000000 #000000 0 1;
#X obj 216 131 bng 19 250 50 0 empty empty empty 0 -10 0 12 #fcfcfc #000000 #000000;
#X obj 256 165 bng 19 250 50 0 empty empty empty 0 -10 0 12 #fcfcfc #000000 #000000;
#X obj 298 198 bng 19 250 50 0 empty empty empty 0 -10 0 12 #fcfcfc #000000 #000000;
#X obj 328 243 bng 19 250 50 0 empty empty empty 0 -10 0 12 #fcfcfc #000000 #000000;
#X obj 230 309 delay 1000;
#X text 46 310 jeder bang lässt;
#X text 44 415 -> nur der letzte bang (der alles überschreibt);
#X obj 185 358 timer;
#X floatatom 185 382 5 0 0 0 - - - 0;
#X text 45 430 wird nach 1875ms ausgegeben (letzter bang + 1000ms);
#X text 4 326 [delay] von neuem zählen;
#X text 59 41 mit [delay] können rhytmische strukturen erzeugt werden:;
#X text 309 100 0 msc;
#X text 342 137 500 msc;
#X text 373 172 750 msc;
#X text 406 219 875 msc;
#X text 317 71 akkumulierende zeit;
#X obj 381 325 print pipe;
#X obj 481 340 noise~;
#X obj 518 407 vline~;
#X obj 487 447 *~;
#X obj 488 499 output~;
#X msg 337 377 1 1 \, 0 90 10;
#X obj 348 300 pipe 1000;
#X obj 518 431 pow~ 4;
#X obj 481 364 hip~ 5000;
#X obj 216 95 metro 1000;
#X obj 348 324 t b;
#X connect 0 0 1 0;
#X connect 0 0 5 0;
#X connect 1 0 2 0;
#X connect 1 0 6 0;
#X connect 2 0 7 0;
#X connect 3 0 30 0;
#X connect 4 0 8 0;
#X connect 4 0 11 0;
#X connect 4 0 27 0;
#X connect 5 0 8 0;
#X connect 5 0 27 0;
#X connect 6 0 8 0;
#X connect 6 0 27 0;
#X connect 7 0 8 0;
#X connect 7 0 27 0;
#X connect 8 0 11 1;
#X connect 11 0 12 0;
#X connect 22 0 29 0;
#X connect 23 0 28 0;
#X connect 24 0 25 0;
#X connect 26 0 23 0;
#X connect 27 0 21 0;
#X connect 27 0 31 0;
#X connect 28 0 24 1;
#X connect 29 0 24 0;
#X connect 30 0 0 0;
#X connect 30 0 4 0;
#X connect 31 0 26 0;
