#N canvas 255 51 1222 873 12;
#X text 61 13 Mehr Data-Flow-Objekte;
#X obj 65 158 moses 50;
#X floatatom 65 218 5 0 0 0 - - - 0;
#X floatatom 118 218 5 0 0 0 - - - 0;
#X floatatom 65 121 5 0 0 0 - - - 0;
#X text 61 60 [moses];
#X floatatom 717 357 5 0 0 0 - - - 0;
#X floatatom 741 394 5 0 0 0 - - - 0;
#X floatatom 766 422 5 0 0 0 - - - 0;
#X msg 760 219 2 500;
#X floatatom 812 177 5 0 0 0 - - - 0;
#X msg 812 219 3 \$1;
#X obj 831 343 print rejected;
#X text 705 150 route;
#X obj 66 381 spigot;
#X floatatom 67 325 5 0 0 0 - - - 0;
#X floatatom 66 436 5 0 0 0 - - - 0;
#X obj 105 352 tgl 19 0 empty empty empty 0 -10 0 12 #fcfcfc #000000 #000000 0 1;
#X text 147 352 >0 \, -> Daten fließen durch;
#X text 57 280 [spigot] verhält sich wie eine Art Tor \, dass den Datenstrom nur durchlässt \, wenn der Wert im rechten Inlet >0 ist.;
#X msg 776 270 das funktioniert nicht;
#X text 705 45 Ähnlich wie [select] ordnet [route] seinen Input verschiedenen Outputs zu.;
#X text 703 77 Anders als [select] kann [route] Listen \, Floats oder Text ausgeben.;
#X text 705 109 Dabei braucht es für die Zuordnungzwei Werte: eine "flag" und die dazugehörige Message (das \, was gesendet werden soll);
#X floatatom 992 364 5 0 0 0 - - - 0;
#X floatatom 1036 401 5 0 0 0 - - - 0;
#X floatatom 1091 429 5 0 0 0 - - - 0;
#X floatatom 1139 194 5 0 0 0 - - - 0;
#X obj 1164 395 print rejected;
#X listbox 1153 360 23 0 0 0 - - - 0;
#X obj 1153 337 list;
#X msg 990 230 eins 100;
#X msg 1063 229 zwei 500;
#X msg 1136 227 drei \$1;
#X text 298 496 [change];
#X obj 215 530 change;
#X obj 214 580 print;
#X msg 215 497 1;
#X msg 252 495 0;
#X obj 269 572 bng 19 250 50 0 empty empty empty 0 -10 0 12 #fcfcfc #000000 #000000;
#X text 134 156 [moses] teilt den Zahlenstrom ab der angegebenen Zahl;
#X floatatom 1162 33 5 0 0 0 - - - 0;
#X obj 1162 69 select 0 1 2 3 4;
#X floatatom 123 112 5 0 0 0 - - - 0;
#X obj 1163 113 print;
#X obj 215 448 random 2;
#X obj 216 471 select 0 1;
#X obj 213 400 tgl 19 0 empty empty empty 0 -10 0 12 #fcfcfc #000000 #000000 0 1;
#X obj 213 424 metro 50;
#X msg 568 194 hallo 100 500 6000 hund;
#X obj 734 305 route 2 3 hallo, f 16;
#X obj 992 305 route eins zwei drei das;
#X msg 1139 274 das funktioniert;
#X obj 1145 436 print das;
#X connect 1 0 2 0;
#X connect 1 1 3 0;
#X connect 4 0 1 0;
#X connect 9 0 50 0;
#X connect 10 0 11 0;
#X connect 11 0 50 0;
#X connect 14 0 16 0;
#X connect 15 0 14 0;
#X connect 17 0 14 1;
#X connect 20 0 50 0;
#X connect 27 0 33 0;
#X connect 30 0 29 0;
#X connect 31 0 51 0;
#X connect 32 0 51 0;
#X connect 33 0 51 0;
#X connect 35 0 36 0;
#X connect 35 0 39 0;
#X connect 37 0 35 0;
#X connect 38 0 35 0;
#X connect 41 0 42 0;
#X connect 42 0 44 0;
#X connect 43 0 1 1;
#X connect 45 0 46 0;
#X connect 46 0 37 0;
#X connect 46 1 38 0;
#X connect 47 0 48 0;
#X connect 48 0 45 0;
#X connect 49 0 50 0;
#X connect 50 0 6 0;
#X connect 50 1 7 0;
#X connect 50 2 8 0;
#X connect 50 3 12 0;
#X connect 51 0 24 0;
#X connect 51 1 25 0;
#X connect 51 2 26 0;
#X connect 51 3 53 0;
#X connect 51 4 28 0;
#X connect 51 4 30 0;
#X connect 52 0 51 0;
