#N canvas 135 87 1056 596 12;
#X obj 118 83 array define array1 500;
#X obj 724 330 tabwrite~ array2;
#X obj 722 249 adc~;
#X obj 682 292 bng 19 250 50 0 empty empty empty 0 -10 0 12 #fcfcfc #000000 #000000;
#X obj 545 490 dac~;
#N canvas 605 145 701 607 (subpatch) 0;
#X array array2 768000 float 0;
#X coords 0 1 767999 -1 200 140 1;
#X restore 100 262 graph;
#X obj 355 219 soundfiler;
#X msg 355 195 read -resize ../samples/monte.wav array2;
#X connect 2 0 1 0;
#X connect 3 0 1 0;
#X connect 7 0 6 0;
