#N canvas 124 156 1048 646 12;
#X obj 565 169 osc~;
#X floatatom 565 130 5 0 0 0 - - - 0;
#N canvas 208 246 450 278 (subpatch) 0;
#X array \$0-array1 100 float 3;
#A 0 0 0 0 0 0 0 0 0 0 0 0 0 0 0 0 0 0 0 0 0 0 0 0 0 0 0 0 0 0 0 0 0 0 0 0 0 0 0 0 0 0 0 0 0 0 0 0 0 0 0 0 0 0 0 0 0 0 0 0 0 0 0 0 0 0 0 0 0 0 0 0 0 0 0 0 0 0 0 0 0 0 0 0 0 0 0 0 0 0 0 0 0 0 0 0 0 0 0 0 0;
#X coords 0 1 100 -1 200 140 1;
#X restore 795 225 graph;
#X obj 436 509 tabwrite~ \$0-array1;
#X obj 567 293 *~;
#X obj 678 33 vsl 19 162 0 1 0 0 empty empty empty 0 -9 0 12 #fcfcfc #000000 #000000 0 1;
#X obj 451 484 metro 50;
#X obj 451 450 tgl 19 0 empty empty empty 0 -10 0 12 #fcfcfc #000000 #000000 0 1;
#X floatatom 436 221 5 0 0 0 - - - 0;
#X obj 437 357 +~;
#X obj 680 336 -;
#X obj 680 306 1;
#X floatatom 680 363 5 0 0 0 - - - 0;
#X obj 680 276 t b f f;
#X obj 565 196 *~ 0.5;
#X obj 565 220 +~ 0.5;
#X text 677 13 Lautstärke Modulator;
#X obj 275 302 *~;
#X text 429 19 Gesamtlautstärke;
#X obj 436 47 vsl 19 162 0 1 0 0 empty empty empty 0 -9 0 12 #fcfcfc #000000 #000000 0 1;
#X obj 274 397 dac~;
#X obj 437 262 *;
#X obj 684 402 t b f;
#X obj 437 291 pack f 10;
#X obj 437 315 line~;
#X obj 609 244 pack f 10;
#X obj 609 267 line~;
#X text 22 27 AM mit Fade im Modulationssignal;
#X text 566 104 MOD;
#X obj 272 256 osc~ 440;
#X floatatom 271 227 5 0 0 0 - - - 0;
#X floatatom 703 209 5 0 0 0 - - - 0;
#X connect 0 0 14 0;
#X connect 1 0 0 0;
#X connect 4 0 9 1;
#X connect 5 0 13 0;
#X connect 5 0 31 0;
#X connect 6 0 3 0;
#X connect 7 0 6 0;
#X connect 8 0 21 0;
#X connect 9 0 17 1;
#X connect 9 0 3 0;
#X connect 10 0 12 0;
#X connect 11 0 10 0;
#X connect 12 0 22 0;
#X connect 13 0 11 0;
#X connect 13 1 10 1;
#X connect 13 2 25 0;
#X connect 14 0 15 0;
#X connect 15 0 4 0;
#X connect 17 0 20 0;
#X connect 17 0 20 1;
#X connect 19 0 8 0;
#X connect 21 0 23 0;
#X connect 22 0 21 0;
#X connect 22 1 21 1;
#X connect 23 0 24 0;
#X connect 24 0 9 0;
#X connect 25 0 26 0;
#X connect 26 0 4 1;
#X connect 29 0 17 0;
#X connect 30 0 29 0;
