#N canvas 150 188 813 601 12;
#X obj 163 314 osc~;
#X obj 312 177 +;
#X obj 289 132 t b f;
#X obj 170 124 + 50;
#X obj 170 148 t f f;
#X obj 276 318 osc~;
#X obj 161 380 *~ 0.5;
#X obj 278 393 *~ 0.5;
#X obj 213 429 +~;
#X obj 211 535 dac~;
#X obj 170 22 bng 19 250 50 0 empty empty empty 0 -10 0 12 #fcfcfc #000000 #000000;
#X obj 170 100 random 2000;
#X obj 289 108 random 16;
#X obj 214 214 pack f f f;
#X text 524 238 aufgabe: gliss + envelope;
#X text 533 271 -> abstraction;
#X floatatom 388 174 5 0 0 0 - - - 0;
#X obj 219 279 line~;
#X msg 212 247 \$1 \, \$2 \$3;
#X obj 210 469 *~;
#X msg 400 301 0 \, 1 500 \, 0 500 4500;
#X obj 400 353 vline~;
#X obj 170 63 t b b b;
#X connect 0 0 6 0;
#X connect 1 0 13 1;
#X connect 2 0 1 0;
#X connect 2 1 1 1;
#X connect 3 0 4 0;
#X connect 4 0 0 0;
#X connect 4 0 13 0;
#X connect 4 1 1 0;
#X connect 5 0 7 0;
#X connect 6 0 8 0;
#X connect 7 0 8 0;
#X connect 8 0 19 0;
#X connect 10 0 22 0;
#X connect 11 0 3 0;
#X connect 12 0 2 0;
#X connect 13 0 18 0;
#X connect 16 0 13 2;
#X connect 17 0 5 0;
#X connect 18 0 17 0;
#X connect 19 0 9 0;
#X connect 19 0 9 1;
#X connect 20 0 21 0;
#X connect 21 0 19 1;
#X connect 22 0 11 0;
#X connect 22 1 12 0;
#X connect 22 2 20 0;
