#N canvas 24 38 706 614 12;
#X obj 110 202 oscu;
#X text 520 98 random freq;
#X text 519 126 random volume;
#X obj 102 332 output~;
#X obj 434 100 bng 19 250 50 0 empty empty empty 0 -10 0 12 #fcfcfc #000000 #000000;
#X obj 431 136 s bang;
#X obj 155 203 oscu;
#X obj 197 204 oscu;
#X obj 242 205 oscu;
#X obj 284 205 oscu;
#X obj 329 206 oscu;
#X obj 371 207 oscu;
#X obj 416 208 oscu;
#X obj 109 231 oscu;
#X obj 154 232 oscu;
#X obj 196 233 oscu;
#X obj 241 234 oscu;
#X obj 283 234 oscu;
#X obj 328 235 oscu;
#X obj 370 236 oscu;
#X obj 415 237 oscu;
#X obj 107 280 /~ 16;
#X connect 0 0 21 0;
#X connect 4 0 5 0;
#X connect 6 0 21 0;
#X connect 7 0 21 0;
#X connect 8 0 21 0;
#X connect 9 0 21 0;
#X connect 10 0 21 0;
#X connect 11 0 21 0;
#X connect 12 0 21 0;
#X connect 13 0 21 0;
#X connect 14 0 21 0;
#X connect 15 0 21 0;
#X connect 16 0 21 0;
#X connect 17 0 21 0;
#X connect 18 0 21 0;
#X connect 19 0 21 0;
#X connect 20 0 21 0;
#X connect 21 0 3 0;
