#N canvas 28 49 1182 809 12;
#X obj 94 251 osci 1;
#X obj 236 250 osci 2;
#X obj 357 250 osci 3;
#X obj 481 250 osci 4;
#X obj 597 250 osci 5;
#X obj 718 250 osci 6;
#X obj 847 250 osci 7;
#X obj 969 250 osci 8;
#X obj 360 382 /~ 8;
#X obj 349 432 env~;
#X obj 349 456 - 100;
#X obj 291 415 vu 19 200 empty empty -1 -10 0 12 #404040 #000000 1 0;
#X obj 93 95 bng 19 250 50 0 empty empty empty 0 -10 0 12 #fcfcfc #000000 #000000;
#N canvas 139 463 450 300 rand1 0;
#X obj 57 62 inlet;
#X obj 64 185 s 1-freq;
#X obj 156 189 s 1-vol;
#X obj 156 129 random 100;
#X obj 64 157 + 100;
#X obj 64 129 random 2000;
#X obj 64 102 t b b;
#X obj 157 164 / 100;
#X connect 0 0 6 0;
#X connect 3 0 7 0;
#X connect 4 0 1 0;
#X connect 5 0 4 0;
#X connect 6 0 5 0;
#X connect 6 1 3 0;
#X connect 7 0 2 0;
#X restore 93 130 pd rand1;
#X obj 224 95 bng 19 250 50 0 empty empty empty 0 -10 0 12 #fcfcfc #000000 #000000;
#X obj 358 95 bng 19 250 50 0 empty empty empty 0 -10 0 12 #fcfcfc #000000 #000000;
#X obj 477 95 bng 19 250 50 0 empty empty empty 0 -10 0 12 #fcfcfc #000000 #000000;
#X obj 591 95 bng 19 250 50 0 empty empty empty 0 -10 0 12 #fcfcfc #000000 #000000;
#X obj 720 95 bng 19 250 50 0 empty empty empty 0 -10 0 12 #fcfcfc #000000 #000000;
#X obj 833 95 bng 19 250 50 0 empty empty empty 0 -10 0 12 #fcfcfc #000000 #000000;
#X obj 965 95 bng 19 250 50 0 empty empty empty 0 -10 0 12 #fcfcfc #000000 #000000;
#N canvas 139 463 450 300 rand2 0;
#X obj 57 62 inlet;
#X obj 156 129 random 100;
#X obj 64 157 + 100;
#X obj 64 129 random 2000;
#X obj 64 102 t b b;
#X obj 157 164 / 100;
#X obj 64 185 s 2-freq;
#X obj 156 189 s 2-vol;
#X connect 0 0 4 0;
#X connect 1 0 5 0;
#X connect 2 0 6 0;
#X connect 3 0 2 0;
#X connect 4 0 3 0;
#X connect 4 1 1 0;
#X connect 5 0 7 0;
#X restore 224 130 pd rand2;
#N canvas 139 463 450 300 rand3 1;
#X obj 57 62 inlet;
#X obj 156 129 random 100;
#X obj 64 157 + 100;
#X obj 64 129 random 2000;
#X obj 64 102 t b b;
#X obj 157 164 / 100;
#X obj 64 185 s 3-freq;
#X obj 156 189 s 3-vol;
#X connect 0 0 4 0;
#X connect 1 0 5 0;
#X connect 2 0 6 0;
#X connect 3 0 2 0;
#X connect 4 0 3 0;
#X connect 4 1 1 0;
#X connect 5 0 7 0;
#X restore 358 130 pd rand3;
#N canvas 1126 163 450 300 rand4 1;
#X obj 57 62 inlet;
#X obj 156 129 random 100;
#X obj 64 157 + 100;
#X obj 64 129 random 2000;
#X obj 64 102 t b b;
#X obj 157 164 / 100;
#X obj 64 185 s 4-freq;
#X obj 156 189 s 4-vol;
#X connect 0 0 4 0;
#X connect 1 0 5 0;
#X connect 2 0 6 0;
#X connect 3 0 2 0;
#X connect 4 0 3 0;
#X connect 4 1 1 0;
#X connect 5 0 7 0;
#X restore 477 130 pd rand4;
#N canvas 139 463 450 300 rand5 0;
#X obj 57 62 inlet;
#X obj 156 129 random 100;
#X obj 64 157 + 100;
#X obj 64 129 random 2000;
#X obj 64 102 t b b;
#X obj 157 164 / 100;
#X obj 64 185 s 5-freq;
#X obj 156 189 s 5-vol;
#X connect 0 0 4 0;
#X connect 1 0 5 0;
#X connect 2 0 6 0;
#X connect 3 0 2 0;
#X connect 4 0 3 0;
#X connect 4 1 1 0;
#X connect 5 0 7 0;
#X restore 591 130 pd rand5;
#N canvas 139 463 450 300 rand6 0;
#X obj 57 62 inlet;
#X obj 156 129 random 100;
#X obj 64 157 + 100;
#X obj 64 129 random 2000;
#X obj 64 102 t b b;
#X obj 157 164 / 100;
#X obj 64 185 s 6-freq;
#X obj 156 189 s 6-vol;
#X connect 0 0 4 0;
#X connect 1 0 5 0;
#X connect 2 0 6 0;
#X connect 3 0 2 0;
#X connect 4 0 3 0;
#X connect 4 1 1 0;
#X connect 5 0 7 0;
#X restore 720 130 pd rand6;
#N canvas 139 463 450 300 rand7 0;
#X obj 57 62 inlet;
#X obj 156 129 random 100;
#X obj 64 157 + 100;
#X obj 64 129 random 2000;
#X obj 64 102 t b b;
#X obj 157 164 / 100;
#X obj 64 185 s 7-freq;
#X obj 156 189 s 7-vol;
#X connect 0 0 4 0;
#X connect 1 0 5 0;
#X connect 2 0 6 0;
#X connect 3 0 2 0;
#X connect 4 0 3 0;
#X connect 4 1 1 0;
#X connect 5 0 7 0;
#X restore 833 130 pd rand7;
#N canvas 139 463 450 300 rand8 0;
#X obj 57 62 inlet;
#X obj 156 129 random 100;
#X obj 64 157 + 100;
#X obj 64 129 random 2000;
#X obj 64 102 t b b;
#X obj 157 164 / 100;
#X obj 64 185 s 8-freq;
#X obj 156 189 s 8-vol;
#X connect 0 0 4 0;
#X connect 1 0 5 0;
#X connect 2 0 6 0;
#X connect 3 0 2 0;
#X connect 4 0 3 0;
#X connect 4 1 1 0;
#X connect 5 0 7 0;
#X restore 965 130 pd rand8;
#X obj 440 469 output~;
#X obj 477 4 bng 19 250 50 0 empty empty empty 0 -10 0 12 #fcfcfc #000000 #000000;
#X text 760 543 aufgabe: patch so umschreiben \, dass die random-boundaries der frequenzen (high - low) angegeben werden können.;
#X text 771 656 random-evnvelopes;
#X text 764 498 -> Abstractions können mit creation-Arguments einzeln angesteuert werden;
#X connect 0 0 8 0;
#X connect 1 0 8 0;
#X connect 2 0 8 0;
#X connect 3 0 8 0;
#X connect 4 0 8 0;
#X connect 5 0 8 0;
#X connect 6 0 8 0;
#X connect 7 0 8 0;
#X connect 8 0 9 0;
#X connect 8 0 28 0;
#X connect 9 0 10 0;
#X connect 10 0 11 0;
#X connect 12 0 13 0;
#X connect 14 0 21 0;
#X connect 15 0 22 0;
#X connect 16 0 23 0;
#X connect 17 0 24 0;
#X connect 18 0 25 0;
#X connect 19 0 26 0;
#X connect 20 0 27 0;
#X connect 29 0 12 0;
#X connect 29 0 14 0;
#X connect 29 0 20 0;
#X connect 29 0 19 0;
#X connect 29 0 18 0;
#X connect 29 0 17 0;
#X connect 29 0 16 0;
#X connect 29 0 15 0;
