#N canvas 1215 148 690 572 12;
#X obj 110 46 r \$1-freq;
#X obj 85 7 r \$1-vol;
#X obj 99 229 osc~;
#X obj 192 331 line~;
#X obj 192 370 *~;
#X obj 129 419 outlet~;
#X floatatom 104 123 5 0 0 0 - - - 0;
#X floatatom 159 147 5 0 0 0 freq - - 0;
#X obj 106 100 hsl 50 19 0 1 0 0 empty empty empty -2 -10 0 12 #fcfcfc #000000 #000000 0 1;
#X obj 201 407 *~;
#X obj 327 343 expr if($f1 >= $f2 \, 1 \, 0);
#X obj 328 147 r volslider;
#X obj 449 267 \$1;
#X obj 328 171 t f b;
#X obj 324 382 pack f 500;
#X obj 324 406 line~;
#X obj 192 307 pack f 1000;
#X connect 0 0 2 0;
#X connect 0 0 7 0;
#X connect 1 0 8 0;
#X connect 2 0 4 1;
#X connect 3 0 4 0;
#X connect 4 0 5 0;
#X connect 6 0 16 0;
#X connect 8 0 6 0;
#X connect 10 0 14 0;
#X connect 11 0 13 0;
#X connect 12 0 10 1;
#X connect 13 0 10 0;
#X connect 13 1 12 0;
#X connect 14 0 15 0;
#X connect 15 0 9 1;
#X connect 16 0 3 0;
#X coords 0 -1 1 1 100 70 2 100 100;
