#N canvas 746 66 971 873 12;
#X obj 135 194 osc~;
#X obj 134 221 *~;
#X obj 133 249 outlet~;
#X obj 316 182 line~;
#X obj 315 147 pack f 10;
#X obj 137 88 random 4051;
#X obj 136 126 + 50;
#X floatatom 135 167 5 0 0 0 - - - 0;
#X obj 315 85 random 101;
#X obj 315 115 / 100;
#X obj 137 60 r bang;
#X connect 0 0 1 0;
#X connect 1 0 2 0;
#X connect 3 0 1 1;
#X connect 4 0 3 0;
#X connect 5 0 6 0;
#X connect 6 0 7 0;
#X connect 7 0 0 0;
#X connect 8 0 9 0;
#X connect 9 0 4 0;
#X connect 10 0 5 0;
#X connect 10 0 8 0;
