#N canvas 188 356 1424 891 12;
#X obj 263 363 osc~;
#X obj 259 239 + 50;
#X obj 259 269 t f f;
#X obj 365 388 osc~;
#X obj 263 390 *~ 0.5;
#X obj 366 414 *~ 0.5;
#X obj 264 425 +~;
#X obj 259 215 random 2000;
#X obj 236 182 t b b b;
#X obj 404 235 random 33;
#X obj 404 258 - 10;
#X obj 367 289 +;
#X obj 315 313 pack f f;
#X msg 315 336 \$1 \, \$2 2000;
#X obj 315 359 line~;
#X obj 118 354 vline~;
#X msg 119 313 0 \, 1 500 \, 0 1000 2000;
#X obj 264 458 *~;
#X obj 264 485 throw~ sig;
#X obj 236 137 r \$1-bang;
#X obj 730 180 r \$1/16;
#X obj 730 204 bng 19 250 50 0 empty empty empty 0 -10 0 12 #fcfcfc #000000 #000000;
#X connect 0 0 4 0;
#X connect 1 0 2 0;
#X connect 2 0 0 0;
#X connect 2 0 12 0;
#X connect 2 1 11 0;
#X connect 3 0 5 0;
#X connect 4 0 6 0;
#X connect 5 0 6 0;
#X connect 6 0 17 0;
#X connect 7 0 1 0;
#X connect 8 0 16 0;
#X connect 8 1 7 0;
#X connect 8 2 9 0;
#X connect 9 0 10 0;
#X connect 10 0 11 1;
#X connect 11 0 12 1;
#X connect 12 0 13 0;
#X connect 13 0 14 0;
#X connect 14 0 3 0;
#X connect 15 0 17 1;
#X connect 16 0 15 0;
#X connect 17 0 18 0;
#X connect 19 0 8 0;
#X connect 20 0 21 0;
