#N canvas 1014 28 1469 939 12;
#X obj 317 339 catch~ sig;
#X obj 317 405 output~;
#X obj 103 287 _beat 1;
#X obj 160 287 _beat 2;
#X obj 109 251 s 1-bang;
#X obj 184 253 s 2-bang;
#X obj 217 287 _beat 3;
#X obj 275 287 _beat 4;
#X obj 335 286 _beat 5;
#X obj 394 286 _beat 6;
#X obj 257 255 s 3-bang;
#X obj 332 257 s 4-bang;
#X obj 400 257 s 5-bang;
#X obj 475 259 s 6-bang;
#X obj 451 287 _beat 7;
#X obj 116 86 f;
#X obj 116 109 + 1;
#X obj 116 150 mod 7;
#X floatatom 116 173 5 0 0 0 - - - 0;
#X obj 121 27 tgl 19 0 empty empty empty 0 -10 0 12 #fcfcfc #000000 #000000 0 1;
#X obj 115 55 metro 500;
#X obj 116 200 sel 0 1 2 3 4 5 6;
#X obj 682 271 s 1/16;
#X obj 686 209 bng 19 250 50 0 empty empty empty 0 -10 0 12 #fcfcfc #000000 #000000;
#X connect 0 0 1 0;
#X connect 15 0 16 0;
#X connect 16 0 17 0;
#X connect 17 0 18 0;
#X connect 17 0 15 1;
#X connect 18 0 21 0;
#X connect 19 0 20 0;
#X connect 20 0 15 0;
#X connect 21 0 4 0;
#X connect 21 1 5 0;
#X connect 21 2 10 0;
#X connect 21 3 11 0;
#X connect 21 4 12 0;
#X connect 21 5 13 0;
#X connect 23 0 22 0;
