#N canvas 135 66 885 710 12;
#X text 84 43 Pure Data (Abkürzung: Pd) ist eine datenstromorientierte Programmiersprache und Entwicklungsumgebung \, die visuelle Programmierung benutzt. Eine visuelle Programmiersprache ist eine Art von Programmiersprache \, bei der Programme nicht durch das Schreiben von textbasiertem Code \, sondern durch das Manipulieren von visuellen Elementen oder grafischen Symbolen erstellt werden können (in diesem Fall: Boxen \, „Kabel“ \, Arrays etc.). Diese visuellen Elemente repräsentieren verschiedene Programmierkonzepte und Abläufe \, die miteinander verbunden oder angeordnet werden \, um die Funktionalität des Programms zu definieren.;
#X msg 85 228 "hello world";
#X obj 85 270 print;
#X text 217 273 https://en.wikipedia.org/wiki/%22Hello \, _World!%22_program;
#X floatatom 90 443 5 0 0 0 - - - 0;
#X obj 90 473 + 1;
#X floatatom 90 504 5 0 0 0 - - - 0;
#X obj 90 534 * 10;
#X floatatom 90 565 5 0 0 0 - - - 0;
#X text 212 225 <----- Klick auf die Message-Box;
#X text 67 464 |;
#X text 67 475 |;
#X text 67 485 |;
#X text 67 496 |;
#X text 67 505 |;
#X text 67 516 |;
#X text 67 526 |;
#X text 67 537 |;
#X text 67 527 |;
#X text 67 538 |;
#X text 67 548 |;
#X text 67 559 |;
#X text 67 566 v;
#X text 84 351 Pure Data verwendet eine Art der Programmierung \, die als Datenfluss ("dataflow") bezeichnet wird \, weil die Daten entlang von Verbindungen und durch Objekte fließen \, die sie verarbeiten. Die Ausgabe eines Prozesses fließt in die Eingabe eines anderen ein \, mit beliebig vielen Zwischenschritten.;
#X text 159 441 <----- auf die Number-Box klicken \, halten und Cursor nach oben und unten bewegen;
#X connect 1 0 2 0;
#X connect 4 0 5 0;
#X connect 5 0 6 0;
#X connect 6 0 7 0;
#X connect 7 0 8 0;
