#N canvas 186 39 478 599 12;
#X text 21 19 MESSAGE UND SIGNAL;
#X text 20 59 Pure Data unterschiedet zwischen Message-Daten Und Signal-Daten (Audio).;
#X text 20 184 Message-Daten werden nicht kontinuierlich geschickt.;
#X text 20 272 Signal-Daten werden kontinuiertlich (nach Samplerate) ausgegeben.;
#X text 19 324 Die Verbindungen zwischen Boxen für Message-Daten sind "dünne" \, für Signal-Daten "dicke Kabel".;
#X text 22 211 Wenn Objekte mit Signal-Daten arbeiten \, steht am Ende des Objektnames "~" (Tilde).;
#X obj 25 247 +;
#X obj 77 247 +~;
#X obj 61 377 +~;
#X obj 61 415 *~;
#X obj 24 377 +;
#X obj 24 415 *;
#X obj 61 521 +~;
#X obj 61 561 *~;
#X obj 24 521 +;
#X obj 24 559 *;
#X text 23 471 Signal-Daten können nicht mit Message-Inlets verbunden werden.;
#X text 21 100 Message-Daten können alles mögliche beinhalten: Zahlen \, Text \, Bangs \, Listen \, bishin zu allen Parametern einer Partitur.;
#X connect 8 0 9 0;
#X connect 10 0 11 0;
