#N canvas 321 38 1191 693 12;
#X obj 120 315 +;
#X floatatom 120 276 5 0 0 0 - - - 0;
#X floatatom 120 361 5 0 0 0 - - - 0;
#X floatatom 198 270 5 0 0 0 - - - 0;
#X floatatom 198 359 5 0 0 0 - - - 0;
#X obj 198 314 +;
#X text 118 232 gut;
#X text 199 235 schlecht;
#X obj 119 107 +;
#X floatatom 119 45 5 0 0 0 - - - 0;
#X floatatom 137 78 5 0 0 0 - - - 0;
#X floatatom 119 132 5 0 0 0 - - - 0;
#X text 200 39 Die meisten Pd-Objekte \, die Message-Daten verarbeiten \, haben einen "Hot" und einen oder mehrere "Cold" inlets. Message-Daten \, die in den "Hot"-Inlet fließen \, aktivieren die Box (mit gleichzeitiger Ausgabe / Output). Message-Daten \, die in "Cold"-Inlets fließen \, verändern zwar das \, was in der Box passiert \, das Erbegnis wird aber erst nach;
#X text 538 259 Der Datenstrom wird in der Reihenfolge \, in der die Inlets verbunden werden \, computiert. Dies hat zur Folge \, dass \, wie in diesem Beispiel \, völlig identisch aussehende Patches unterschiedliche Ergebnisse Produzieren. Rechts wurde von der Number-Box zuerst der Hot \, dann der Cold-Inlet des [+] verbunden \, was bedeutet \, dass der Input des Cold-Inlet erst nach dem Hot-Inlet computiert wird und die Rechnung nicht stimmt.;
#X floatatom 252 434 5 0 0 0 - - - 0;
#X obj 188 504 +;
#X floatatom 188 542 5 0 0 0 - - - 0;
#X floatatom 188 435 5 0 0 0 - - - 0;
#X obj 252 468 trigger b f;
#X floatatom 39 439 5 0 0 0 - - - 0;
#X obj 39 528 +;
#X floatatom 39 566 5 0 0 0 - - - 0;
#X text 532 460 Das Trigger-Objekt [trigger] oder [t] unterteilt Messages und schickt diese in Reihenfolge (rechts - links) auf die jeweiligen Outlets.;
#X obj 81 62 bng 19 250 50 0 empty empty empty 0 -10 0 12 #fcfcfc #000000 #000000;
#X floatatom 270 269 5 0 0 0 - - - 0;
#X floatatom 270 358 5 0 0 0 - - - 0;
#X obj 270 313 +;
#X obj 775 48 bng 19 250 50 0 empty empty empty 17 7 0 10 #dfdfdf #000000 #000000;
#X obj 775 96 trigger bang bang bang;
#X obj 926 151 print 1st;
#X obj 850 151 print 2nd;
#X obj 775 151 print 3rd;
#X text 797 47 create a bang sequence;
#X obj 323 507 print;
#X obj 258 537 print;
#X obj 586 168 trigger bang float;
#X obj 39 469 trigger float float;
#X connect 0 0 2 0;
#X connect 1 0 0 1;
#X connect 1 0 0 0;
#X connect 3 0 5 0;
#X connect 3 0 5 1;
#X connect 5 0 4 0;
#X connect 8 0 11 0;
#X connect 9 0 8 0;
#X connect 10 0 8 1;
#X connect 14 0 18 0;
#X connect 15 0 16 0;
#X connect 17 0 15 0;
#X connect 18 0 34 0;
#X connect 18 0 15 0;
#X connect 18 1 33 0;
#X connect 18 1 15 1;
#X connect 19 0 36 0;
#X connect 20 0 21 0;
#X connect 23 0 8 0;
#X connect 24 0 26 0;
#X connect 24 0 26 1;
#X connect 26 0 25 0;
#X connect 27 0 28 0;
#X connect 28 0 31 0;
#X connect 28 1 30 0;
#X connect 28 2 29 0;
#X connect 36 0 20 0;
#X connect 36 1 20 1;
