#N canvas 414 25 1049 805 12;
#X floatatom 82 77 5 0 0 0 - - - 0;
#X text 169 109 Frequenz;
#X obj 83 598 dac~;
#X obj 83 516 *~;
#X text 121 513 Lautstärke;
#X text 170 137 Sinuswelle (440hz);
#X obj 243 293 vsl 19 162 0 127 0 0 empty empty empty 0 -9 0 12 #fcfcfc #000000 #000000 0 1;
#X text 123 526 Wichtig: erstmal nicht über Wert 1 gehen!;
#X obj 242 465 / 127;
#X msg 484 240 \; pd dsp \$1, f 11;
#X obj 484 205 tgl 19 0 empty empty empty 0 -10 0 12 #fcfcfc #000000 #000000 0 1;
#X text 482 175 Schaltet das DSP ein/aus;
#X text 130 599 Ausgabe;
#X text 291 352 Slider (0-127);
#X text 290 464 / 127 = Werte zwischen 0......1;
#X floatatom 245 499 5 0 0 0 - - - 0;
#X obj 84 137 osc~ 440;
#X obj 80 547 clip~ -1 1;
#X connect 0 0 16 0;
#X connect 3 0 17 0;
#X connect 6 0 8 0;
#X connect 8 0 3 1;
#X connect 8 0 15 0;
#X connect 10 0 9 0;
#X connect 16 0 3 0;
#X connect 17 0 2 0;
#X connect 17 0 2 1;
