#N canvas 618 30 674 698 12;
#X floatatom 272 63 5 0 0 0 - - - 0;
#X obj 273 104 trigger f f, f 15;
#X obj 273 136 + 1;
#X floatatom 273 168 5 0 0 0 - - - 0;
#X obj 273 199 * 5;
#X floatatom 273 231 5 0 0 0 - - - 0;
#X obj 377 133 pow 2;
#X floatatom 377 160 5 0 0 0 - - - 0;
#X obj 378 192 / 4;
#X floatatom 376 230 5 0 0 0 - - - 0;
#X obj 322 292 +;
#X floatatom 322 336 5 0 0 0 - - - 0;
#X connect 0 0 1 0;
#X connect 1 0 2 0;
#X connect 1 1 6 0;
#X connect 2 0 3 0;
#X connect 3 0 4 0;
#X connect 4 0 5 0;
#X connect 5 0 10 0;
#X connect 6 0 7 0;
#X connect 7 0 8 0;
#X connect 8 0 9 0;
#X connect 9 0 10 1;
#X connect 10 0 11 0;
