#N canvas 347 38 942 801 12;
#X obj 132 109 spigot;
#X obj 35 41 bng 19 250 50 0 empty empty empty 0 -10 0 12 #fcfcfc #000000 #000000;
#X obj 172 75 tgl 19 0 empty empty empty 0 -10 0 12 #fcfcfc #000000 #000000 0 1;
#X obj 42 672 output~;
#X obj 140 566 osc~;
#X obj 773 626 mtof;
#X obj 772 532 t b f;
#X floatatom 772 503 5 0 0 0 - - - 0;
#X obj 773 592 + 3;
#X obj 480 273 sigmund~ -hop 4096 notes -minpower 90 -stabletime 50;
#X floatatom 830 617 5 0 0 0 - - - 0;
#X obj 40 258 fluid.pitch~;
#X floatatom 41 309 5 0 0 0 - - - 0;
#X obj 40 282 unpack f f;
#X floatatom 107 310 5 0 0 0 - - - 0;
#X obj 107 333 >= 0.978;
#X obj 107 357 change;
#X obj 41 405 spigot;
#X obj 107 381 tgl 19 0 empty empty empty 0 -10 0 12 #fcfcfc #000000 #000000 0 1;
#X floatatom 161 310 5 0 0 1 threshold - - 0;
#X floatatom 41 434 5 0 0 0 - - - 0;
#N canvas 0 22 450 278 (subpatch) 0;
#X array sample 768000 float 2;
#X coords 0 1 768000 -1 200 140 1 0 0;
#X restore 562 37 graph;
#X obj 88 41 soundfiler;
#X obj 35 82 tabplay~ sample;
#X msg 88 24 read -resize ../samples/monte.wav sample;
#X obj 35 106 s~ sig;
#X obj 480 249 r~ sig;
#X obj 40 234 r~ sig;
#X floatatom 481 302 5 0 0 0 - - - 0;
#X msg 118 217 unit \$1;
#X obj 121 174 vradio 19 1 0 2 empty empty empty 0 -10 0 12 #fcfcfc #000000 #000000 0;
#X text 147 169 0 = hertz;
#X text 145 191 1 = MIDI;
#X text 181 341 Values are gated here;
#X text 179 359 According to the "confidence";
#X text 178 372 output. Change the threshold;
#X text 180 386 to get a more active result.;
#X obj 140 534 expr $f1 * 5/4;
#X text 133 486 Freq * ratio = interval;
#X text 135 506 (f.e. 5/4 is a just third higher);
#X text 771 470 MIDI: + Interval;
#X obj 36 532 r~ sig;
#X obj 144 606 *~;
#X text 229 628 Left: Orig Signal;
#X text 232 647 Right: Ringmodulated Signal;
#X text 243 77 In This patch \, we wanna pitchrack an input;
#X text 244 113 for the mod freq of a ring mod.;
#X text 244 96 to get a constant and adaptive ratio;
#X connect 0 0 23 0;
#X connect 1 0 23 0;
#X connect 2 0 0 1;
#X connect 4 0 42 1;
#X connect 6 0 8 0;
#X connect 6 1 8 1;
#X connect 7 0 6 0;
#X connect 8 0 5 0;
#X connect 8 0 10 0;
#X connect 9 0 28 0;
#X connect 11 0 13 0;
#X connect 12 0 17 0;
#X connect 13 0 12 0;
#X connect 13 1 14 0;
#X connect 14 0 15 0;
#X connect 15 0 16 0;
#X connect 16 0 18 0;
#X connect 17 0 20 0;
#X connect 18 0 17 1;
#X connect 19 0 15 1;
#X connect 20 0 37 0;
#X connect 23 0 25 0;
#X connect 23 1 0 0;
#X connect 24 0 22 0;
#X connect 26 0 9 0;
#X connect 27 0 11 0;
#X connect 29 0 11 0;
#X connect 30 0 29 0;
#X connect 37 0 4 0;
#X connect 41 0 3 0;
#X connect 41 0 42 0;
#X connect 42 0 3 1;
