#N canvas 446 62 1199 769 12;
#X text 199 322 creation arguments: time (ms) / grain;
#X msg 97 199 39;
#X msg 74 132 stop;
#X text 110 135 "stop" message to stop output;
#X msg 87 166 set 5;
#X text 134 166 "set" to set initial ramp value (without output);
#X obj 64 66 tgl 19 0 empty empty empty 17 7 0 10 #dfdfdf #000000 #000000 0 1;
#X text 127 102 a pair sets target and ramp time;
#X text 131 193 A float jumps to the value if no ramp time is set via the middle inlet, f 37;
#X floatatom 85 371 8 0 0 0 - - - 0;
#X msg 107 250 5 \, 1 1000;
#X text 188 249 jump to 5 \, ramp to 1 in;
#X obj 73 421 print;
#X obj 73 320 line 100 20, f 15;
#X floatatom 174 288 5 0 0 0 - - - 0;
#X msg 64 103 \$1 3000;
#X connect 1 0 13 0;
#X connect 2 0 13 0;
#X connect 4 0 13 0;
#X connect 6 0 15 0;
#X connect 10 0 13 0;
#X connect 13 0 9 0;
#X connect 13 0 12 0;
#X connect 14 0 13 2;
#X connect 15 0 13 0;
