#N canvas 64 25 1113 805 12;
#X text 199 339 creation arguments: time (ms) / grain;
#X msg 74 136 stop;
#X text 110 139 "stop" message to stop output;
#X msg 87 170 set 5;
#X text 134 170 "set" to set initial ramp value (without output);
#X obj 64 50 tgl 19 0 empty empty empty 17 7 0 10 #dfdfdf #000000 #000000 0 1;
#X text 127 90 a pair sets target and ramp time;
#X text 131 197 A float jumps to the value if no ramp time is set via the middle inlet, f 37;
#X floatatom 85 388 8 0 0 0 - - - 0;
#X msg 104 239 5 \, 1 1000;
#X text 188 253 jump to 5 \, ramp to 1 in;
#X obj 73 434 print;
#X floatatom 174 305 5 0 0 0 - - - 0;
#X msg 64 91 \$1 5000;
#X msg 97 203 3;
#X obj 73 337 line 1000 20, f 15;
#X text 176 275 start 0 \, geh nach 3 in 5 sek ?;
#X msg 102 271 0 \, 3 5000;
#X connect 1 0 15 0;
#X connect 3 0 15 0;
#X connect 5 0 13 0;
#X connect 9 0 15 0;
#X connect 12 0 15 2;
#X connect 13 0 15 0;
#X connect 14 0 15 0;
#X connect 15 0 8 0;
#X connect 15 0 11 0;
#X connect 17 0 15 0;
