#N canvas 365 25 975 805 12;
#X obj 71 364 snapshot~;
#X obj 71 302 line~;
#X floatatom 72 386 8 0 0 0 - - - 0;
#X msg 32 26 1 1000;
#X msg 73 132 2;
#X msg 59 79 stop;
#X text 96 80 "stop" message freezes line~ at its current value;
#X msg 68 109 0;
#X floatatom 104 277 5 0 0 0 - - - 0;
#X text 107 114 a single number jumps to value immediately if no value is priorly sent to the right outlet, f 45;
#X text 146 270 right inlet sets next ramp time (cleared when ramp starts!), f 31;
#X text 99 26 a pair of numbers starts a ramp (first value: destination \, second: ramp time), f 38;
#X msg 44 49 0 5000;
#X obj 138 333 metro 100;
#X obj 138 306 loadbang;
#X msg 88 170 0 \, 1 1000;
#X text 167 163 setting start \, target and duration with two messages., f 28;
#X floatatom 103 207 5 0 0 0 - - - 0;
#X text 192 236 making a list of two numbers;
#X obj 103 234 pack f 1000;
#X connect 0 0 2 0;
#X connect 1 0 0 0;
#X connect 3 0 1 0;
#X connect 4 0 1 0;
#X connect 5 0 1 0;
#X connect 7 0 1 0;
#X connect 8 0 1 1;
#X connect 12 0 1 0;
#X connect 13 0 0 0;
#X connect 14 0 13 0;
#X connect 15 0 1 0;
#X connect 17 0 19 0;
#X connect 19 0 1 0;
