#N canvas 27 125 1016 650 12;
#X obj 160 331 line~;
#X obj 62 288 *~;
#X obj 61 402 dac~ 1 2;
#X text 50 19 Fade In - Out;
#X text 145 107 fade-in in 500 ms;
#X text 283 136 fade-out in 1000 ms;
#X obj 62 168 noise~;
#X msg 313 254 0 \, 1 500;
#X msg 314 348 0 1000;
#X obj 313 287 t b;
#X text 310 235 automatisiert mit delay;
#X msg 163 184 0 \, 1 5000;
#X msg 287 165 0 10;
#X obj 312 314 delay 500;
#X connect 0 0 1 1;
#X connect 1 0 2 0;
#X connect 1 0 2 1;
#X connect 6 0 1 0;
#X connect 7 0 0 0;
#X connect 7 0 9 0;
#X connect 8 0 0 0;
#X connect 9 0 13 0;
#X connect 11 0 0 0;
#X connect 12 0 0 0;
#X connect 13 0 8 0;
