#N canvas 27 125 1276 806 12;
#X obj 160 331 line~;
#X obj 62 288 *~;
#X obj 61 402 dac~ 1 2;
#X text 50 19 Fade In - Out;
#X text 283 136 fade-out in 1000 ms;
#X obj 61 161 noise~;
#X msg 314 348 0 1000;
#X obj 313 287 t b;
#X text 310 235 automatisiert mit delay;
#X msg 163 140 0 \, 1 500;
#X msg 287 165 0 1000;
#X text 145 107 start 0 \, fade-in in 500 ms;
#X obj 198 524 tabwrite~ \$0-array;
#X obj 209 496 metro 50;
#X obj 208 460 loadbang;
#N canvas 0 22 450 278 (subpatch) 0;
#X array \$0-array 100 float 3;
#A 0 0 0 0 0 0 0 0 0 0 0 0 0 0 0 0 0 0 0 0 0 0 0 0 0 0 0 0 0 0 0 0 0 0 0 0 0 0 0 0 0 0 0 0 0 0 0 0 0 0 0 0 0 0 0 0 0 0 0 0 0 0 0 0 0 0 0 0 0 0 0 0 0 0 0 0 0 0 0 0 0 0 0 0 0 0 0 0 0 0 0 0 0 0 0 0 0 0 0 0 0;
#X coords 0 1 100 -1 200 140 1;
#X restore 372 409 graph;
#X text 343 471 0;
#X text 345 400 1;
#X msg 313 254 0 \, 1 500;
#X obj 312 314 delay 500;
#X connect 0 0 1 1;
#X connect 0 0 12 0;
#X connect 1 0 2 0;
#X connect 1 0 2 1;
#X connect 5 0 1 0;
#X connect 6 0 0 0;
#X connect 7 0 19 0;
#X connect 9 0 0 0;
#X connect 10 0 0 0;
#X connect 13 0 12 0;
#X connect 14 0 13 0;
#X connect 18 0 0 0;
#X connect 18 0 7 0;
#X connect 19 0 6 0;
