#N canvas 354 25 1129 755 12;
#X obj 70 264 osc~;
#X obj 210 233 osc~;
#X obj 90 193 print;
#X obj 209 168 line~;
#N canvas 294 305 741 526 fade 0;
#X obj 31 132 *~;
#X obj 32 49 inlet~;
#X obj 93 46 inlet~;
#X obj 158 46 inlet;
#X obj 163 138 line~;
#X obj 163 112 pack f 10;
#X obj 94 134 *~;
#X obj 160 174 expr~ 1 - $v1;
#X obj 50 214 outlet~;
#X obj 128 217 outlet~;
#X connect 0 0 8 0;
#X connect 1 0 0 0;
#X connect 2 0 6 0;
#X connect 3 0 5 0;
#X connect 4 0 6 1;
#X connect 4 0 7 0;
#X connect 5 0 4 0;
#X connect 6 0 9 0;
#X connect 7 0 0 1;
#X restore 71 329 pd fade;
#X obj 206 320 hsl 162 19 0 1 0 0 empty empty empty -2 -10 0 12 #fcfcfc #000000 #000000 0 1;
#X obj 71 540 dac~;
#X obj 70 482 *~;
#X obj 107 482 *~;
#X obj 179 529 pack f 10;
#X obj 184 353 vsl 19 162 0 1 0 0 empty empty empty 0 -9 0 12 #fcfcfc #000000 #000000 0 1;
#X obj 179 553 line~;
#X text 313 142 Line sends (discrete) Messages. line~ sends signals at audio rate.;
#X text 316 175 line~ is recommended if we need higher resolution \, e.g. volume or frequency control.;
#X text 74 66 line;
#X text 206 63 line~;
#X obj 509 471 line~;
#X msg 509 441 \$1 10;
#X obj 509 238 vsl 19 162 0 1 0 0 empty empty empty 0 -9 0 12 #fcfcfc #000000 #000000 0 1;
#X floatatom 509 414 5 0 0 0 - - - 0;
#X obj 506 514 *~;
#X obj 505 586 dac~;
#X obj 432 482 osc~ 440;
#X obj 406 524 *~;
#X obj 406 238 vsl 19 162 0 1 0 0 empty empty empty 0 -9 0 12 #fcfcfc #000000 #000000 0 1;
#X floatatom 406 414 5 0 0 0 - - - 0;
#X text 564 441 \$1 is slider value;
#X msg 70 92 50 \, 2000 500;
#X msg 208 92 50 \, 2000 500;
#X obj 70 155 line 100 20;
#X connect 0 0 4 0;
#X connect 1 0 4 1;
#X connect 3 0 1 0;
#X connect 4 0 7 0;
#X connect 4 1 8 0;
#X connect 5 0 4 2;
#X connect 7 0 6 0;
#X connect 8 0 6 1;
#X connect 9 0 11 0;
#X connect 10 0 9 0;
#X connect 11 0 8 1;
#X connect 11 0 7 1;
#X connect 16 0 20 1;
#X connect 17 0 16 0;
#X connect 18 0 19 0;
#X connect 19 0 17 0;
#X connect 20 0 21 0;
#X connect 20 0 21 1;
#X connect 22 0 20 0;
#X connect 22 0 23 1;
#X connect 23 0 21 0;
#X connect 23 0 21 1;
#X connect 24 0 25 0;
#X connect 25 0 23 0;
#X connect 27 0 29 0;
#X connect 28 0 3 0;
#X connect 29 0 0 0;
#X connect 29 0 2 0;
