#N canvas 164 104 1176 666 12;
#X obj 70 155 line;
#X obj 70 264 osc~;
#X obj 210 233 osc~;
#X obj 99 217 print;
#X obj 209 168 line~;
#X msg 70 92 50 \, 5000 500;
#X msg 208 92 50 \, 5000 500;
#N canvas 294 387 741 526 fade 0;
#X obj 31 132 *~;
#X obj 32 49 inlet~;
#X obj 93 46 inlet~;
#X obj 158 46 inlet;
#X obj 163 138 line~;
#X obj 163 112 pack f 10;
#X obj 94 134 *~;
#X obj 160 174 expr~ 1 - $v1;
#X obj 50 214 outlet~;
#X obj 128 217 outlet~;
#X connect 0 0 8 0;
#X connect 1 0 0 0;
#X connect 2 0 6 0;
#X connect 3 0 5 0;
#X connect 4 0 6 1;
#X connect 4 0 7 0;
#X connect 5 0 4 0;
#X connect 6 0 9 0;
#X connect 7 0 0 1;
#X restore 71 329 pd fade;
#X obj 206 320 hsl 162 19 0 1 0 0 empty empty empty -2 -10 0 12 #fcfcfc #000000 #000000 0 1;
#X obj 71 540 dac~;
#X obj 70 482 *~;
#X obj 107 482 *~;
#X obj 179 529 pack f 10;
#X obj 184 353 vsl 19 162 0 1 0 0 empty empty empty 0 -9 0 12 #fcfcfc #000000 #000000 0 1;
#X obj 179 553 line~;
#X text 447 70 Line sends (discrete) Messages. line~ sends signals at audio rate.;
#X text 450 103 line~ is recommended if we need higher resolution \, e.g. volume or frequency control.;
#X obj 627 499 dac~;
#X obj 626 441 *~;
#X obj 663 441 *~;
#X obj 735 488 pack f 10;
#X obj 740 312 vsl 19 162 0 1 0 0 empty empty empty 0 -9 0 12 #fcfcfc #000000 #000000 0 1;
#X obj 735 512 line~;
#X text 74 66 line;
#X text 206 63 line~;
#X connect 0 0 1 0;
#X connect 0 0 3 0;
#X connect 1 0 7 0;
#X connect 2 0 7 1;
#X connect 4 0 2 0;
#X connect 5 0 0 0;
#X connect 6 0 4 0;
#X connect 7 0 10 0;
#X connect 7 1 11 0;
#X connect 8 0 7 2;
#X connect 10 0 9 0;
#X connect 11 0 9 1;
#X connect 12 0 14 0;
#X connect 13 0 12 0;
#X connect 14 0 11 1;
#X connect 14 0 10 1;
#X connect 18 0 17 0;
#X connect 19 0 17 1;
#X connect 20 0 22 0;
#X connect 21 0 20 0;
#X connect 22 0 19 1;
#X connect 22 0 18 1;
