#N canvas 73 161 1257 504 12;
#X obj 58 115 random 100;
#X obj 58 148 / 100;
#X floatatom 58 181 5 0 0 0 - - - 0;
#X text 162 219 \$1 ist eine Variable (Input des Inlet 1 wird verwendet);
#X obj 58 82 bng 19 250 50 0 empty empty empty 0 -10 0 12 #fcfcfc #000000 #000000;
#X obj 58 213 pack f 1000;
#X obj 57 275 line;
#X floatatom 57 308 5 0 0 0 - - - 0;
#X text 185 13 Wenn wir variable Start / Zielwerte setzen wollen \, müssen wir jeweils eine Liste mit Zielwert und Dauer mit entweder [pack] oder einer message-box erstellen. Dabei steht die Variable \$1 für den sich verändernden Zahlenwert.;
#X obj 784 275 line~;
#X msg 784 245 \$1 10;
#X obj 784 42 vsl 19 162 0 1 0 0 empty empty empty 0 -9 0 12 #fcfcfc #000000 #000000 0 1;
#X floatatom 784 218 5 0 0 0 - - - 0;
#X obj 781 318 *~;
#X obj 780 390 dac~;
#X obj 707 286 osc~ 440;
#X text 839 245 die Variable ist der Wert vom Slider;
#X obj 681 328 *~;
#X obj 681 42 vsl 19 162 0 1 0 0 empty empty empty 0 -9 0 12 #fcfcfc #000000 #000000 0 1;
#X floatatom 681 218 5 0 0 0 - - - 0;
#X msg 58 244 \$1 \$2;
#X connect 0 0 1 0;
#X connect 1 0 2 0;
#X connect 2 0 5 0;
#X connect 4 0 0 0;
#X connect 5 0 20 0;
#X connect 6 0 7 0;
#X connect 9 0 13 1;
#X connect 10 0 9 0;
#X connect 11 0 12 0;
#X connect 12 0 10 0;
#X connect 13 0 14 0;
#X connect 13 0 14 1;
#X connect 15 0 13 0;
#X connect 15 0 17 1;
#X connect 17 0 14 0;
#X connect 17 0 14 1;
#X connect 18 0 19 0;
#X connect 19 0 17 0;
#X connect 20 0 6 0;
