#N canvas 338 25 1399 805 12;
#X obj 56 88 random 100;
#X obj 56 109 / 100;
#X floatatom 56 154 5 0 0 0 - - - 0;
#X text 295 260 \$1 ist eine Variable (Input des Inlet 1 wird verwendet);
#X obj 56 15 bng 19 250 50 0 empty empty empty 0 -10 0 12 #fcfcfc #000000 #000000;
#X text 246 14 Wenn wir variable Start / Zielwerte setzen wollen \, m체ssen wir jeweils eine Liste mit Zielwert und Dauer mit entweder [pack] oder einer message-box erstellen. Dabei steht die Variable \$1 f체r den sich ver채ndernden Zahlenwert.;
#X listbox 139 279 20 0 0 0 - - - 0;
#X obj 56 261 line~;
#X text 245 97 zuf채llige werte 500-2000;
#X floatatom 152 158 5 0 0 0 - - - 0;
#X msg 56 226 \$1 \$2;
#X obj 58 184 pack f f;
#X obj 52 43 t b b;
#X obj 56 300 *~;
#X obj 130 305 osc~ 500;
#X obj 58 338 dac~ 1 2;
#X obj 150 123 + 50;
#X obj 149 87 random 1000;
#X connect 0 0 1 0;
#X connect 1 0 2 0;
#X connect 2 0 11 0;
#X connect 4 0 12 0;
#X connect 7 0 13 0;
#X connect 9 0 11 1;
#X connect 10 0 6 0;
#X connect 10 0 7 0;
#X connect 11 0 10 0;
#X connect 12 0 0 0;
#X connect 12 1 17 0;
#X connect 13 0 15 0;
#X connect 13 0 15 1;
#X connect 14 0 13 1;
#X connect 16 0 9 0;
#X connect 17 0 16 0;
