#N canvas 209 418 649 341 12;
#X text 53 13 ADSR;
#X text 52 32 (A)ttack – (D)ecay - (S)ustain - (R)elease;
#N canvas 1 25 1600 806 ADSR 0;
#X obj 139 267 line~;
#X obj 133 65 sel 1 0;
#X obj 133 43 tgl 19 0 empty empty GATE 0 -10 0 12 #fcfcfc #000000 #000000 0 1;
#X obj 40 293 metro 40;
#X obj 40 317 tabwrite~ array1;
#X obj 40 267 tgl 19 0 empty empty empty 0 -10 0 12 #fcfcfc #000000 #000000 0 1;
#N canvas 0 22 450 278 (subpatch) 0;
#X array array1 100 float 3;
#A 0 0 0 0 0 0 0 0 0 0 0 0 0 0 0 0 0 0 0 0 0 0 0 0 0 0 0 0 0 0 0 0 0 0 0 0 0 0 0 0 0 0 0 0 0 0 0 0 0 0 0 0 0 0 0 0 0 0 0 0 0 0 0 0 0 0 0 0 0 0 0 0 0 0 0 0 0 0 0 0 0 0 0 0 0 0 0 0 0 0 0 0 0 0 0 0 0 0 0 0 0;
#X coords 0 1 100 -1 200 140 1 0 0;
#X restore 442 98 graph;
#X obj 159 142 t b;
#X text 219 110 ATTACK;
#X text 254 192 SUSTAIN;
#X text 230 165 DECAY;
#X text 335 215 RELEASE;
#X obj 233 297 *~;
#X obj 235 335 dac~ 1 2;
#X obj 307 302 noise~;
#X msg 133 103 0 \, 1 10;
#X obj 159 165 del 10;
#X msg 162 195 0.9 50;
#X msg 285 212 0 100;
#X connect 0 0 4 0;
#X connect 0 0 12 0;
#X connect 1 0 15 0;
#X connect 1 1 18 0;
#X connect 2 0 1 0;
#X connect 3 0 4 0;
#X connect 5 0 3 0;
#X connect 7 0 16 0;
#X connect 12 0 13 0;
#X connect 12 0 13 1;
#X connect 14 0 12 1;
#X connect 15 0 0 0;
#X connect 15 0 7 0;
#X connect 16 0 17 0;
#X connect 17 0 0 0;
#X connect 18 0 0 0;
#X restore 77 174 pd ADSR;
#X text 53 57 Classic envelope form. When gate opens \, evelope ramps up in attack time \, falls back in decay time to sustain value until gate is closed \, goes to 0 in release time.;
#N canvas 1 26 1600 806 ADSR 1;
#X obj 111 307 line~;
#X obj 117 50 sel 1 0;
#X obj 119 20 tgl 19 0 empty empty empty 0 -10 0 12 #fcfcfc #000000 #000000 0 1;
#X obj 138 174 t b;
#X obj 137 197 del 100;
#X text 206 107 ATTACK;
#X text 215 229 DECAY;
#X text 444 317 RELEASE;
#X obj 117 106 pack 0 1 f;
#X msg 117 135 \$1 \, \$2 \$3;
#X floatatom 231 75 5 0 0 0 - - - 0;
#X obj -1 207 metro 40;
#X obj -1 181 tgl 19 0 empty empty empty 0 -10 0 12 #fcfcfc #000000 #000000 0 1;
#X obj -1 231 tabwrite~ array2;
#N canvas 0 22 450 278 (subpatch) 0;
#X array array2 100 float 3;
#A 0 0 0 0 0 0 0 0 0 0 0 0 0 0 0 0 0 0 0 0 0 0 0 0 0 0 0 0 0 0 0 0 0 0 0 0 0 0 0 0 0 0 0 0 0 0 0 0 0 0 0 0 0 0 0 0 0 0 0 0 0 0 0 0 0 0 0 0 0 0 0 0 0 0 0 0 0 0 0 0 0 0 0 0 0 0 0 0 0 0 0 0 0 0 0 0 0 0 0 0 0;
#X coords 0 1 100 -1 200 140 1;
#X restore 528 89 graph;
#X obj 131 231 pack 0.67 f;
#X msg 131 260 \$1 \$2;
#X floatatom 298 74 5 0 0 0 - - - 0;
#X msg 386 310 \$1 \$2;
#X text 237 42 A;
#X text 308 40 D;
#X text 440 214 R;
#X floatatom 439 244 5 0 0 0 - - - 0;
#X obj 385 277 pack 0 f;
#X text 264 279 SUSTAIN;
#X obj 37 305 noise~;
#X obj 111 341 *~;
#X obj 111 364 dac~;
#X connect 0 0 13 0;
#X connect 0 0 26 0;
#X connect 1 0 8 0;
#X connect 1 1 23 0;
#X connect 2 0 1 0;
#X connect 3 0 4 0;
#X connect 4 0 15 0;
#X connect 8 0 9 0;
#X connect 9 0 0 0;
#X connect 9 0 3 0;
#X connect 10 0 8 2;
#X connect 10 0 4 1;
#X connect 11 0 13 0;
#X connect 12 0 11 0;
#X connect 15 0 16 0;
#X connect 16 0 0 0;
#X connect 17 0 15 1;
#X connect 18 0 0 0;
#X connect 22 0 23 1;
#X connect 23 0 18 0;
#X connect 25 0 26 1;
#X connect 26 0 27 0;
#X connect 26 0 27 1;
#X restore 161 174 pd ADSR variabel;
