#N canvas 115 25 1535 669 12;
#X floatatom 78 95 5 0 0 0 - - - 0;
#X listbox 69 221 20 0 0 0 - - - 0;
#X floatatom 124 108 5 0 0 0 - - - 0;
#X obj 70 185 pack f f;
#X obj 120 138 t b f;
#X text 81 49 Methode 1;
#X obj 73 301 line;
#X floatatom 73 325 5 0 0 0 - - - 0;
#X obj 182 189 pack f 1000;
#X floatatom 199 103 5 0 0 0 - - - 0;
#X obj 320 189 print;
#X floatatom 321 131 5 0 0 0 - - - 0;
#X msg 321 160 \$1 1000;
#X obj 420 186 print;
#X floatatom 420 131 5 0 0 0 - - - 0;
#X obj 420 158 pack f 1000;
#X obj 602 190 print;
#X floatatom 604 132 5 0 0 0 - - - 0;
#X msg 603 161 0 \, \$1 1000;
#X connect 0 0 3 0;
#X connect 1 0 6 0;
#X connect 2 0 4 0;
#X connect 3 0 1 0;
#X connect 4 0 3 0;
#X connect 4 1 3 1;
#X connect 6 0 7 0;
#X connect 9 0 8 0;
#X connect 11 0 12 0;
#X connect 12 0 10 0;
#X connect 14 0 15 0;
#X connect 15 0 13 0;
#X connect 17 0 18 0;
#X connect 18 0 16 0;
