#N canvas 189 155 1258 676 12;
#X obj 185 96 line~;
#X obj 194 174 osc~;
#X obj 191 230 output~;
#X msg 194 60 200 \, 400 2000;
#X text 119 59 freq;
#X obj 329 88 line~;
#X obj 329 111 mtof~;
#X text 430 68 Midinote 60 = c1;
#X text 432 47 Glissando c1 -> g1;
#X obj 99 186 osc~;
#X floatatom 29 71 5 0 0 0 - - - 0;
#X obj 29 93 mtof;
#X floatatom 31 125 10 0 0 0 - - - 0;
#X msg 329 52 60 \, 67 500;
#X connect 1 0 2 0;
#X connect 3 0 0 0;
#X connect 5 0 6 0;
#X connect 6 0 1 0;
#X connect 10 0 11 0;
#X connect 11 0 12 0;
#X connect 13 0 5 0;
