#N canvas 354 86 862 734 12;
#X obj 122 416 noise~;
#X obj 122 449 *~;
#X obj 104 608 throw~ sig;
#X obj 194 449 *~;
#X obj 102 111 vradio 19 1 0 2 empty empty empty 0 -10 0 12 #fcfcfc #000000 #000000 0;
#X obj 110 230 sel 0 1;
#X obj 68 373 line~;
#X msg 63 315 0 10;
#X msg 106 315 1 10;
#X obj 163 373 line~;
#X msg 158 315 0 10;
#X msg 201 315 1 10;
#X obj 215 416 osc~ 440;
#X obj 295 478 inlet~;
#X obj 110 509 *~;
#X text 124 111 sine;
#X text 122 131 noise;
#X obj 164 105 vsl 19 50 0 1 0 0 empty empty empty 0 -9 0 12 #fcfcfc #000000 #000000 0 1;
#X obj 110 542 *~;
#X obj 156 542 r \$0-vol;
#X obj 169 173 s \$0-vol;
#X connect 0 0 1 1;
#X connect 1 0 14 0;
#X connect 3 0 14 0;
#X connect 4 0 5 0;
#X connect 5 0 7 0;
#X connect 5 0 11 0;
#X connect 5 1 8 0;
#X connect 5 1 10 0;
#X connect 6 0 1 0;
#X connect 7 0 6 0;
#X connect 8 0 6 0;
#X connect 9 0 3 0;
#X connect 10 0 9 0;
#X connect 11 0 9 0;
#X connect 12 0 3 1;
#X connect 13 0 14 1;
#X connect 14 0 18 0;
#X connect 17 0 20 0;
#X connect 18 0 2 0;
#X connect 19 0 18 1;
#X coords 0 -1 1 1 85 60 2 100 100;
