#N canvas 0 91 1512 687 12;
#X obj 364 197 delwrite~ \$0-delay 5000, f 14;
#X obj 508 411 delread4~ \$0-delay 10;
#X obj 515 147 osc~;
#X floatatom 700 133 5 0 0 0 - - - 0;
#X floatatom 516 118 5 0 0 0 - - - 0;
#X obj 333 315 +~;
#X obj 333 339 output~;
#X obj 701 171 pack f 10;
#X obj 701 195 line~;
#X obj 538 286 bauer/snapview;
#X obj 515 235 expr~ ($v1 * 0.5 + 0.5 )* $v2 \; ($v1 * - 1 * 0.5 + 0.5 )* $v2;
#X obj 734 282 bauer/snapview;
#X obj 680 411 delread4~ \$0-delay 10, f 20;
#X obj 865 411 delread4~ \$0-delay 10;
#X obj 872 139 osc~;
#X floatatom 1057 125 5 0 0 0 - - - 0;
#X floatatom 873 110 5 0 0 0 - - - 0;
#X obj 1058 163 pack f 10;
#X obj 1058 187 line~;
#X obj 895 278 bauer/snapview;
#X obj 872 224 expr~ ($v1 * 0.5 + 0.5 )* $v2 \; ($v1 * - 1 * 0.5 + 0.5 )* $v2;
#X obj 1091 274 bauer/snapview;
#X obj 1037 411 delread4~ \$0-delay 10;
#N canvas 0 22 450 278 (subpatch) 0;
#X array array1 768000 float 2;
#X coords 0 1 768000 -1 200 140 1;
#X restore 145 75 graph;
#X obj 1210 412 delread4~ \$0-delay 10;
#X obj 1217 140 osc~;
#X floatatom 1402 126 5 0 0 0 - - - 0;
#X floatatom 1218 111 5 0 0 0 - - - 0;
#X obj 1403 164 pack f 10;
#X obj 1403 188 line~;
#X obj 1240 279 bauer/snapview;
#X obj 1217 225 expr~ ($v1 * 0.5 + 0.5 )* $v2 \; ($v1 * - 1 * 0.5 + 0.5 )* $v2;
#X obj 1436 275 bauer/snapview;
#X obj 1382 412 delread4~ \$0-delay 10;
#X obj 33 285 soundfiler;
#X msg 33 263 read -resize ../samples/monte.wav array1;
#X obj 371 90 tabplay~ array1;
#X obj 384 153 spigot;
#X obj 424 130 tgl 19 0 empty empty empty 0 -10 0 12 #fcfcfc #000000 #000000 0 1;
#X obj 371 56 bng 19 250 50 0 empty empty empty 0 -10 0 12 #fcfcfc #000000 #000000;
#X floatatom 767 30 5 0 0 0 - - - 0;
#X text 65 495 see https://www.electrosmash.com/boss-ce-2-analysis;
#X text 521 498 build-easiert!;
#X connect 1 0 5 1;
#X connect 2 0 10 0;
#X connect 3 0 7 0;
#X connect 4 0 2 0;
#X connect 5 0 6 0;
#X connect 7 0 8 0;
#X connect 8 0 10 1;
#X connect 10 0 1 0;
#X connect 10 0 9 0;
#X connect 10 1 11 0;
#X connect 10 1 12 0;
#X connect 12 0 5 1;
#X connect 13 0 5 1;
#X connect 14 0 20 0;
#X connect 15 0 17 0;
#X connect 16 0 14 0;
#X connect 17 0 18 0;
#X connect 18 0 20 1;
#X connect 20 0 13 0;
#X connect 20 0 19 0;
#X connect 20 1 21 0;
#X connect 20 1 22 0;
#X connect 22 0 5 1;
#X connect 24 0 5 1;
#X connect 25 0 31 0;
#X connect 26 0 28 0;
#X connect 27 0 25 0;
#X connect 28 0 29 0;
#X connect 29 0 31 1;
#X connect 31 0 24 0;
#X connect 31 0 30 0;
#X connect 31 1 32 0;
#X connect 31 1 33 0;
#X connect 33 0 5 1;
#X connect 35 0 34 0;
#X connect 36 0 0 0;
#X connect 36 0 5 0;
#X connect 36 1 37 0;
#X connect 37 0 36 0;
#X connect 38 0 37 1;
#X connect 39 0 36 0;
#X connect 40 0 3 0;
#X connect 40 0 26 0;
#X connect 40 0 15 0;
