#N canvas 0 38 1379 866 12;
#X obj 317 226 delwrite~ \$0-delay 5000;
#X obj 115 602 delread4~ \$0-delay 500;
#X obj 115 574 line~;
#X obj 609 652 output~;
#N canvas 0 22 450 278 (subpatch) 0;
#X array array2 745310 float 2;
#X coords 0 1 745310 -1 200 140 1 0 0;
#X restore 86 259 graph;
#X msg 103 97 read -resize \$1 array2;
#X obj 103 66 openpanel;
#X obj 103 121 soundfiler;
#X obj 103 32 bng 19 250 50 0 empty empty empty 0 -10 0 12 #fcfcfc #000000 #000000;
#X msg 94 199 \; array2 normalize 0.75;
#X obj 321 162 tabplay~ array2;
#X obj 422 198 spigot;
#X obj 322 139 bng 19 250 50 0 empty empty empty 0 -10 0 12 #fcfcfc #000000 #000000;
#X obj 462 164 tgl 19 0 empty empty empty 0 -10 0 12 #fcfcfc #000000 #000000 0 1;
#X floatatom 115 491 5 0 0 0 - - - 0;
#X obj 115 518 t f b;
#X obj 167 684 vline~;
#X msg 199 539 1 10;
#X obj 237 513 del 250;
#X msg 244 541 0 10;
#X obj 118 463 hsl 162 19 0 5000 0 0 empty empty empty -2 -10 0 12 #fcfcfc #000000 #000000 0 1;
#X obj 103 151 s samples;
#X obj 637 189 expr~ $v1 * 0.5 + 0.5;
#X floatatom 712 269 5 0 0 0 - - - 0;
#X floatatom 694 460 5 0 0 0 - - - 0;
#X obj 692 426 vline~;
#X text 741 457 <- offset;
#X obj 641 558 *~;
#X obj 691 533 tgl 19 0 empty empty empty 0 -10 0 12 #fcfcfc #000000 #000000 0 1;
#X text 115 437 SCRATCH;
#X text 829 392 click;
#X obj 712 243 30;
#X obj 550 201 loadbang;
#X floatatom 636 115 5 0 0 0 - - - 0;
#X obj 641 503 delread4~ \$0-delay 5000;
#X obj 116 747 *~;
#X obj 115 546 pack f 500;
#X obj 713 314 line~;
#X obj 713 290 pack f 100;
#X obj 640 431 *~, f 5;
#X obj 637 89 5;
#X msg 692 392 1 1000 \, 0 100 1000;
#X msg 756 421 1 100;
#N canvas 92 130 450 300 tape 0;
#X obj 25 68 inlet;
#X obj 184 29 noise~;
#X obj 183 110 pow~ 20000;
#X obj 93 29 noise~;
#X obj 92 110 pow~ 20000;
#X obj 90 162 *~;
#X obj 186 164 *~;
#X obj 23 110 * 0.5;
#X obj 90 202 outlet~;
#X obj 188 199 outlet~;
#X connect 0 0 7 0;
#X connect 1 0 2 0;
#X connect 2 0 6 0;
#X connect 3 0 4 0;
#X connect 4 0 5 0;
#X connect 5 0 8 0;
#X connect 6 0 9 0;
#X connect 7 0 5 1;
#X connect 7 0 6 1;
#X restore 753 608 pd tape crackle;
#X obj 640 471 +~ 0;
#X obj 639 346 expr~ $v1 * $v2;
#X obj 754 573 tgl 19 0 empty empty empty 0 -10 0 12 #fcfcfc #000000 #000000 0 1;
#N canvas 198 94 164 335 cubic 0;
#X obj 26 36 noise~;
#X obj 26 194 *~ 0.5;
#X obj 27 245 cos~;
#X obj 26 220 +~ 0.25;
#X obj 27 280 outlet~;
#X obj 26 62 lop~ 1;
#X obj 26 167 *~ 20;
#X obj 26 88 lop~ 1;
#X obj 26 114 lop~ 1;
#X obj 26 140 lop~ 1;
#X floatatom 109 49 5 0 0 0 - - - 0;
#X obj 107 24 inlet;
#X connect 0 0 5 0;
#X connect 1 0 3 0;
#X connect 2 0 4 0;
#X connect 3 0 2 0;
#X connect 5 0 7 0;
#X connect 6 0 1 0;
#X connect 7 0 8 0;
#X connect 8 0 9 0;
#X connect 9 0 6 0;
#X connect 10 0 5 1;
#X connect 10 0 7 1;
#X connect 10 0 8 1;
#X connect 10 0 9 1;
#X connect 11 0 10 0;
#X restore 637 148 pd cubic noise;
#X msg 187 52 read -resize ./test3töne.wav array2 \; array2 normalize;
#X text 290 545 scratch triggers envelope;
#X obj 116 771 output~;
#X text 323 109 INPUT DELAY LINE;
#X text 956 59 This Patch tries to emulate a Tape Delay.;
#X text 682 115 Freq (kind of... a Filter Coeff);
#X text 958 82 A random LFO can be applied to the reading point;
#X text 957 99 causing glitches.;
#X text 760 268 <- Millseconds "Tape Band";
#X text 956 116 (The random LFO is created via a very low filtered noise);
#X text 909 410 Envelope;
#X text 906 583 (Some crackles using a noise sig with a high exponend);
#X connect 1 0 35 0;
#X connect 2 0 1 0;
#X connect 5 0 7 0;
#X connect 6 0 5 0;
#X connect 7 0 21 0;
#X connect 8 0 6 0;
#X connect 10 0 0 0;
#X connect 10 1 11 0;
#X connect 11 0 10 0;
#X connect 12 0 10 0;
#X connect 13 0 11 1;
#X connect 14 0 15 0;
#X connect 15 0 36 0;
#X connect 15 1 18 0;
#X connect 15 1 17 0;
#X connect 16 0 35 1;
#X connect 17 0 16 0;
#X connect 18 0 19 0;
#X connect 19 0 16 0;
#X connect 20 0 14 0;
#X connect 22 0 45 0;
#X connect 23 0 38 0;
#X connect 24 0 44 1;
#X connect 25 0 39 1;
#X connect 27 0 3 0;
#X connect 27 0 3 1;
#X connect 28 0 27 1;
#X connect 31 0 23 0;
#X connect 32 0 31 0;
#X connect 32 0 40 0;
#X connect 33 0 47 0;
#X connect 34 0 27 0;
#X connect 35 0 50 0;
#X connect 36 0 2 0;
#X connect 37 0 45 1;
#X connect 38 0 37 0;
#X connect 39 0 44 0;
#X connect 40 0 33 0;
#X connect 41 0 25 0;
#X connect 42 0 25 0;
#X connect 43 0 3 0;
#X connect 43 1 3 1;
#X connect 44 0 34 0;
#X connect 45 0 39 0;
#X connect 46 0 43 0;
#X connect 47 0 22 0;
#X connect 48 0 7 0;
