#N canvas 1 25 1512 847 12;
#X obj 131 405 output~;
#X obj 281 398 *~;
#X obj 622 163 vsl 19 162 -1 1 0 0 empty empty empty 0 -9 0 12 #fcfcfc #000000 #000000 0 1;
#X floatatom 639 357 5 0 0 0 - - - 0;
#X obj 622 382 line~;
#X obj 622 333 pack f 10;
#X msg 286 180 125;
#X msg 323 181 333;
#X msg 358 180 250;
#X text 251 156 delay time in ms;
#X text 650 226 feedback amount;
#X text 271 432 feedback wird durch das erneute einspeisen des delread~-output in die delayline erzeugt;
#X msg 394 180 5000;
#X msg 371 289 8000;
#X text 413 260 wenn delay-time länger als;
#X text 415 274 maximum der delay-line;
#X text 413 293 wird automatisch gekürzt;
#X text 60 90 02_Delay mit Feedback;
#X obj 282 352 delread~ \$0-delay1 500;
#X obj 102 506 delwrite~ \$0-delay1 5000;
#X text 454 353 sog. "tapout";
#X text 284 507 sog. "tapin";
#N canvas 108 175 977 640 melody 0;
#X obj 338 250 osc~;
#X obj 200 85 metro 1000;
#X obj 197 44 inlet;
#X obj 202 260 *~;
#X obj 203 460 outlet~;
#X obj 201 230 vline~;
#X obj 265 48 inlet;
#X obj 338 217 * 32;
#X obj 112 317 / 100;
#X obj 203 350 *~;
#X obj 200 109 t b b b;
#X floatatom 111 366 5 0 0 0 - - - 0;
#X obj 112 341 + 0.3;
#X obj 112 293 random 70;
#X floatatom 370 185 5 0 0 0 - - - 0;
#X obj 338 185 + 4;
#X obj 338 161 random 13;
#X text 421 161 hier werden über der Basis 32hz zufällige Obertöne (vom 4 bis 16.) erzeugt \, indem die Basis mit Randomwerten multipliziert wird;
#X text 123 195 envelope;
#X text 19 314 zufällige;
#X text 17 331 lautstärken;
#X msg 199 192 0 \, 1 5 \, 0 150 5;
#X obj 426 272 noise~;
#X obj 426 303 vcf~ 50 20;
#X text 11 347 zw. 0.3 - 0.7;
#X obj 202 290 +~;
#X obj 426 327 *~ 0.2;
#X text 492 243 gefilterter Noise \, 2 Oktaven höher (Frequenz * 4);
#X obj 459 244 * 4;
#X text 483 328 leiser als osc~;
#X connect 0 0 3 1;
#X connect 1 0 10 0;
#X connect 2 0 1 0;
#X connect 3 0 25 0;
#X connect 5 0 3 0;
#X connect 6 0 1 1;
#X connect 7 0 0 0;
#X connect 7 0 28 0;
#X connect 8 0 12 0;
#X connect 9 0 4 0;
#X connect 10 0 21 0;
#X connect 10 1 16 0;
#X connect 10 2 13 0;
#X connect 12 0 9 1;
#X connect 12 0 11 0;
#X connect 13 0 8 0;
#X connect 15 0 7 0;
#X connect 15 0 14 0;
#X connect 16 0 15 0;
#X connect 21 0 5 0;
#X connect 22 0 23 0;
#X connect 23 0 26 0;
#X connect 25 0 9 0;
#X connect 26 0 25 1;
#X connect 28 0 23 1;
#X restore 132 210 pd melody;
#X obj 132 166 tgl 19 0 empty empty empty 0 -10 0 12 #fcfcfc #000000 #000000 0 1;
#X floatatom 192 179 5 0 0 0 - - - 0;
#X obj 192 128 loadbang;
#X obj 192 152 1000;
#N canvas 702 174 450 300 switch 0;
#X obj 70 76 inlet~;
#X obj 263 78 inlet;
#X obj 71 243 outlet~;
#X obj 134 77 inlet~;
#X obj 73 179 vline~;
#X msg 73 142 1 10;
#X msg 191 144 1 10;
#X msg 119 143 0 10;
#X obj 168 177 vline~;
#X msg 236 146 0 10;
#X obj 73 203 *~;
#X obj 170 207 *~;
#X obj 167 101 sel 0;
#X connect 0 0 10 1;
#X connect 1 0 12 0;
#X connect 3 0 11 1;
#X connect 4 0 10 0;
#X connect 5 0 4 0;
#X connect 6 0 8 0;
#X connect 7 0 4 0;
#X connect 8 0 11 0;
#X connect 9 0 8 0;
#X connect 10 0 2 0;
#X connect 11 0 2 0;
#X connect 12 0 5 0;
#X connect 12 0 9 0;
#X connect 12 1 6 0;
#X connect 12 1 7 0;
#X restore 103 315 pd switch;
#X obj 164 279 hradio 19 1 0 2 empty empty empty 0 -10 0 12 #fcfcfc #000000 #000000 0;
#X obj 53 237 adc~;
#X obj 53 261 *~ 0.5;
#X obj 746 60 delwrite~;
#X obj 746 138 delread~;
#X obj 747 171 delread4~;
#X floatatom 442 132 5 0 0 0 - - - 0;
#X msg 441 178 \$1;
#X text 651 241 positiv – negativ: unterschiedliche obertöne;
#X text 654 271 wenn feedback = 1: Kein Verklingen mehr => Signal wird irgendwann zu stark;
#X connect 1 0 19 0;
#X connect 2 0 5 0;
#X connect 4 0 1 1;
#X connect 5 0 4 0;
#X connect 5 0 3 0;
#X connect 6 0 18 0;
#X connect 7 0 18 0;
#X connect 8 0 18 0;
#X connect 12 0 18 0;
#X connect 13 0 18 0;
#X connect 18 0 1 0;
#X connect 18 0 0 1;
#X connect 18 0 0 0;
#X connect 22 0 27 1;
#X connect 23 0 22 0;
#X connect 24 0 22 1;
#X connect 25 0 26 0;
#X connect 26 0 24 0;
#X connect 27 0 0 0;
#X connect 27 0 19 0;
#X connect 27 0 0 1;
#X connect 28 0 27 2;
#X connect 29 0 30 0;
#X connect 30 0 27 0;
#X connect 34 0 35 0;
#X connect 35 0 18 0;
