#N canvas 153 38 1196 808 12;
#N canvas 108 175 977 640 melody 0;
#X obj 338 250 osc~;
#X obj 200 85 metro 1000;
#X obj 197 44 inlet;
#X obj 202 260 *~;
#X obj 203 460 outlet~;
#X obj 201 230 vline~;
#X obj 265 48 inlet;
#X obj 338 217 * 32;
#X obj 112 317 / 100;
#X obj 203 350 *~;
#X obj 200 109 t b b b;
#X floatatom 111 366 5 0 0 0 - - - 0;
#X obj 112 341 + 0.3;
#X obj 112 293 random 70;
#X floatatom 370 185 5 0 0 0 - - - 0;
#X obj 338 185 + 4;
#X obj 338 161 random 13;
#X text 421 161 hier werden über der Basis 32hz zufällige Obertöne (vom 4 bis 16.) erzeugt \, indem die Basis mit Randomwerten multipliziert wird;
#X text 123 195 envelope;
#X text 19 314 zufällige;
#X text 17 331 lautstärken;
#X msg 199 192 0 \, 1 5 \, 0 150 5;
#X obj 426 272 noise~;
#X obj 426 303 vcf~ 50 20;
#X text 11 347 zw. 0.3 - 0.7;
#X obj 202 290 +~;
#X obj 426 327 *~ 0.2;
#X text 492 243 gefilterter Noise \, 2 Oktaven höher (Frequenz * 4);
#X obj 459 244 * 4;
#X text 483 328 leiser als osc~;
#X connect 0 0 3 1;
#X connect 1 0 10 0;
#X connect 2 0 1 0;
#X connect 3 0 25 0;
#X connect 5 0 3 0;
#X connect 6 0 1 1;
#X connect 7 0 0 0;
#X connect 7 0 28 0;
#X connect 8 0 12 0;
#X connect 9 0 4 0;
#X connect 10 0 21 0;
#X connect 10 1 16 0;
#X connect 10 2 13 0;
#X connect 12 0 9 1;
#X connect 12 0 11 0;
#X connect 13 0 8 0;
#X connect 15 0 7 0;
#X connect 15 0 14 0;
#X connect 16 0 15 0;
#X connect 21 0 5 0;
#X connect 22 0 23 0;
#X connect 23 0 26 0;
#X connect 25 0 9 0;
#X connect 28 0 23 1;
#X restore 108 179 pd melody;
#X obj 108 135 tgl 19 0 empty empty empty 0 -10 0 12 #fcfcfc #000000 #000000 0 1;
#X obj 87 667 output~;
#X obj 391 29 vsl 19 162 0 1 0 0 empty empty empty 0 -9 0 12 #fcfcfc #000000 #000000 0 1;
#X floatatom 168 148 5 0 0 0 - - - 0;
#X obj 168 97 loadbang;
#X obj 168 121 1000;
#X floatatom 324 196 5 0 0 0 - - - 0;
#X floatatom 391 199 5 0 0 0 - - - 0;
#N canvas 587 163 450 300 delay 0;
#X obj 123 74 inlet;
#X obj 277 90 inlet;
#X obj 262 204 *~;
#X obj 281 176 line~;
#X obj 281 127 pack f 10;
#X obj 259 238 outlet~;
#X obj 129 147 delread~ \$0-delay1 500;
#X obj 130 234 outlet~;
#X connect 0 0 6 0;
#X connect 1 0 4 0;
#X connect 2 0 5 0;
#X connect 3 0 2 1;
#X connect 4 0 3 0;
#X connect 6 0 2 0;
#X connect 6 0 7 0;
#X restore 326 227 pd delay;
#N canvas 702 174 450 300 switch 0;
#X obj 70 76 inlet~;
#X obj 263 78 inlet;
#X obj 71 243 outlet~;
#X obj 134 77 inlet~;
#X obj 73 179 vline~;
#X msg 73 142 1 10;
#X msg 191 144 1 10;
#X msg 119 143 0 10;
#X obj 168 177 vline~;
#X msg 236 146 0 10;
#X obj 73 203 *~;
#X obj 170 207 *~;
#X obj 167 101 sel 0;
#X connect 0 0 10 1;
#X connect 1 0 12 0;
#X connect 3 0 11 1;
#X connect 4 0 10 0;
#X connect 5 0 4 0;
#X connect 6 0 8 0;
#X connect 7 0 4 0;
#X connect 8 0 11 0;
#X connect 9 0 8 0;
#X connect 10 0 2 0;
#X connect 11 0 2 0;
#X connect 12 0 5 0;
#X connect 12 0 9 0;
#X connect 12 1 6 0;
#X connect 12 1 7 0;
#X restore 79 284 pd switch;
#X obj 140 248 hradio 19 1 0 2 empty empty empty 0 -10 0 12 #fcfcfc #000000 #000000 0;
#X obj 29 206 adc~;
#X obj 29 230 *~ 0.5;
#X obj 599 36 vsl 19 162 0 1 0 0 empty empty empty 0 -9 0 12 #fcfcfc #000000 #000000 0 1;
#X floatatom 532 203 5 0 0 0 - - - 0;
#X floatatom 599 206 5 0 0 0 - - - 0;
#N canvas 67 144 450 300 delay 0;
#X obj 123 74 inlet;
#X obj 277 90 inlet;
#X obj 254 197 *~;
#X obj 281 176 line~;
#X obj 281 127 pack f 10;
#X obj 262 234 outlet~;
#X obj 129 147 delread~ \$0-delay2 500;
#X obj 132 230 outlet~;
#X connect 0 0 6 0;
#X connect 1 0 4 0;
#X connect 2 0 5 0;
#X connect 3 0 2 1;
#X connect 4 0 3 0;
#X connect 6 0 2 0;
#X connect 6 0 7 0;
#X restore 534 234 pd delay;
#X obj 782 46 vsl 19 162 0 1 0 0 empty empty empty 0 -9 0 12 #fcfcfc #000000 #000000 0 1;
#X floatatom 715 213 5 0 0 0 - - - 0;
#X floatatom 782 216 5 0 0 0 - - - 0;
#N canvas 587 163 450 300 delay 0;
#X obj 123 74 inlet;
#X obj 277 90 inlet;
#X obj 263 206 *~;
#X obj 281 176 line~;
#X obj 281 127 pack f 10;
#X obj 260 240 outlet~;
#X obj 129 147 delread~ \$0-delay3 500;
#X obj 128 243 outlet~;
#X connect 0 0 6 0;
#X connect 1 0 4 0;
#X connect 2 0 5 0;
#X connect 3 0 2 1;
#X connect 4 0 3 0;
#X connect 6 0 2 0;
#X connect 6 0 7 0;
#X restore 717 244 pd delay;
#X obj 926 43 vsl 19 162 0 1 0 0 empty empty empty 0 -9 0 12 #fcfcfc #000000 #000000 0 1;
#X floatatom 859 210 5 0 0 0 - - - 0;
#X floatatom 926 213 5 0 0 0 - - - 0;
#N canvas 587 163 450 300 delay 0;
#X obj 123 74 inlet;
#X obj 277 90 inlet;
#X obj 267 202 *~;
#X obj 281 176 line~;
#X obj 281 127 pack f 10;
#X obj 268 232 outlet~;
#X obj 129 147 delread~ \$0-delay4 500;
#X obj 125 222 outlet~;
#X connect 0 0 6 0;
#X connect 1 0 4 0;
#X connect 2 0 5 0;
#X connect 3 0 2 1;
#X connect 4 0 3 0;
#X connect 6 0 2 0;
#X connect 6 0 7 0;
#X restore 861 241 pd delay;
#X text 31 30 Textur mit 4 unterschiedlichen Delay-Lines;
#X obj 319 136 loadbang;
#X obj 319 160 100;
#X obj 532 154 loadbang;
#X obj 532 178 200;
#X obj 710 158 loadbang;
#X obj 710 182 300;
#X obj 856 158 loadbang;
#X obj 856 182 500;
#X obj 153 623 *~;
#X obj 171 402 vsl 19 162 0 1 0 0 empty empty empty 0 -9 0 12 #fcfcfc #000000 #000000 0 1;
#X floatatom 171 572 5 0 0 0 - - - 0;
#X obj 261 619 *~;
#X obj 279 398 vsl 19 162 0 1 0 0 empty empty empty 0 -9 0 12 #fcfcfc #000000 #000000 0 1;
#X floatatom 279 571 5 0 0 0 - - - 0;
#X obj 371 622 *~;
#X obj 389 401 vsl 19 162 0 1 0 0 empty empty empty 0 -9 0 12 #fcfcfc #000000 #000000 0 1;
#X floatatom 389 571 5 0 0 0 - - - 0;
#X obj 475 619 *~;
#X obj 493 401 vsl 19 162 0 1 0 0 empty empty empty 0 -9 0 12 #fcfcfc #000000 #000000 0 1;
#X floatatom 493 571 5 0 0 0 - - - 0;
#N canvas 208 246 387 355 write 0;
#X obj 123 80 delwrite~ \$0-delay1 5000;
#X obj 123 141 delwrite~ \$0-delay2 5000;
#X obj 122 207 delwrite~ \$0-delay3 5000;
#X obj 122 270 delwrite~ \$0-delay4 5000;
#X obj 75 26 inlet~;
#X obj 122 55 r~ \$0-fb-1;
#X obj 123 110 r~ \$0-fb-2;
#X obj 122 181 r~ \$0-fb-3;
#X obj 123 240 r~ \$0-fb-4;
#X connect 4 0 1 0;
#X connect 4 0 2 0;
#X connect 4 0 0 0;
#X connect 4 0 3 0;
#X connect 5 0 0 0;
#X connect 6 0 1 0;
#X connect 7 0 2 0;
#X connect 8 0 3 0;
#X restore 104 314 pd write delay;
#X obj 586 579 vu 19 200 empty empty -1 -10 0 12 #404040 #000000 1 0;
#X obj 534 682 env~;
#X obj 534 706 - 100;
#X text 418 120 feedback;
#X text 541 498 Lautstärke tapouts / delread~;
#X text 626 127 feedback;
#X text 804 133 feedback;
#X text 953 134 feedback;
#X text 871 418 In diesem Patch werden 4 unterschiedliche;
#X text 873 437 Delay-Lines geschrieben. Bei diesen ist;
#X text 870 458 jeweils sowohl die Lautstärke des Auslesens;
#X text 871 476 als auch des Feedbacks steuerbar.;
#X text 870 497 -> 4 unterschiedliche parallele Systeme!;
#X text 670 653 VU-Meter zum messen der Gesamtlautstärke. Alles über 0db (rot) verzerrt / ist zuviel!;
#X text 674 686 Wenn hohe Feedback-Werte eingestellt sind addiert sich die Lautstärke sehr schnell!;
#X obj 326 287 s~ \$0-tapout-1;
#X obj 536 296 s~ \$0-tapout-2;
#X obj 717 295 s~ \$0-tapout-3;
#X obj 859 304 s~ \$0-tapout-4;
#X obj 153 594 r~ \$0-tapout-1;
#X obj 261 593 r~ \$0-tapout-2;
#X obj 371 593 r~ \$0-tapout-3;
#X obj 475 593 r~ \$0-tapout-4;
#X obj 379 256 s~ \$0-fb-1;
#X obj 588 268 s~ \$0-fb-2;
#X obj 771 273 s~ \$0-fb-3;
#X obj 912 275 s~ \$0-fb-4;
#X connect 0 0 10 1;
#X connect 1 0 0 0;
#X connect 3 0 8 0;
#X connect 4 0 0 1;
#X connect 5 0 6 0;
#X connect 6 0 4 0;
#X connect 7 0 9 0;
#X connect 8 0 9 1;
#X connect 9 0 63 0;
#X connect 9 1 71 0;
#X connect 10 0 2 0;
#X connect 10 0 2 1;
#X connect 10 0 47 0;
#X connect 11 0 10 2;
#X connect 12 0 13 0;
#X connect 13 0 10 0;
#X connect 14 0 16 0;
#X connect 15 0 17 0;
#X connect 16 0 17 1;
#X connect 17 0 64 0;
#X connect 17 1 72 0;
#X connect 18 0 20 0;
#X connect 19 0 21 0;
#X connect 20 0 21 1;
#X connect 21 0 65 0;
#X connect 21 1 73 0;
#X connect 22 0 24 0;
#X connect 23 0 25 0;
#X connect 24 0 25 1;
#X connect 25 0 66 0;
#X connect 25 1 74 0;
#X connect 27 0 28 0;
#X connect 28 0 7 0;
#X connect 29 0 30 0;
#X connect 30 0 15 0;
#X connect 31 0 32 0;
#X connect 32 0 19 0;
#X connect 33 0 34 0;
#X connect 34 0 23 0;
#X connect 35 0 2 1;
#X connect 35 0 2 0;
#X connect 35 0 49 0;
#X connect 36 0 37 0;
#X connect 37 0 35 1;
#X connect 38 0 2 1;
#X connect 38 0 2 0;
#X connect 38 0 49 0;
#X connect 39 0 40 0;
#X connect 40 0 38 1;
#X connect 41 0 2 0;
#X connect 41 0 2 1;
#X connect 41 0 49 0;
#X connect 42 0 43 0;
#X connect 43 0 41 1;
#X connect 44 0 2 1;
#X connect 44 0 2 0;
#X connect 44 0 49 0;
#X connect 45 0 46 0;
#X connect 46 0 44 1;
#X connect 49 0 50 0;
#X connect 50 0 48 0;
#X connect 67 0 35 0;
#X connect 68 0 38 0;
#X connect 69 0 41 0;
#X connect 70 0 44 0;
