#N canvas 107 51 1405 903 12;
#X obj 112 155 tgl 19 0 empty empty empty 0 -10 0 12 #fcfcfc #000000 #000000 0 1;
#X obj 454 46 vsl 19 162 0 0.25 0 0 empty empty empty 0 -9 0 12 #fcfcfc #000000 #000000 0 1;
#X floatatom 172 168 5 0 0 0 - - - 0;
#X obj 172 117 loadbang;
#X obj 172 141 1000;
#X floatatom 389 213 5 0 0 0 - - - 0;
#X floatatom 454 216 5 0 0 0 - - - 0;
#N canvas 587 163 450 300 delay 0;
#X obj 123 74 inlet;
#X obj 277 90 inlet;
#X obj 166 201 *~;
#X obj 281 176 line~;
#X obj 281 127 pack f 10;
#X obj 86 147 delread~ \$0-delay1 500;
#X obj 86 243 s~ \$0-tapout-1;
#X obj 214 241 s~ \$0-fb-1;
#X connect 0 0 5 0;
#X connect 1 0 4 0;
#X connect 2 0 7 0;
#X connect 3 0 2 1;
#X connect 4 0 3 0;
#X connect 5 0 2 0;
#X connect 5 0 6 0;
#X restore 389 244 pd delay;
#X obj 642 53 vsl 19 162 0 0.25 0 0 empty empty empty 0 -9 0 12 #fcfcfc #000000 #000000 0 1;
#X floatatom 576 220 5 0 0 0 - - - 0;
#X floatatom 642 223 5 0 0 0 - - - 0;
#N canvas 92 130 450 300 delay 0;
#X obj 123 74 inlet;
#X obj 277 90 inlet;
#X obj 200 201 *~;
#X obj 281 176 line~;
#X obj 281 127 pack f 10;
#X obj 106 146 delread~ \$0-delay1 500;
#X obj 86 243 s~ \$0-tapout-2;
#X obj 206 241 s~ \$0-fb-2;
#X connect 0 0 5 0;
#X connect 1 0 4 0;
#X connect 2 0 7 0;
#X connect 3 0 2 1;
#X connect 4 0 3 0;
#X connect 5 0 2 0;
#X connect 5 0 6 0;
#X restore 577 251 pd delay;
#X obj 836 55 vsl 19 162 0 0.25 0 0 empty empty empty 0 -9 0 12 #fcfcfc #000000 #000000 0 1;
#X floatatom 771 222 5 0 0 0 - - - 0;
#X floatatom 836 225 5 0 0 0 - - - 0;
#N canvas 92 130 450 300 delay 0;
#X obj 123 74 inlet;
#X obj 277 90 inlet;
#X obj 198 202 *~;
#X obj 281 176 line~;
#X obj 281 127 pack f 10;
#X obj 129 147 delread~ \$0-delay1 500;
#X obj 86 243 s~ \$0-tapout-3;
#X obj 203 241 s~ \$0-fb-3;
#X connect 0 0 5 0;
#X connect 1 0 4 0;
#X connect 2 0 7 0;
#X connect 3 0 2 1;
#X connect 4 0 3 0;
#X connect 5 0 2 0;
#X connect 5 0 6 0;
#X restore 771 253 pd delay;
#X obj 1029 61 vsl 19 162 0 0.25 0 0 empty empty empty 0 -9 0 12 #fcfcfc #000000 #000000 0 1;
#X floatatom 962 228 5 0 0 0 - - - 0;
#X floatatom 1029 231 5 0 0 0 - - - 0;
#N canvas 92 130 450 300 delay 0;
#X obj 123 74 inlet;
#X obj 277 90 inlet;
#X obj 208 201 *~;
#X obj 281 176 line~;
#X obj 281 127 pack f 10;
#X obj 129 147 delread~ \$0-delay1 500;
#X obj 86 243 s~ \$0-tapout-4;
#X obj 214 241 s~ \$0-fb-4;
#X connect 0 0 5 0;
#X connect 1 0 4 0;
#X connect 2 0 7 0;
#X connect 3 0 2 1;
#X connect 4 0 3 0;
#X connect 5 0 2 0;
#X connect 5 0 6 0;
#X restore 962 259 pd delay;
#N canvas 702 174 450 300 switch 0;
#X obj 70 76 inlet~;
#X obj 263 78 inlet;
#X obj 71 243 outlet~;
#X obj 134 77 inlet~;
#X obj 73 179 vline~;
#X msg 73 142 1 10;
#X msg 191 144 1 10;
#X msg 119 143 0 10;
#X obj 168 177 vline~;
#X msg 236 146 0 10;
#X obj 73 203 *~;
#X obj 170 207 *~;
#X obj 167 101 sel 0;
#X connect 0 0 10 1;
#X connect 1 0 12 0;
#X connect 3 0 11 1;
#X connect 4 0 10 0;
#X connect 5 0 4 0;
#X connect 6 0 8 0;
#X connect 7 0 4 0;
#X connect 8 0 11 0;
#X connect 9 0 8 0;
#X connect 10 0 2 0;
#X connect 11 0 2 0;
#X connect 12 0 5 0;
#X connect 12 0 9 0;
#X connect 12 1 6 0;
#X connect 12 1 7 0;
#X restore 81 271 pd switch;
#X obj 191 221 hradio 19 1 0 2 empty empty empty 0 -10 0 12 #fcfcfc #000000 #000000 0;
#X obj 29 206 adc~;
#X obj 29 230 *~ 0.5;
#X obj 120 397 delwrite~ \$0-delay1 5000;
#X obj 389 161 loadbang;
#X obj 576 170 loadbang;
#X obj 771 170 loadbang;
#X obj 962 181 loadbang;
#X obj 389 185 700;
#X obj 576 194 900;
#X obj 771 194 1100;
#X obj 962 205 1300;
#X text 481 137 feedback;
#X text 665 137 feedback;
#X text 863 166 feedback;
#X text 1056 152 feedback;
#X text 9 20 03b_Textur mit einer Delay-Line und 4 unterschiedlichen delreads~;
#X text 11 54 alle [delread~] Objekte schreiben in die selbe Delay-Line;
#X text 681 298 Vorsicht mit Feedback-Menge – Das Feedback akkumuliert sich (Da nur eine delay-line!);
#N canvas 108 175 977 640 melody 0;
#X obj 338 250 osc~;
#X obj 200 85 metro 1000;
#X obj 197 44 inlet;
#X obj 202 260 *~;
#X obj 203 460 outlet~;
#X obj 201 230 vline~;
#X obj 265 48 inlet;
#X obj 338 217 * 32;
#X obj 112 317 / 100;
#X obj 203 350 *~;
#X obj 200 109 t b b b;
#X floatatom 111 366 5 0 0 0 - - - 0;
#X obj 112 341 + 0.3;
#X obj 112 293 random 70;
#X floatatom 370 185 5 0 0 0 - - - 0;
#X obj 338 185 + 4;
#X obj 338 161 random 13;
#X text 421 161 hier werden über der Basis 32hz zufällige Obertöne (vom 4 bis 16.) erzeugt \, indem die Basis mit Randomwerten multipliziert wird;
#X text 123 195 envelope;
#X text 19 314 zufällige;
#X text 17 331 lautstärken;
#X msg 199 192 0 \, 1 5 \, 0 150 5;
#X obj 426 272 noise~;
#X obj 426 303 vcf~ 50 20;
#X text 11 347 zw. 0.3 - 0.7;
#X obj 202 306 +~;
#X obj 426 327 *~ 0.2;
#X text 492 243 gefilterter Noise \, 2 Oktaven höher (Frequenz * 4);
#X obj 459 244 * 4;
#X text 483 328 leiser als osc~;
#X connect 0 0 3 1;
#X connect 1 0 10 0;
#X connect 2 0 1 0;
#X connect 3 0 25 0;
#X connect 5 0 3 0;
#X connect 6 0 1 1;
#X connect 7 0 0 0;
#X connect 7 0 28 0;
#X connect 8 0 12 0;
#X connect 9 0 4 0;
#X connect 10 0 21 0;
#X connect 10 1 16 0;
#X connect 10 2 13 0;
#X connect 12 0 9 1;
#X connect 12 0 11 0;
#X connect 13 0 8 0;
#X connect 15 0 7 0;
#X connect 15 0 14 0;
#X connect 16 0 15 0;
#X connect 21 0 5 0;
#X connect 22 0 23 0;
#X connect 23 0 26 0;
#X connect 25 0 9 0;
#X connect 28 0 23 1;
#X restore 110 200 pd melody;
#X obj 115 318 r~ \$0-fb-1;
#X obj 194 319 r~ \$0-fb-2;
#X obj 191 349 r~ \$0-fb-3;
#X obj 190 375 r~ \$0-fb-4;
#X text 286 344 alle 4 [delread~] Objekte schreiben das feedback in dieselbe delayline!;
#X obj 111 746 output~;
#X obj 163 694 *~;
#X obj 181 473 vsl 19 162 0 1 0 0 empty empty empty 0 -9 0 12 #fcfcfc #000000 #000000 0 1;
#X floatatom 181 643 5 0 0 0 - - - 0;
#X obj 271 690 *~;
#X obj 289 469 vsl 19 162 0 1 0 0 empty empty empty 0 -9 0 12 #fcfcfc #000000 #000000 0 1;
#X floatatom 289 642 5 0 0 0 - - - 0;
#X obj 381 693 *~;
#X obj 399 472 vsl 19 162 0 1 0 0 empty empty empty 0 -9 0 12 #fcfcfc #000000 #000000 0 1;
#X floatatom 399 642 5 0 0 0 - - - 0;
#X obj 485 690 *~;
#X obj 503 472 vsl 19 162 0 1 0 0 empty empty empty 0 -9 0 12 #fcfcfc #000000 #000000 0 1;
#X floatatom 503 642 5 0 0 0 - - - 0;
#X obj 596 650 vu 19 200 empty empty -1 -10 0 12 #404040 #000000 1 0;
#X obj 544 753 env~;
#X obj 544 777 - 100;
#X text 551 569 Lautstärke tapouts / delread~;
#X text 680 724 VU-Meter zum messen der Gesamtlautstärke. Alles über 0db (rot) verzerrt / ist zuviel!;
#X text 684 757 Wenn hohe Feedback-Werte eingestellt sind addiert sich die Lautstärke sehr schnell!;
#X obj 163 665 r~ \$0-tapout-1;
#X obj 271 664 r~ \$0-tapout-2;
#X obj 381 664 r~ \$0-tapout-3;
#X obj 485 664 r~ \$0-tapout-4;
#X connect 0 0 40 0;
#X connect 1 0 6 0;
#X connect 2 0 40 1;
#X connect 3 0 4 0;
#X connect 4 0 2 0;
#X connect 5 0 7 0;
#X connect 6 0 7 1;
#X connect 8 0 10 0;
#X connect 9 0 11 0;
#X connect 10 0 11 1;
#X connect 12 0 14 0;
#X connect 13 0 15 0;
#X connect 14 0 15 1;
#X connect 16 0 18 0;
#X connect 17 0 19 0;
#X connect 18 0 19 1;
#X connect 20 0 24 0;
#X connect 20 0 46 0;
#X connect 20 0 46 1;
#X connect 21 0 20 2;
#X connect 22 0 23 0;
#X connect 23 0 20 0;
#X connect 25 0 29 0;
#X connect 26 0 30 0;
#X connect 27 0 31 0;
#X connect 28 0 32 0;
#X connect 29 0 5 0;
#X connect 30 0 9 0;
#X connect 31 0 13 0;
#X connect 32 0 17 0;
#X connect 40 0 20 1;
#X connect 41 0 24 0;
#X connect 42 0 24 0;
#X connect 43 0 24 0;
#X connect 44 0 24 0;
#X connect 47 0 46 1;
#X connect 47 0 46 0;
#X connect 47 0 60 0;
#X connect 48 0 49 0;
#X connect 49 0 47 1;
#X connect 50 0 46 1;
#X connect 50 0 46 0;
#X connect 50 0 60 0;
#X connect 51 0 52 0;
#X connect 52 0 50 1;
#X connect 53 0 46 0;
#X connect 53 0 46 1;
#X connect 53 0 60 0;
#X connect 54 0 55 0;
#X connect 55 0 53 1;
#X connect 56 0 46 1;
#X connect 56 0 46 0;
#X connect 56 0 60 0;
#X connect 57 0 58 0;
#X connect 58 0 56 1;
#X connect 60 0 61 0;
#X connect 61 0 59 0;
#X connect 65 0 47 0;
#X connect 66 0 50 0;
#X connect 67 0 53 0;
#X connect 68 0 56 0;
