#N canvas 449 134 1002 667 12;
#X obj 349 376 mtof;
#X obj 349 234 vsl 15 128 0 127 0 0 empty empty empty 0 -9 0 10 #fcfcfc #000000 #000000 0 1;
#X floatatom 349 416 7 0 0 0 - - - 0;
#X obj 103 585 dac~ 1 2;
#X obj 103 545 *~ 0;
#X floatatom 349 467 5 0 0 0 - - - 0;
#X text 410 415 Frequenz in Hz;
#X text 395 468 msec;
#X obj 544 428 line;
#X floatatom 544 452 5 0 0 0 - - - 0;
#X obj 588 270 bng 19 250 50 0 empty empty empty 0 -10 0 12 #fcfcfc #000000 #000000;
#X obj 103 373 *~ 0.5;
#X obj 102 312 noise~;
#N canvas 45 83 566 577 fft 0;
#X obj 19 61 inlet~;
#X obj 95 214 inlet;
#X obj 29 92 rfft~;
#X obj 29 125 *~;
#X obj 60 125 *~;
#X obj 29 155 sqrt~;
#X obj 332 109 block~ 4096 1;
#X obj 29 181 biquad~ 0 0 0 0 1;
#X text 93 93 Fourier series;
#X text 98 146 magnitude;
#X text 96 131 calculate;
#X text 21 3 This subpatch computes the spectrum of the incoming signal with a (rectangular windowed) FFT. FFTs aren't properly introduced until much later.;
#X text 83 61 signal to analyze;
#X text 192 166 delay two samples;
#X text 191 182 for better graphing;
#X obj 16 425 samplerate~;
#X obj 16 402 bng 18 250 50 0 empty empty empty 0 -6 0 8 #fcfcfc #000000 #000000;
#X floatatom 16 472 5 0 0 0 - - - 0;
#X obj 16 448 / 256;
#X obj 16 378 loadbang;
#X floatatom 16 541 5 0 0 0 - - - 0;
#X obj 24 494 s fundamental;
#X obj 16 517 ftom;
#X text 14 319 At load time \, calculate a good choice of fundamental frequency for showing spectra: the 16th bin in a 4096-point spectrum \, so SR*16/4096 or SR/256.;
#X text 145 216 "bang" into this inlet to graph it;
#X floatatom 191 480 5 0 0 0 - - - 0;
#X obj 191 456 / 4096;
#X text 187 425 One bin is SR/4096:;
#X text 72 540 <-just out of curiosity \, here's the fundamental pitch;
#X obj 191 502 s freq-step;
#X obj 95 248 tabwrite~ \$0-sidebands;
#X obj 20 281 tabwrite~ \$0-sidebands;
#X connect 0 0 2 0;
#X connect 0 0 31 0;
#X connect 1 0 30 0;
#X connect 1 0 31 0;
#X connect 2 0 3 0;
#X connect 2 0 3 1;
#X connect 2 1 4 0;
#X connect 2 1 4 1;
#X connect 3 0 5 0;
#X connect 4 0 5 0;
#X connect 5 0 7 0;
#X connect 7 0 30 0;
#X connect 15 0 18 0;
#X connect 15 0 26 0;
#X connect 16 0 15 0;
#X connect 17 0 21 0;
#X connect 17 0 22 0;
#X connect 18 0 17 0;
#X connect 19 0 16 0;
#X connect 22 0 20 0;
#X connect 25 0 29 0;
#X connect 26 0 25 0;
#X restore 213 568 pd fft;
#X text 277 519 graph frequencies;
#X obj 252 542 metro 20;
#X obj 252 521 tgl 15 0 empty empty empty 17 7 0 10 #fcfcfc #000000 #000000 0 1;
#N canvas 0 22 450 300 (subpatch) 0;
#X array \$0-sidebands 2000 float 0;
#X coords 0 100 1999 -40 200 130 1 0 0;
#X restore 699 505 graph;
#X obj 588 346 bng 19 250 50 0 empty empty empty 0 -10 0 12 #fcfcfc #000000 #000000;
#X obj 588 419 spigot;
#X obj 626 395 tgl 19 0 empty empty empty 0 -10 0 12 #fcfcfc #000000 #000000 0 1;
#X obj 349 442 expr 1000/$f1;
#N canvas 668 149 783 493 delay 0;
#X obj 56 38 inlet~;
#X text 336 53 CONTROLLING DELAY WITH BLOCK~;
#X text 313 87 In situations where a delay read feeds back to a delay write \, the minimum possible delay you can achieve is one block \, which by default is 64 samples \, or 1.45 msec at 44100 Hz. You can shorten the minimum delay by changing the block size. Do this in a subpatch (open it to see how).;
#X obj 67 96 delwrite~ delay1 1000;
#X obj 100 185 delread~ delay1 500;
#X obj 101 146 inlet;
#X obj 99 248 outlet~;
#X obj 34 250 outlet~;
#X obj 317 193 block~ 1 1 1;
#X connect 0 0 3 0;
#X connect 0 0 7 0;
#X connect 4 0 6 0;
#X connect 5 0 4 0;
#X restore 191 462 pd delay write read;
#X obj 191 486 +~;
#X msg 539 240 20 \, 1500 5000;
#X obj 588 296 delay 5000;
#X msg 588 320 1500 \, 20 5000;
#X obj 588 372 delay 5000;
#X text 705 248 einfache Ramp up/down Konstruktion mit;
#X text 707 261 Delay-Objekt (Steuerwerte);
#X text 652 399 Loop An/Aus;
#X text 34 126 Wird zu einem Signal eine zeitverzögerte Kopie desselben addiert \, entsteht ein kammgefiltertes Signal. Bei Frequenzen und ihren Vielfachen \, deren Periodendauer der Verzögerungszeit entspricht \, erhält man die doppelte Signalamplitude (konstruktive Interferenz) \, während sich die genau dazwischenliegenden Frequenzen auslöschen (destruktive Interferenz).;
#X text 35 29 Ein Kammfilter (englisch comb filter) ist ein Filter \, das aus Signalen Gruppen bestimmter Frequenz filtert. Im Unterschied zu Tief- und Hochpass ist es durch mehrere Filterfrequenzen im gleichen Frequenzabstand gekennzeichnet. Der Betrag des Frequenzgangs (Amplitudengang) des Kammfilters hat ein kammartiges Aussehen \, woher das Kammfilter seinen Namen hat.;
#X floatatom 123 493 5 0 1 0 - - - 0;
#X text 38 6 4_Kammfilter;
#X floatatom 401 378 5 0 0 0 - - - 0;
#X connect 0 0 2 0;
#X connect 1 0 0 0;
#X connect 1 0 35 0;
#X connect 2 0 21 0;
#X connect 4 0 3 0;
#X connect 4 0 3 1;
#X connect 5 0 22 1;
#X connect 8 0 9 0;
#X connect 9 0 2 0;
#X connect 10 0 25 0;
#X connect 11 0 22 0;
#X connect 12 0 11 0;
#X connect 15 0 13 1;
#X connect 16 0 15 0;
#X connect 18 0 27 0;
#X connect 19 0 24 0;
#X connect 20 0 19 1;
#X connect 21 0 5 0;
#X connect 22 0 23 0;
#X connect 22 1 23 1;
#X connect 23 0 4 0;
#X connect 23 0 13 0;
#X connect 24 0 8 0;
#X connect 24 0 10 0;
#X connect 25 0 26 0;
#X connect 26 0 8 0;
#X connect 26 0 18 0;
#X connect 27 0 19 0;
#X connect 33 0 4 1;
