#N canvas 41 38 1439 806 12;
#X obj 153 525 dac~;
#X obj 64 257 s bang;
#X obj 65 206 bng 19 250 50 0 empty empty empty 0 -10 0 12 #fcfcfc #000000 #000000;
#X obj 154 460 *~;
#X obj 224 203 vsl 19 162 0 1 0 0 empty empty empty 0 -9 0 12 #fcfcfc #000000 #000000 0 1;
#X obj 215 415 line~;
#X msg 219 389 \$1 10;
#X obj 22 11 klang 100 300;
#X obj 19 45 klang 500 1000;
#X obj 19 81 klang 3000 5000;
#X obj 134 11 klang 100 300;
#X obj 131 45 klang 500 1000;
#X obj 131 81 klang 3000 5000;
#X obj 248 11 klang 100 300;
#X obj 245 45 klang 500 1000;
#X obj 245 81 klang 3000 5000;
#X obj 118 385 catch~ sig;
#X obj 362 8 klang 100 300;
#X obj 359 42 klang 500 1000;
#X obj 359 78 klang 3000 5000;
#X obj 480 7 klang 100 300;
#X obj 477 41 klang 500 1000;
#X obj 477 77 klang 3000 5000;
#X obj 597 7 klang 100 300;
#X obj 594 41 klang 500 1000;
#X obj 594 77 klang 3000 5000;
#X obj 717 6 klang 100 300;
#X obj 714 40 klang 500 1000;
#X obj 714 76 klang 3000 5000;
#X obj 834 6 klang 100 300;
#X obj 831 40 klang 500 1000;
#X obj 831 76 klang 3000 5000;
#X obj 118 414 /~ 24;
#X obj 356 307 hsl 162 19 500 10000 0 0 empty empty empty -2 -10 0 12 #fcfcfc #000000 #000000 0 1;
#X floatatom 352 335 5 0 0 0 - - - 0;
#X obj 352 368 s dec;
#X obj 353 187 hsl 162 19 5 500 0 0 empty empty empty -2 -10 0 12 #fcfcfc #000000 #000000 0 1;
#X floatatom 350 211 5 0 0 0 - - - 0;
#X obj 350 239 s att;
#X text 668 172 This patch generates sound with 24 Sinewaves in Abstractions ("klang"). The Frequencies are random \, the random boundaries are set with two creation arguments.;
#X text 358 154 Attack;
#X text 354 278 Decay;
#X text 671 236 Attack and decay time can be set via sliders.;
#X connect 2 0 1 0;
#X connect 3 0 0 0;
#X connect 3 0 0 1;
#X connect 4 0 6 0;
#X connect 5 0 3 1;
#X connect 6 0 5 0;
#X connect 16 0 32 0;
#X connect 32 0 3 0;
#X connect 33 0 34 0;
#X connect 34 0 35 0;
#X connect 36 0 37 0;
#X connect 37 0 38 0;
