#N canvas 311 276 774 586 12;
#N canvas 0 22 450 278 (subpatch) 0;
#X array array1 53 float 1;
#A 0 0.04 0.04 0.08 0.12 0.16 0.2 0.24 0.28 0.32 0.36 0.4 0.44 0.48 0.52 0.56 0.6 0.64 0.68 0.72 0.76 0.8 0.84 0.88 0.92 0.96 1 1 0.96 0.92 0.88 0.84 0.8 0.76 0.72 0.68 0.64 0.6 0.56 0.52 0.48 0.44 0.4 0.36 0.32 0.28 0.24 0.2 0.16 0.12 0.08 0.04 0 0;
#X coords 0 1 52 -1 200 140 1 0 0;
#X restore 442 154 graph;
#X obj 263 80 bng 19 250 50 0 empty empty empty 0 -10 0 12 #fcfcfc #000000 #000000;
#X obj 264 421 tabwrite array1;
#X obj 323 300 f;
#X obj 323 324 + 1;
#X obj 323 348 mod 100;
#X obj 322 262 bng 19 250 50 0 empty empty empty 0 -10 0 12 #fcfcfc #000000 #000000;
#X obj 401 376 print;
#X msg 449 72 \; array1 const 0;
#X msg 226 128 0 \, 1 500;
#X obj 243 153 bng 19 250 50 0 empty empty empty 0 -10 0 12 #fcfcfc #000000 #000000;
#X msg 278 201 1 \, 0 500;
#X obj 243 177 delay 500;
#X obj 231 235 line 5;
#X msg 353 254 -1;
#X connect 1 0 9 0;
#X connect 1 0 14 0;
#X connect 3 0 4 0;
#X connect 4 0 5 0;
#X connect 5 0 3 1;
#X connect 5 0 2 1;
#X connect 5 0 7 0;
#X connect 6 0 3 0;
#X connect 9 0 10 0;
#X connect 9 0 13 0;
#X connect 10 0 12 0;
#X connect 11 0 13 0;
#X connect 12 0 11 0;
#X connect 13 0 6 0;
#X connect 13 0 2 0;
#X connect 14 0 3 0;
