#N canvas 530 39 866 864 12;
#X obj 75 540 tabread4~ grainArray;
#X text 134 489 start (samples);
#X text 139 504 end (samples);
#X text 137 519 TIME msec;
#X msg 75 459 \$1 \, \$2 \$3;
#X obj 75 424 pack f f f;
#X floatatom 75 204 7 0 0 0 - - - 0;
#X obj 75 238 t f f;
#X obj 108 289 +;
#X obj 219 244 samplerate~;
#X floatatom 184 179 5 0 0 0 - - - 0;
#X obj 202 295 *;
#X obj 219 267 / 1000;
#X obj 184 153 r grain_dur;
#X obj 219 221 loadbang;
#X obj 74 59 inlet;
#X msg 309 488 \$1 \, \$2 \$3;
#X obj 340 436 r envsize;
#X obj 75 590 *~;
#X obj 309 464 pack 0 f f;
#X obj 309 536 tabread4~ env;
#X obj 388 750 outlet~;
#X obj 329 721 *~;
#X obj 388 721 *~;
#X obj 329 750 outlet~;
#X obj 506 536 inlet;
#X obj 447 560 random 50;
#X obj 75 494 vline~;
#X obj 309 512 vline~;
#X obj 190 339 *;
#X obj 245 310 r transp;
#X floatatom 188 396 5 0 0 0 - - - 0;
#N canvas 318 133 450 300 semitone 0;
#X obj 19 148 pow 2;
#X obj 48 122 / 12;
#X obj 19 199 outlet;
#X obj 18 96 t b f;
#X msg 18 121 2;
#X obj 19 23 inlet;
#X connect 0 0 2 0;
#X connect 1 0 0 1;
#X connect 3 0 4 0;
#X connect 3 1 1 0;
#X connect 4 0 0 0;
#X connect 5 0 3 0;
#X restore 245 379 pd semitone;
#X obj 245 402 t b f;
#X obj 191 424 t b f;
#X obj 108 323 +;
#X obj 245 333 * -1;
#X floatatom 447 626 5 0 0 0 - - - 0;
#X obj 447 593 expr (if(random(0 \, 2) > 0 \, $f1 * 1 \, $f1 * -1) + 50) / 100;
#X obj 496 628 expr 1 - $f1;
#X floatatom 496 652 5 0 0 0 - - - 0;
#X obj 74 115 t f b b b, f 63;
#X obj 522 325 r transprand;
#X obj 245 356 expr $f1+(random($f2*-100 \, $f2*100)/100);
#X obj 29 636 print;
#X floatatom 150 56 5 0 0 0 - - - 0;
#X floatatom 274 431 5 0 0 0 - - - 0;
#X text 26 291 CHECK!!!!!;
#X connect 0 0 18 0;
#X connect 4 0 27 0;
#X connect 5 0 4 0;
#X connect 5 0 44 0;
#X connect 6 0 7 0;
#X connect 7 0 5 0;
#X connect 7 1 8 0;
#X connect 8 0 35 0;
#X connect 9 0 12 0;
#X connect 10 0 11 0;
#X connect 10 0 29 0;
#X connect 11 0 8 1;
#X connect 12 0 11 1;
#X connect 13 0 10 0;
#X connect 14 0 9 0;
#X connect 15 0 41 0;
#X connect 16 0 28 0;
#X connect 17 0 19 1;
#X connect 18 0 22 1;
#X connect 18 0 23 1;
#X connect 19 0 16 0;
#X connect 20 0 18 1;
#X connect 22 0 24 0;
#X connect 23 0 21 0;
#X connect 25 0 26 1;
#X connect 26 0 38 0;
#X connect 27 0 0 0;
#X connect 28 0 20 0;
#X connect 29 0 5 2;
#X connect 29 0 31 0;
#X connect 30 0 36 0;
#X connect 31 0 34 0;
#X connect 32 0 33 0;
#X connect 33 0 29 0;
#X connect 33 1 29 1;
#X connect 33 1 46 0;
#X connect 34 0 35 0;
#X connect 34 1 35 1;
#X connect 34 1 19 2;
#X connect 35 0 5 1;
#X connect 36 0 43 0;
#X connect 37 0 22 0;
#X connect 38 0 37 0;
#X connect 38 0 39 0;
#X connect 39 0 40 0;
#X connect 40 0 23 0;
#X connect 41 0 6 0;
#X connect 41 1 19 0;
#X connect 41 2 26 0;
#X connect 41 3 43 0;
#X connect 42 0 43 1;
#X connect 43 0 32 0;
#X connect 45 0 41 0;
