#N canvas 276 99 1236 814 12;
#X obj 115 355 cos~;
#X obj 115 303 vline~;
#X obj 578 528 *~;
#X obj 385 259 r posran;
#X obj 276 23 r grainlen;
#X obj 115 225 t b b;
#X obj 106 21 inlet;
#X obj 597 452 delread4~ master-delay;
#X msg 115 277 \$1 \, \$2 \$3;
#X obj 628 550 r vol;
#X obj 578 605 *~;
#X obj 628 612 line~;
#X obj 628 581 pack f 10;
#X obj 115 251 pack 0 1 \$1;
#X obj 115 329 expr~ $v1*0.5-0.25;
#X floatatom 593 43 6 0 0 0 - - - 0;
#X obj 593 17 r transpose;
#X obj 593 160 exp;
#X floatatom 593 186 6 0 0 0 - - - 0;
#X obj 594 261 /;
#X obj 685 230 * 0.001;
#X floatatom 594 287 6 0 0 0 - - - 0;
#X obj 594 209 - 1;
#X obj 593 134 * 0.05776;
#X obj 594 235 * -1;
#X obj 594 312 phasor~;
#X text 643 43 <-- transposition in halftones;
#X msg 669 329 0;
#X obj 596 355 *~;
#X obj 597 426 +~, f 4;
#X obj 198 81 expr abs($f1 + random(-$f2 \, $f2));
#X obj 410 23 r grainlen-rand;
#X obj 106 74 s \$0-bang;
#X obj 115 199 r \$0-bang;
#X text 63 356 env;
#N canvas 63 101 458 352 pan 0;
#X obj 90 168 cos~;
#X obj 218 168 cos~;
#X obj 91 81 * -0.25;
#X obj 219 81 expr 0.25 - ($f1 * 0.25);
#X obj 220 30 inlet;
#X obj 91 213 *~;
#X obj 219 213 *~;
#X obj 73 20 inlet~;
#X obj 91 237 outlet~;
#X obj 219 237 outlet~;
#X obj 90 138 line~;
#X msg 92 110 \$1 10;
#X obj 216 140 line~;
#X msg 218 112 \$1 10;
#X connect 0 0 5 0;
#X connect 1 0 6 0;
#X connect 2 0 11 0;
#X connect 3 0 13 0;
#X connect 4 0 2 0;
#X connect 4 0 3 0;
#X connect 5 0 8 0;
#X connect 6 0 9 0;
#X connect 7 0 5 1;
#X connect 7 0 6 1;
#X connect 10 0 0 0;
#X connect 11 0 10 0;
#X connect 12 0 1 0;
#X connect 13 0 12 0;
#X restore 578 636 pd pan;
#X obj 578 667 throw~ ch1;
#X obj 622 706 throw~ ch2;
#X obj 837 614 r pan;
#X obj 948 574 r randpan;
#X obj 329 313 random 0;
#X obj 593 78 expr $f1 + (random(-$f2 * 1000 \, $f2 *1000) * 0.001), f 21;
#X obj 868 9 r transprand;
#X obj 890 537 r \$0-bang;
#X obj 838 647 expr $f1 + $f2;
#X floatatom 838 719 5 0 0 0 - - - 0;
#X obj 838 683 clip 0 1;
#X obj 868 47 t b f;
#X floatatom 948 650 5 0 0 0 - - - 0;
#X obj 948 596 expr random(-$f1 * 1000 \, $f1 * 1000) * 0.001, f 19;
#X obj 890 566 t b b;
#X obj 329 359 *;
#X obj 395 339 expr 5000 - $f1;
#X obj 385 288 * 1001;
#X obj 329 336 / 1000;
#X floatatom 329 382 5 0 0 0 - - - 0;
#X obj 198 52 f;
#X obj 198 23 r \$0-bang;
#X obj 106 48 t b;
#X text 635 358 fenstergröße;
#X obj 198 110 t f f f f;
#X obj 669 307 r \$0-bang;
#X obj 684 253 t b f;
#X text 419 312 position-random;
#X text 753 91 transp-rand;
#X obj 57 72 bng 19 250 50 0 empty empty empty 0 -10 0 12 #fcfcfc #000000 #000000;
#X connect 0 0 2 0;
#X connect 1 0 14 0;
#X connect 2 0 10 0;
#X connect 3 0 53 0;
#X connect 4 0 56 1;
#X connect 5 0 13 0;
#X connect 5 1 40 0;
#X connect 6 0 58 0;
#X connect 7 0 2 1;
#X connect 8 0 1 0;
#X connect 9 0 12 0;
#X connect 10 0 35 0;
#X connect 11 0 10 1;
#X connect 12 0 11 0;
#X connect 13 0 8 0;
#X connect 14 0 0 0;
#X connect 15 0 41 0;
#X connect 16 0 15 0;
#X connect 17 0 18 0;
#X connect 18 0 22 0;
#X connect 19 0 21 0;
#X connect 20 0 62 0;
#X connect 21 0 25 0;
#X connect 22 0 24 0;
#X connect 23 0 17 0;
#X connect 24 0 19 0;
#X connect 25 0 28 0;
#X connect 27 0 25 1;
#X connect 28 0 29 0;
#X connect 29 0 7 0;
#X connect 30 0 60 0;
#X connect 31 0 30 1;
#X connect 33 0 5 0;
#X connect 35 0 36 0;
#X connect 35 1 37 0;
#X connect 38 0 44 0;
#X connect 39 0 49 0;
#X connect 40 0 54 0;
#X connect 41 0 23 0;
#X connect 42 0 47 0;
#X connect 43 0 50 0;
#X connect 44 0 46 0;
#X connect 45 0 35 1;
#X connect 46 0 45 0;
#X connect 47 0 41 0;
#X connect 47 1 41 1;
#X connect 48 0 44 1;
#X connect 49 0 48 0;
#X connect 50 0 44 0;
#X connect 50 1 49 0;
#X connect 51 0 29 1;
#X connect 51 0 55 0;
#X connect 52 0 51 1;
#X connect 53 0 40 1;
#X connect 54 0 51 0;
#X connect 56 0 30 0;
#X connect 57 0 56 0;
#X connect 58 0 32 0;
#X connect 58 0 65 0;
#X connect 60 0 13 2;
#X connect 60 1 20 0;
#X connect 60 2 52 0;
#X connect 60 3 28 1;
#X connect 61 0 27 0;
#X connect 62 0 19 0;
#X connect 62 1 19 1;
