#N canvas 480 266 1032 585 12;
#X text 51 212 -> Scrub;
#X text 50 300 -> transpose;
#X text 47 57 -> Play with readsf;
#X text 47 172 -> tabplay;
#X text 41 108 -> load / save / record;
#N canvas 237 275 1049 466 array 0;
#X obj 60 58 array define sample_01;
#X obj 354 68 openpanel;
#X msg 355 96 read -resize \$1 sample_01;
#X obj 355 203 soundfiler;
#X obj 354 33 bng 19 250 50 0 empty empty empty 0 -10 0 12 #fcfcfc #000000 #000000;
#X text 436 149 direct path;
#X text 435 66 interface;
#X obj 396 140 bng 19 250 50 0 empty empty empty 0 -10 0 12 #fcfcfc #000000 #000000;
#X msg 397 170 read -resize ../samples/monte.wav sample_01;
#X text 618 119 path: ./ means on the same level as the pd-file;
#X text 663 133 ../ means one level higher;
#X obj 348 230 s samplen;
#X connect 1 0 2 0;
#X connect 2 0 3 0;
#X connect 3 0 11 0;
#X connect 4 0 1 0;
#X connect 7 0 8 0;
#X connect 8 0 3 0;
#X restore 275 102 pd array;
#N canvas 63 101 1010 723 readsf 0;
#X obj 120 99 openpanel;
#X obj 128 226 readsf~;
#X msg 120 129 open \$1;
#X obj 122 60 bng 19 250 50 0 empty empty empty 0 -10 0 12 #fcfcfc #000000 #000000;
#X obj 128 295 output~;
#X msg 233 151 open ./samples/monte.wav;
#X msg 248 196 start;
#X connect 0 0 2 0;
#X connect 1 0 4 0;
#X connect 2 0 1 0;
#X connect 3 0 0 0;
#X connect 5 0 1 0;
#X connect 6 0 1 0;
#X restore 273 57 pd readsf;
#N canvas 237 275 772 466 play 0;
#X obj 75 150 tabplay~ sample_01;
#X obj 79 227 *~ 0.5;
#X obj 79 251 dac~;
#X msg 122 110 stop;
#X msg 70 82 0;
#X obj 47 61 bng 19 250 50 0 empty empty empty 0 -10 0 12 #fcfcfc #000000 #000000;
#X obj 203 191 spigot;
#X obj 203 215 bng 19 250 50 0 empty empty empty 0 -10 0 12 #fcfcfc #000000 #000000;
#X obj 242 150 tgl 19 0 empty empty empty 0 -10 0 12 #fcfcfc #000000 #000000 0 1;
#X text 268 155 Loop;
#X text 222 51 "tabplay" plays the array ( no transp);
#X connect 0 0 1 0;
#X connect 0 1 6 0;
#X connect 1 0 2 0;
#X connect 1 0 2 1;
#X connect 3 0 0 0;
#X connect 4 0 0 0;
#X connect 5 0 0 0;
#X connect 6 0 7 0;
#X connect 7 0 0 0;
#X connect 8 0 6 1;
#X restore 278 161 pd play with tabplay;
#X text 49 253 -> Play with tabread4;
#N canvas 687 222 717 440 scrub 0;
#X obj 222 122 r samplen;
#X obj 163 134 *;
#X obj 167 65 hsl 162 19 0 127 0 0 empty empty empty -2 -10 0 12 #fcfcfc #000000 #000000 0 1;
#X obj 164 89 / 127;
#X obj 165 206 line~;
#X obj 164 169 pack f 50;
#X obj 165 230 tabread4~ sample_01;
#X obj 165 254 output~;
#X connect 0 0 1 1;
#X connect 1 0 5 0;
#X connect 2 0 3 0;
#X connect 3 0 1 0;
#X connect 4 0 6 0;
#X connect 5 0 4 0;
#X connect 6 0 7 0;
#X restore 276 202 pd scrub;
#N canvas 579 216 933 666 tabread4 0;
#X obj 354 406 r samplen;
#X obj 294 455 tabread4~ sample_01;
#X obj 295 486 output~;
#X obj 287 60 r samplen;
#X obj 296 384 phasor~;
#X obj 295 418 *~;
#X obj 323 120 samplerate~;
#X obj 297 158 /;
#X floatatom 296 185 5 0 0 0 - - - 0;
#X obj 291 89 t f b;
#X text 345 186 length of sample in SECONDS;
#X obj 297 221 expr 1 / $f1;
#X floatatom 297 245 5 0 0 0 - - - 0;
#X obj 296 345 *~;
#X obj 313 315 tgl 19 0 empty empty empty 0 -10 0 12 #fcfcfc #000000 #000000 0 1;
#X connect 0 0 5 1;
#X connect 1 0 2 0;
#X connect 3 0 9 0;
#X connect 4 0 5 0;
#X connect 5 0 1 0;
#X connect 6 0 7 1;
#X connect 7 0 8 0;
#X connect 8 0 11 0;
#X connect 9 0 7 0;
#X connect 9 1 6 0;
#X connect 11 0 12 0;
#X connect 12 0 13 0;
#X connect 13 0 4 0;
#X connect 14 0 13 1;
#X restore 281 244 pd tabread4;
#N canvas 579 216 933 666 transpose 1;
#X obj 186 451 r samplen;
#X obj 126 500 tabread4~ sample_01;
#X obj 127 531 output~;
#X obj 119 48 r samplen;
#X obj 128 429 phasor~;
#X obj 127 463 *~;
#X obj 155 108 samplerate~;
#X obj 129 146 /;
#X floatatom 128 173 5 0 0 0 - - - 0;
#X obj 123 77 t f b;
#X text 177 174 length of sample in SECONDS;
#X obj 129 209 expr 1 / $f1;
#X floatatom 129 233 5 0 0 0 - - - 0;
#X floatatom 201 287 5 0 0 2 Halbton_Transposition - - 0;
#N canvas 127 118 704 487 transp 0;
#X floatatom 39 147 5 0 0 0 - - - 0;
#X obj 38 119 pow 2;
#X obj 77 92 / 12;
#X obj 38 60 t b f;
#X msg 37 92 2;
#X obj 37 32 inlet;
#X obj 40 182 outlet;
#X text 254 16 Formel für Halbtontransposition zu Abspielgeschwindigkeit:;
#X text 255 33 2 ^ (x/12);
#X text 139 145 -> playback rate;
#X text 254 52 https://en.wikipedia.org/wiki/Twelfth_root_of_two;
#X connect 0 0 6 0;
#X connect 1 0 0 0;
#X connect 2 0 1 1;
#X connect 3 0 4 0;
#X connect 3 1 2 0;
#X connect 4 0 1 0;
#X connect 5 0 3 0;
#X restore 200 311 pd transp;
#X obj 128 321 *;
#X obj 128 401 *;
#X obj 177 369 tgl 19 0 empty empty empty 0 -10 0 12 #fcfcfc #000000 #000000 0 1;
#X obj 177 393 t b f;
#X obj 200 335 t b f;
#X connect 0 0 5 1;
#X connect 1 0 2 0;
#X connect 3 0 9 0;
#X connect 4 0 5 0;
#X connect 5 0 1 0;
#X connect 6 0 7 1;
#X connect 7 0 8 0;
#X connect 8 0 11 0;
#X connect 9 0 7 0;
#X connect 9 1 6 0;
#X connect 11 0 12 0;
#X connect 12 0 15 0;
#X connect 13 0 14 0;
#X connect 14 0 19 0;
#X connect 15 0 16 0;
#X connect 16 0 4 0;
#X connect 17 0 18 0;
#X connect 18 0 16 0;
#X connect 18 1 16 1;
#X connect 19 0 15 0;
#X connect 19 1 15 1;
#X restore 276 300 pd transpose;
