#N canvas 0 38 961 851 12;
#X text 54 72 -loopstart;
#X text 54 87 -looplength;
#X text 55 104 -readout speed;
#X text 55 121 -readout direction;
#X obj 53 25 array define sample;
#X obj 152 360 soundfiler;
#X obj 151 289 openpanel;
#X obj 153 253 bng 19 250 50 0 empty empty empty 0 -10 0 12 #fcfcfc #000000 #000000;
#X obj 34 284 print;
#X msg 154 322 read -resize \$1 sample;
#X obj 150 395 s samples;
#X obj 393 84 bng 19 250 50 0 empty empty empty 0 -10 0 12 #fcfcfc #000000 #000000;
#X obj 387 428 line~;
#X obj 387 594 dac~;
#X obj 387 527 tabread4~ sample;
#X msg 387 395 0 \, 1 \$1;
#X obj 387 461 *~;
#X msg 460 395 1 \, 0 \$1;
#X obj 387 362 route 0 1;
#X obj 387 329 pack f f;
#X obj 474 279 t b f;
#X obj 388 267 f;
#X obj 406 238 tgl 19 0 empty empty Reverse 0 -10 0 12 #fcfcfc #000000 #000000 0 1;
#X floatatom 594 176 5 0 0 0 - - - 0;
#X obj 631 232 samplerate~;
#X obj 594 274 *;
#X obj 631 256 / 1000;
#X obj 594 199 t f b;
#X floatatom 594 298 9 0 0 0 - - - 0;
#X obj 474 252 * 1;
#X obj 474 177 f;
#X obj 578 329 f;
#X obj 394 54 metro 1000;
#X floatatom 461 25 5 0 0 0 - - - 0;
#X obj 387 494 +~;
#X obj 735 349 f;
#X floatatom 745 190 5 0 0 0 - - - 0;
#X obj 791 221 samplerate~;
#X obj 745 257 *;
#X obj 791 255 / 1000;
#X obj 745 223 t f b;
#X floatatom 745 291 9 0 0 0 - - - 0;
#N canvas 295 333 450 300 lib 0;
#X obj 852 632 tabplay~ sample;
#X obj 848 295 metro 1000;
#X floatatom 916 267 5 0 0 0 - - - 0;
#X obj 828 166 tgl 19 0 empty empty empty 0 -10 0 12 #fcfcfc #000000 #000000 0 1;
#X msg 855 586 \$1 \$2;
#X text 939 537 loopstart looplength;
#X obj 863 536 pack f f;
#X floatatom 853 400 5 0 0 0 - - - 0;
#X floatatom 929 402 6 0 0 0 - - - 0;
#X obj 831 437 f;
#X obj 913 441 f;
#X obj 848 319 t b b;
#X obj 1038 301 samplerate~;
#X obj 981 343 *;
#X obj 1038 325 / 1000;
#X obj 978 276 t f b;
#X obj 1196 296 samplerate~;
#X floatatom 1136 248 6 0 0 0 - - - 0;
#X obj 1139 338 *;
#X obj 1196 320 / 1000;
#X obj 1136 271 t f b;
#X obj 986 53 osc~ 0.5;
#X obj 986 174 snapshot~;
#X obj 1069 114 tgl 19 0 empty empty empty 0 -10 0 12 #fcfcfc #000000 #000000 0 1;
#X obj 1069 138 metro 50;
#X floatatom 986 207 5 0 0 0 - - - 0;
#X floatatom 989 20 5 0 0 0 - - - 0;
#X obj 986 77 *~ 0.5;
#X obj 986 101 +~ 0.5;
#X obj 988 133 *~ 1000;
#X floatatom 1061 69 5 0 0 0 - - - 0;
#X obj 1191 42 osc~ 0.5;
#X obj 1191 163 snapshot~;
#X obj 1274 103 tgl 19 0 empty empty empty 0 -10 0 12 #fcfcfc #000000 #000000 0 1;
#X obj 1274 127 metro 50;
#X floatatom 1191 196 5 0 0 0 - - - 0;
#X floatatom 1194 9 5 0 0 0 - - - 0;
#X obj 1191 66 *~ 0.5;
#X obj 1191 90 +~ 0.5;
#X obj 1193 122 *~ 1000;
#X floatatom 1266 58 5 0 0 0 - - - 0;
#X connect 1 0 11 0;
#X connect 2 0 1 1;
#X connect 3 0 1 0;
#X connect 4 0 0 0;
#X connect 6 0 4 0;
#X connect 7 0 9 1;
#X connect 8 0 10 1;
#X connect 9 0 6 0;
#X connect 10 0 6 1;
#X connect 11 0 9 0;
#X connect 11 1 10 0;
#X connect 12 0 14 0;
#X connect 13 0 7 0;
#X connect 14 0 13 1;
#X connect 15 0 13 0;
#X connect 15 1 12 0;
#X connect 16 0 19 0;
#X connect 17 0 20 0;
#X connect 18 0 8 0;
#X connect 19 0 18 1;
#X connect 20 0 18 0;
#X connect 20 1 16 0;
#X connect 21 0 27 0;
#X connect 22 0 25 0;
#X connect 23 0 24 0;
#X connect 24 0 22 0;
#X connect 25 0 15 0;
#X connect 26 0 21 0;
#X connect 27 0 28 0;
#X connect 28 0 29 0;
#X connect 29 0 22 0;
#X connect 30 0 29 1;
#X connect 31 0 37 0;
#X connect 32 0 35 0;
#X connect 33 0 34 0;
#X connect 34 0 32 0;
#X connect 35 0 17 0;
#X connect 36 0 31 0;
#X connect 37 0 38 0;
#X connect 38 0 39 0;
#X connect 39 0 32 0;
#X connect 40 0 39 1;
#X restore 66 194 pd lib;
#X obj 391 109 t b b b b, f 42;
#X text 506 251 transp;
#X text 634 175 looplength;
#X text 791 189 loopstart;
#X text 501 27 loopfrequency;
#X obj 396 23 tgl 19 0 empty empty empty 0 -10 0 12 #fcfcfc #000000 #000000 0 1;
#X obj 387 557 *~ 0.5;
#X floatatom 492 219 5 0 0 2 transp - - 0;
#X connect 5 0 10 0;
#X connect 6 0 8 0;
#X connect 6 0 9 0;
#X connect 7 0 6 0;
#X connect 9 0 5 0;
#X connect 11 0 43 0;
#X connect 12 0 16 0;
#X connect 14 0 49 0;
#X connect 15 0 12 0;
#X connect 16 0 34 0;
#X connect 17 0 12 0;
#X connect 18 0 15 0;
#X connect 18 1 17 0;
#X connect 19 0 18 0;
#X connect 20 0 19 0;
#X connect 20 1 19 1;
#X connect 21 0 19 0;
#X connect 22 0 21 1;
#X connect 23 0 27 0;
#X connect 23 0 30 1;
#X connect 24 0 26 0;
#X connect 25 0 28 0;
#X connect 26 0 25 1;
#X connect 27 0 25 0;
#X connect 27 1 24 0;
#X connect 28 0 31 1;
#X connect 29 0 20 0;
#X connect 30 0 29 0;
#X connect 31 0 16 1;
#X connect 32 0 11 0;
#X connect 33 0 32 1;
#X connect 34 0 14 0;
#X connect 35 0 34 1;
#X connect 36 0 40 0;
#X connect 37 0 39 0;
#X connect 38 0 41 0;
#X connect 39 0 38 1;
#X connect 40 0 38 0;
#X connect 40 1 37 0;
#X connect 41 0 35 1;
#X connect 43 0 21 0;
#X connect 43 1 30 0;
#X connect 43 2 31 0;
#X connect 43 3 35 0;
#X connect 48 0 32 0;
#X connect 49 0 13 0;
#X connect 50 0 29 1;
