#N canvas 0 38 1398 874 12;
#N canvas 150 175 450 278 (subpatch) 0;
#X array sample_01 307411 float 2;
#X coords 0 1 307411 -1 202 126 1;
#X restore 590 69 graph;
#X obj 887 116 soundfiler;
#X obj 887 143 s smp-len;
#X obj 116 574 dac~ 1 2;
#X obj 114 516 *~;
#X obj 235 405 vsl 19 80 0 1 0 0 empty empty empty 0 -9 0 12 #fcfcfc #000000 #000000 0 1;
#X msg 235 499 \$1 10;
#X obj 233 524 line~;
#X obj 594 196 hsl 195 19 0 1 0 0 empty empty empty -2 -10 0 12 #fcfcfc #000000 #000000 0 1;
#X obj 593 218 hsl 195 19 0 1 0 0 empty empty empty -2 -10 0 12 #fcfcfc #000000 #000000 0 1;
#X obj 370 115 *;
#X obj 431 121 *;
#X obj 368 86 t b f;
#X obj 370 145 s start;
#X obj 430 148 s end;
#X obj 604 305 r start;
#X obj 680 307 r end;
#X floatatom 604 334 8 0 0 0 - - - 0;
#X floatatom 684 334 9 0 0 0 - - - 0;
#X obj 367 52 r smp-len;
#X obj 420 327 /;
#X obj 595 246 hsl 195 19 0 1 0 0 empty empty empty -2 -10 0 12 #fcfcfc #000000 #000000 0 1;
#X obj 594 268 hsl 195 19 0 1 0 0 empty empty empty -2 -10 0 12 #fcfcfc #000000 #000000 0 1;
#X obj 439 241 r smp-len;
#X obj 422 280 r start;
#X obj 503 318 /;
#X obj 501 286 r end;
#X obj 549 672 writesf~;
#X msg 549 608 open ./filename.wav;
#X obj 548 512 tgl 19 0 empty empty empty 0 -10 0 12 #fcfcfc #000000 #000000 0 1;
#X obj 548 536 sel 1;
#X msg 491 577 start;
#X msg 487 608 stop;
#X obj 551 569 t b b;
#X obj 592 68 hsl 197 126 0 1 0 0 empty playhead empty -2 -10 0 12 #ffffff #ff0400 #000000 0 1;
#X obj 1103 293 metro 250;
#X obj 1106 256 tgl 19 0 empty empty empty 0 -10 0 12 #fcfcfc #000000 #000000 0 1;
#X obj 1161 231 hsl 162 19 50 500 0 0 empty empty empty -2 -10 0 12 #fcfcfc #000000 #000000 0 1;
#X floatatom 1158 255 5 0 0 0 - - - 0;
#X obj 889 55 openpanel;
#X obj 885 15 bng 19 250 50 0 empty empty empty 0 -10 0 12 #fcfcfc #000000 #000000;
#X msg 886 86 read -resize \$1 sample_01;
#X obj 1222 304 random 500;
#X obj 1222 327 + 50;
#X obj 1222 354 spigot;
#X obj 1271 330 tgl 19 0 empty empty empty 0 -10 0 12 #fcfcfc #000000 #000000 0 1;
#X floatatom 97 111 5 0 0 2 länge\ array\ in\ sek - - 0;
#X obj 175 160 tgl 19 0 empty empty record 0 -10 0 12 #fcfcfc #000000 #000000 0 1;
#X obj 95 232 array define live-input;
#N canvas 284 38 1228 874 player 0;
#X text 250 7 1 einfacher sampleplayer mit tabread4~;
#X obj 142 556 phasor~;
#X obj 245 588 - 2;
#X obj 142 585 *~;
#X floatatom 142 346 11 0 0 0 - - - 0;
#X obj 147 216 expr $f1 / $f2, f 20;
#X obj 281 193 samplerate~;
#X floatatom 143 251 17 0 0 0 - - - 0;
#X obj 147 172 t f b, f 10;
#X text 274 253 Länge Sample in SEK;
#X obj 145 281 expr 1 / $f1;
#X floatatom 145 308 5 0 0 0 - - - 0;
#X text 193 309 Base_Frequency;
#X obj 142 525 *;
#X obj 200 526 t b f;
#X obj 142 428 *;
#X floatatom 242 416 5 0 0 2 Halbton_Transposition - - 0;
#N canvas 127 118 704 487 transp 0;
#X floatatom 39 147 5 0 0 0 - - - 0;
#X obj 38 119 pow 2;
#X obj 77 92 / 12;
#X obj 38 60 t b f;
#X msg 37 92 2;
#X obj 37 32 inlet;
#X obj 40 182 outlet;
#X text 254 16 Formel für Halbtontransposition zu Abspielgeschwindigkeit:;
#X text 255 33 2 ^ (x/12);
#X text 139 145 -> playback rate;
#X text 254 52 https://en.wikipedia.org/wiki/Twelfth_root_of_two;
#X connect 0 0 6 0;
#X connect 1 0 0 0;
#X connect 2 0 1 1;
#X connect 3 0 4 0;
#X connect 3 1 2 0;
#X connect 4 0 1 0;
#X connect 5 0 3 0;
#X restore 241 440 pd transp;
#X obj 241 464 t b f;
#X obj 140 28 r end;
#X obj 196 29 r start;
#X obj 194 52 t b f;
#X obj 144 85 -;
#X floatatom 141 114 22 0 0 0 - - - 0;
#X obj 177 139 s new_len;
#X obj 244 564 r new_len;
#X obj 142 627 +~;
#X obj 173 607 r start;
#N canvas 486 200 715 598 playhead 0;
#X obj 49 136 snapshot~;
#X obj 50 53 inlet~;
#X obj 121 80 metro 25;
#X obj 120 46 loadbang;
#X obj 166 522 s playhead;
#X obj 173 247 expr $f1 / $f2;
#X obj 268 218 samplerate~;
#X obj 173 185 t f b;
#X obj 209 51 bng 19 250 50 0 empty empty empty 0 -10 0 12 #fcfcfc #000000 #000000;
#X floatatom 174 306 5 0 0 0 - - - 0;
#X obj 381 200 r smp-len;
#X obj 380 397 expr $f1 / $f2;
#X obj 473 266 samplerate~;
#X obj 381 322 t f b;
#X obj 168 423 expr $f1 / $f2;
#X floatatom 173 475 5 0 0 0 - - - 0;
#X connect 0 0 7 0;
#X connect 1 0 0 0;
#X connect 2 0 0 0;
#X connect 3 0 2 0;
#X connect 5 0 9 0;
#X connect 6 0 5 1;
#X connect 7 0 5 0;
#X connect 7 1 6 0;
#X connect 8 0 2 0;
#X connect 9 0 14 0;
#X connect 10 0 13 0;
#X connect 11 0 14 1;
#X connect 12 0 11 1;
#X connect 13 0 11 0;
#X connect 13 1 12 0;
#X connect 14 0 15 0;
#X connect 15 0 4 0;
#X restore 171 688 pd playhead;
#X text 245 521 play;
#X obj 229 372 loadbang;
#X obj 199 497 inlet;
#X obj 336 365 inlet;
#X obj 146 756 outlet~;
#X obj 155 722 tabread4~ sample_01;
#X connect 1 0 3 0;
#X connect 2 0 3 1;
#X connect 3 0 26 0;
#X connect 4 0 15 0;
#X connect 5 0 7 0;
#X connect 6 0 5 1;
#X connect 7 0 10 0;
#X connect 8 0 5 0;
#X connect 8 1 6 0;
#X connect 10 0 11 0;
#X connect 11 0 4 0;
#X connect 13 0 1 0;
#X connect 14 0 13 0;
#X connect 14 1 13 1;
#X connect 15 0 13 0;
#X connect 16 0 17 0;
#X connect 17 0 18 0;
#X connect 18 0 15 0;
#X connect 18 1 15 1;
#X connect 19 0 22 0;
#X connect 20 0 21 0;
#X connect 21 0 22 0;
#X connect 21 1 22 1;
#X connect 22 0 23 0;
#X connect 23 0 24 0;
#X connect 23 0 8 0;
#X connect 25 0 2 0;
#X connect 26 0 28 0;
#X connect 26 0 34 0;
#X connect 27 0 26 1;
#X connect 30 0 16 0;
#X connect 31 0 14 0;
#X connect 32 0 16 0;
#X connect 34 0 33 0;
#X restore 115 442 pd player;
#X obj 117 399 tgl 19 0 empty empty start 0 -10 0 12 #fcfcfc #000000 #000000 0 1;
#X floatatom 176 374 5 0 0 2 transp\ in\ halbtönen - - 0;
#N canvas 286 138 1130 398 looper 0;
#X obj 345 238 +;
#X obj 82 132 t f b;
#X obj 341 153 random 20000;
#X obj 340 175 t b f;
#X obj 79 234 s start;
#X obj 345 276 s end;
#X obj 83 65 bng 19 250 50 0 empty empty empty 0 -10 0 12 #fcfcfc #000000 #000000;
#X obj 83 107 random 748000;
#X floatatom 423 121 5 0 0 0 - - - 0;
#X obj 156 55 r smp-len;
#X obj 388 216 + 50;
#X obj 108 84 s metro;
#X text 420 99 maximale looplänge in samples;
#X text 431 217 min. looplänge;
#X obj 76 28 inlet;
#X obj 422 7 inlet;
#X obj 423 62 *;
#X obj 484 30 samplerate~;
#X obj 423 34 t f b;
#X obj 484 54 / 1000;
#X connect 0 0 5 0;
#X connect 1 0 4 0;
#X connect 1 0 0 0;
#X connect 1 1 2 0;
#X connect 2 0 3 0;
#X connect 3 0 0 0;
#X connect 3 1 10 0;
#X connect 6 0 7 0;
#X connect 6 0 11 0;
#X connect 7 0 1 0;
#X connect 8 0 2 1;
#X connect 9 0 7 1;
#X connect 10 0 0 1;
#X connect 14 0 6 0;
#X connect 15 0 18 0;
#X connect 16 0 8 0;
#X connect 17 0 19 0;
#X connect 18 0 16 0;
#X connect 18 1 17 0;
#X connect 19 0 16 1;
#X restore 1121 467 pd looper;
#X floatatom 1179 434 5 0 0 1 max.\ looplänge\ in\ msec - - 0;
#X obj 45 512 env~;
#X obj 45 536 - 100;
#X obj 67 620 vu 19 200 empty empty -1 -10 0 12 #404040 #000000 1 0;
#N canvas 574 213 613 457 livearray 1;
#N canvas 289 143 861 531 writearray 1;
#X obj 54 214 adc~;
#X obj 99 214 inlet;
#X obj 73 296 tabwrite~ sample_01;
#X obj 349 180 readsf~;
#X connect 0 0 2 0;
#X connect 1 0 2 0;
#X restore 300 157 pd writearray;
#X obj 299 125 bng 19 250 50 0 empty empty empty 0 -10 0 12 #fcfcfc #000000 #000000;
#X obj 296 92 metro 100;
#X obj 161 198 *;
#X obj 180 169 samplerate~;
#X obj 158 129 t f b;
#X obj 231 83 * 1000;
#X obj 105 249 s smp-len;
#X obj 138 71 inlet;
#X obj 293 58 inlet;
#X obj 166 228 array size sample_01;
#X connect 1 0 0 0;
#X connect 2 0 1 0;
#X connect 3 0 7 0;
#X connect 3 0 10 0;
#X connect 4 0 3 1;
#X connect 5 0 3 0;
#X connect 5 1 4 0;
#X connect 6 0 2 1;
#X connect 8 0 5 0;
#X connect 8 0 6 0;
#X connect 9 0 2 0;
#X restore 96 194 pd livearray;
#X text 603 562 Stream Sound to Disk (Audio aufnehmen);
#X connect 1 0 2 0;
#X connect 4 0 3 0;
#X connect 4 0 3 1;
#X connect 5 0 6 0;
#X connect 6 0 7 0;
#X connect 7 0 4 1;
#X connect 8 0 10 0;
#X connect 9 0 11 0;
#X connect 10 0 13 0;
#X connect 11 0 14 0;
#X connect 12 0 10 0;
#X connect 12 0 11 0;
#X connect 12 1 10 1;
#X connect 12 1 11 1;
#X connect 15 0 17 0;
#X connect 16 0 18 0;
#X connect 19 0 12 0;
#X connect 20 0 21 0;
#X connect 23 0 20 1;
#X connect 23 0 25 1;
#X connect 24 0 20 0;
#X connect 25 0 22 0;
#X connect 26 0 25 0;
#X connect 28 0 27 0;
#X connect 29 0 30 0;
#X connect 30 0 33 0;
#X connect 30 1 32 0;
#X connect 31 0 27 0;
#X connect 32 0 27 0;
#X connect 33 0 31 0;
#X connect 33 1 28 0;
#X connect 35 0 42 0;
#X connect 35 0 52 0;
#X connect 36 0 35 0;
#X connect 37 0 38 0;
#X connect 38 0 35 1;
#X connect 39 0 41 0;
#X connect 40 0 39 0;
#X connect 41 0 1 0;
#X connect 42 0 43 0;
#X connect 43 0 44 0;
#X connect 44 0 37 0;
#X connect 45 0 44 1;
#X connect 46 0 57 0;
#X connect 47 0 57 1;
#X connect 49 0 54 0;
#X connect 49 0 4 0;
#X connect 50 0 49 0;
#X connect 51 0 49 1;
#X connect 53 0 52 1;
#X connect 54 0 55 0;
#X connect 55 0 56 0;
