#N canvas 325 126 1110 742 12;
#X obj 133 424 output~;
#X msg 131 301 next \$1;
#X obj 320 257 bng 19 250 50 0 empty empty empty 0 -10 0 12 #fcfcfc #000000 #000000;
#X obj 123 45 until;
#X obj 119 76 f;
#X obj 160 79 + 1;
#X obj 116 132 t b f;
#X floatatom 54 139 5 0 0 0 - - - 0;
#X msg 306 337 all \$1;
#X obj 316 292 1;
#X floatatom 358 100 5 0 0 0 - - - 0;
#X obj 63 312 print;
#X obj 98 181 expr $f1 * ($f2 + (random(-$f3 \, $f3) * 0.1));
#X obj 294 131 t b f;
#X obj 116 108 mod 64;
#X msg 125 15 64;
#X obj 133 354 clone osc 64;
#X obj 132 385 /~ 64;
#X connect 1 0 16 0;
#X connect 2 0 9 0;
#X connect 3 0 4 0;
#X connect 4 0 5 0;
#X connect 5 0 14 0;
#X connect 6 0 12 0;
#X connect 6 1 12 1;
#X connect 7 0 12 0;
#X connect 8 0 16 1;
#X connect 9 0 8 0;
#X connect 10 0 13 0;
#X connect 12 0 1 0;
#X connect 12 0 11 0;
#X connect 13 0 15 0;
#X connect 13 1 12 2;
#X connect 14 0 4 1;
#X connect 14 0 6 0;
#X connect 15 0 3 0;
#X connect 15 0 2 0;
#X connect 16 0 17 0;
#X connect 17 0 0 0;
