#N canvas 63 101 540 374 12;
#X obj 138 159 osc~;
#X obj 204 84 expr random (60 \, 100);
#X obj 143 254 outlet~;
#X obj 138 183 *~;
#X obj 137 105 inlet;
#X obj 217 11 inlet;
#X obj 207 53 bng 19 250 50 0 empty empty empty 0 -10 0 12 #fcfcfc #000000 #000000;
#X obj 64 138 pack f 50;
#X obj 64 162 line~;
#X obj 201 151 pack f 100;
#X obj 216 118 dbtorms;
#X obj 205 192 line~;
#X connect 0 0 3 0;
#X connect 1 0 10 0;
#X connect 3 0 2 0;
#X connect 4 0 7 0;
#X connect 5 0 6 0;
#X connect 6 0 1 0;
#X connect 7 0 8 0;
#X connect 8 0 0 0;
#X connect 9 0 11 0;
#X connect 10 0 9 0;
#X connect 11 0 3 1;
