#N canvas 317 25 1603 965 12;
#X obj 285 371 *~;
#X obj 273 21 r bang;
#X obj 128 315 vline~;
#X obj 302 311 osc~;
#X obj 324 127 \$2;
#X obj 363 129 \$1;
#X obj 322 168 -;
#X floatatom 322 191 5 0 0 0 - - - 0;
#X obj 303 232 random;
#X obj 306 91 t b b b;
#X obj 302 259 + \$1;
#X floatatom 302 282 5 0 0 0 - - - 0;
#X obj 272 45 t b b;
#X obj 284 402 throw~ sig;
#X obj 167 86 r att;
#X obj 225 86 r dec;
#X obj 121 205 pack 0 1 f 0 0 f f, f 23;
#X obj 511 101 pack 10 40 50 20;
#X obj 504 61 bng 19 250 50 0 empty empty empty 0 -10 0 12 #fcfcfc #000000 #000000;
#X floatatom 513 156 5 0 0 0 - - - 0;
#X msg 513 133 \$5;
#X msg 120 246 \$1 \, \$2 \$3 \$4 \, \$5 \$6 \$3;
#X connect 0 0 13 0;
#X connect 1 0 12 0;
#X connect 2 0 0 0;
#X connect 3 0 0 1;
#X connect 4 0 6 0;
#X connect 5 0 6 1;
#X connect 6 0 7 0;
#X connect 7 0 8 1;
#X connect 8 0 10 0;
#X connect 9 0 8 0;
#X connect 9 1 4 0;
#X connect 9 2 5 0;
#X connect 10 0 11 0;
#X connect 11 0 3 0;
#X connect 12 0 16 0;
#X connect 12 1 9 0;
#X connect 14 0 16 2;
#X connect 14 0 16 6;
#X connect 15 0 16 5;
#X connect 16 0 21 0;
#X connect 17 0 20 0;
#X connect 18 0 17 0;
#X connect 20 0 19 0;
#X connect 21 0 2 0;
